<svg xmlns="http://www.w3.org/2000/svg" xmlns:xlink="http://www.w3.org/1999/xlink" width="130" height="130" viewBox="0 0 130 130">
  <defs>
    <clipPath id="clip-path">
      <circle id="楕円形_6" data-name="楕円形 6" cx="65" cy="65" r="65" transform="translate(390 1425)" fill="#fff"/>
    </clipPath>
    <clipPath id="clip-path-2">
      <rect id="長方形_36" data-name="長方形 36" width="175.356" height="202.359" fill="none"/>
    </clipPath>
  </defs>
  <g id="man" transform="translate(-390 -1425)" clip-path="url(#clip-path)">
    <g id="グループ_40" data-name="グループ 40" transform="translate(367.467 1425)">
      <circle id="楕円形_5" data-name="楕円形 5" cx="65" cy="65" r="65" transform="translate(22.533 0)" fill="#fff"/>
      <g id="グループ_39" data-name="グループ 39" transform="translate(0 11.986)" clip-path="url(#clip-path-2)">
        <path id="パス_266" data-name="パス 266" d="M143.253,52.771a4.033,4.033,0,0,1,2.933-1.07,3.758,3.758,0,0,1,3.371,1.906c1.14,2.012,1.077,5.712.3,8a12.368,12.368,0,0,1-3.616,5.865,4.315,4.315,0,0,1-3.837.895,31.152,31.152,0,0,1-5.755,10.984,21.465,21.465,0,0,1-6.784,5.734c0,.247,0,.5,0,.772a6.143,6.143,0,0,0,.262,2.176,5.288,5.288,0,0,0,1.587,2.311,17.818,17.818,0,0,0,5.312,2.688l1.7.672c-4.586,3.676-12.755,6.617-21.264,6.642-8.451-.025-16.567-2.926-21.168-6.568l1.9-.746a17.818,17.818,0,0,0,5.312-2.688,5.288,5.288,0,0,0,1.587-2.311,6.143,6.143,0,0,0,.262-2.176s0-.059,0-.166a23.587,23.587,0,0,1-7.507-6.34,31.163,31.163,0,0,1-5.8-11.15,4.355,4.355,0,0,1-3.723-.957,12.367,12.367,0,0,1-3.571-5.894c-.762-2.292-.8-5.992.36-7.995a3.755,3.755,0,0,1,3.385-1.88,4.03,4.03,0,0,1,2.925,1.093s-11.4-27.175,27.218-27.175,24.62,27.378,24.62,27.378Z" transform="translate(-30.309 -9.14)" fill="#fff"/>
        <path id="パス_271" data-name="パス 271" d="M139.675,43.069a28.67,28.67,0,0,0-7.252-9.326,16.607,16.607,0,0,0-4.743-3.01,18.037,18.037,0,0,0-4.446-.922l-.7.284c-3.473,1.476-8.371,4.576-11.12,6.117a.943.943,0,0,1-1.341-1.019,5.045,5.045,0,0,0-.118-1.822c-.183-.761-.763-1.084-1.214-.846-3.851,2.037-9.338,7.3-12.446,10.8l-4.123,1.165A4.03,4.03,0,0,0,89.242,43.4a4.8,4.8,0,0,0-1.418.246c-3.609-11.558-.7-23.675,7.119-30.538l-.694-.9C98.108,7.283,106.824,2,118.633,2.4c10.327.453,17.128,4.007,20.815,10.608C148.965,18.552,151,32.749,148.4,43.695a4.68,4.68,0,0,0-1.466-.278A4.031,4.031,0,0,0,144,44.487l-4.13-.94c-.063-.159-.129-.319-.2-.479Z" transform="translate(-31.06 -0.855)" fill="#56bec0"/>
        <path id="パス_275" data-name="パス 275" d="M163.81,131.137c2.742,1.132,5.568,2.076,8.336,3.145,3.493,1.348,6.98,2.725,10.348,4.366a32.382,32.382,0,0,1,8.278,5.48,25.593,25.593,0,0,1,5.334,7.139,92.872,92.872,0,0,1,5.905,16.63c.994,3.543,1.952,7.1,2.944,10.642a60.982,60.982,0,0,1,1.937,9.713c.394,3.553.7,7.181-1,10.46a10.725,10.725,0,0,1-6.439,5.468c-1.893.556-1.087,3.522.817,2.963,6.219-1.828,10.1-7.944,10.031-14.292-.084-7.693-2.357-15.03-4.379-22.373a129.346,129.346,0,0,0-6.023-18.339,32.158,32.158,0,0,0-4.834-7.948,30.373,30.373,0,0,0-8.127-6.692,92.329,92.329,0,0,0-12-5.414c-3.417-1.34-6.913-2.509-10.3-3.909a1.545,1.545,0,0,0-1.889,1.073,1.574,1.574,0,0,0,1.073,1.889Z" transform="translate(-58.557 -46.107)" fill="#211715"/>
        <path id="パス_276" data-name="パス 276" d="M81.976,128.182c-3.826,1.346-7.683,2.649-11.455,4.139a77.61,77.61,0,0,0-10.105,4.619,30.3,30.3,0,0,0-8.558,7.384,26.148,26.148,0,0,0-3.794,6.536,170.5,170.5,0,0,0-5.851,17.676,133.8,133.8,0,0,0-4.661,20c-.509,3.984-.508,7.871,1.533,11.458a16.607,16.607,0,0,0,7.837,6.823,1.587,1.587,0,0,0,2.1-.551,1.548,1.548,0,0,0-.551-2.1,14.126,14.126,0,0,1-6.4-5.17c-1.725-2.705-1.927-5.626-1.637-8.748.6-6.491,2.476-12.89,4.243-19.144,1.678-5.935,3.454-11.873,5.647-17.641a25.023,25.023,0,0,1,2.457-5.214A27.406,27.406,0,0,1,60.2,140.7a54.221,54.221,0,0,1,10.254-5.064c4.054-1.642,8.216-3.043,12.341-4.494a1.574,1.574,0,0,0,1.073-1.889,1.55,1.55,0,0,0-1.889-1.073Z" transform="translate(-13.415 -46.114)" fill="#211715"/>
        <path id="パス_280" data-name="パス 280" d="M153.135,117.785a13.4,13.4,0,0,0,.174,2.869,6.508,6.508,0,0,0,1.118,2.375,10.456,10.456,0,0,0,4.315,3.115c1.794.789,3.651,1.453,5.474,2.172a1.541,1.541,0,0,0,1.889-1.073,1.581,1.581,0,0,0-1.073-1.889c-1.5-.593-3.019-1.164-4.519-1.768q-.259-.108-.076-.031l-.218-.1c-.168-.074-.334-.15-.5-.23-.328-.157-.651-.326-.966-.509a6.518,6.518,0,0,1-1.615-1.195,2.706,2.706,0,0,1-.481-.7c-.027-.049-.268-.543-.184-.349a3.435,3.435,0,0,1-.163-.475,3.331,3.331,0,0,1-.1-.943c-.009-.425,0-.85,0-1.275a1.536,1.536,0,1,0-3.072,0Z" transform="translate(-55.12 -41.843)" fill="#211715"/>
        <path id="パス_281" data-name="パス 281" d="M109.244,118.734a4.55,4.55,0,0,1-.268,2.085c.094-.219-.09.171-.11.211-.1.186-.208.358-.315.538-.207.346.138-.115-.136.183-.143.157-.292.3-.447.447a9.588,9.588,0,0,1-1.545,1.018,15.616,15.616,0,0,1-1.788.833c-1.4.559-2.817,1.094-4.224,1.647a1.582,1.582,0,0,0-1.073,1.889,1.547,1.547,0,0,0,1.889,1.073c1.728-.68,3.481-1.318,5.189-2.047a11.453,11.453,0,0,0,4.171-2.688A7.65,7.65,0,0,0,112,121.484a8.035,8.035,0,0,0,.317-2.751,1.536,1.536,0,0,0-3.072,0Z" transform="translate(-35.737 -42.185)" fill="#211715"/>
        <path id="パス_282" data-name="パス 282" d="M98.957,12.436c3.416-4.315,8.584-7.026,13.864-8.374a33.881,33.881,0,0,1,11.07-.881,29.548,29.548,0,0,1,9.2,2.08,17.758,17.758,0,0,1,7.181,5.4,1.588,1.588,0,0,0,2.1.551,1.546,1.546,0,0,0,.551-2.1,20.709,20.709,0,0,0-7.039-5.921,30.356,30.356,0,0,0-10.158-2.9A35.443,35.443,0,0,0,103.982,4.31a24.6,24.6,0,0,0-7.2,5.954,1.585,1.585,0,0,0,0,2.172,1.546,1.546,0,0,0,2.172,0Z" transform="translate(-34.682 0)" fill="#211715"/>
        <path id="パス_283" data-name="パス 283" d="M127.829,104.938a10.714,10.714,0,0,0,5.195,1.215,8.459,8.459,0,0,0,5.285-1.587,1.539,1.539,0,0,0,0-2.172,1.583,1.583,0,0,0-2.172,0c.474-.373.152-.118.03-.039-.1.066-.207.127-.314.184-.132.07-.508.179-.064.047-.147.044-.288.112-.434.159a8.3,8.3,0,0,1-1.214.28c.227-.037.09-.012-.058,0q-.179.018-.358.029-.431.028-.863.024-.387,0-.773-.028c-.118-.008-.236-.018-.354-.029-.058-.006-.487-.084-.114-.012-.382-.075-.76-.141-1.134-.254-.159-.048-.314-.1-.47-.159-.373-.129.277.138-.06-.023-.195-.093-.386-.189-.577-.29a1.537,1.537,0,1,0-1.551,2.653Z" transform="translate(-45.744 -36.701)" fill="#211715"/>
        <path id="パス_284" data-name="パス 284" d="M134.491,86.443a24.257,24.257,0,0,1,.562,2.593L135,88.627a1.558,1.558,0,0,1,.01.358l.055-.408a.865.865,0,0,1-.039.161l.155-.367a.707.707,0,0,1-.056.1l.24-.311a.515.515,0,0,1-.084.083l.311-.24a1.631,1.631,0,0,1-.2.109l.367-.155a1.466,1.466,0,0,1-.343.1l.408-.055a1.388,1.388,0,0,1-.322,0l.408.055c-.122-.017-.241-.047-.362-.063a1.167,1.167,0,0,0-.613-.028,1.136,1.136,0,0,0-.571.182,1.535,1.535,0,0,0-.551,2.1,1.47,1.47,0,0,0,.918.706c.3.04.582.115.884.129a2.856,2.856,0,0,0,1.327-.32,1.967,1.967,0,0,0,1.074-1.292A3.181,3.181,0,0,0,138,88.109c-.14-.835-.331-1.663-.544-2.482a1.536,1.536,0,1,0-2.962.817Z" transform="translate(-48.09 -30.415)" fill="#211715"/>
        <path id="パス_285" data-name="パス 285" d="M114,74.79c-.429,1.407-.149,4.644,2.493,4.919,3.492-.021,3.678-3.934,2.5-5.774-.963-1.506-3.793-2.133-5,.855" transform="translate(-40.974 -26.16)" fill="#211715"/>
        <path id="パス_286" data-name="パス 286" d="M154.608,74.79c.429,1.407.15,4.644-2.493,4.919-3.492-.021-3.678-3.934-2.5-5.774C150.575,72.429,153.4,71.8,154.608,74.79Z" transform="translate(-53.618 -26.16)" fill="#211715"/>
        <path id="パス_287" data-name="パス 287" d="M93.315,88.694a33.134,33.134,0,0,0,7.059,14.26c3.346,3.948,7.677,7.105,12.887,7.907a1.584,1.584,0,0,0,1.889-1.073,1.548,1.548,0,0,0-1.073-1.889c-4.753-.732-8.48-3.516-11.532-7.117a29.915,29.915,0,0,1-6.269-12.9C95.852,85.948,92.889,86.764,93.315,88.694Z" transform="translate(-33.574 -31.235)" fill="#211715"/>
        <path id="パス_288" data-name="パス 288" d="M164.16,87.877a30.13,30.13,0,0,1-5.543,12.018,22.7,22.7,0,0,1-4.713,4.66,20.912,20.912,0,0,1-5.615,2.721c-1.872.611-1.07,3.579.817,2.963a23.757,23.757,0,0,0,6.348-3.031,25.728,25.728,0,0,0,5.335-5.14,33.1,33.1,0,0,0,6.333-13.373c.426-1.927-2.535-2.75-2.963-.817Z" transform="translate(-52.994 -31.235)" fill="#211715"/>
        <path id="パス_289" data-name="パス 289" d="M176.427,67.788a2.657,2.657,0,0,1,2.2-.591,2.54,2.54,0,0,1,1.13.444c-.109-.079.518.559.312.286.985,1.3.989,3.257.872,4.811a12.421,12.421,0,0,1-1.476,4.8c-.764,1.439-2.263,3.637-4.179,3.373a1.589,1.589,0,0,0-1.889,1.073,1.546,1.546,0,0,0,1.073,1.889c4.891.673,7.749-4.059,9.015-8.115,1.045-3.346,1.068-8.579-2.177-10.768a5.88,5.88,0,0,0-7.053.629c-1.474,1.324.7,3.491,2.172,2.172Z" transform="translate(-62.397 -23.069)" fill="#211715"/>
        <path id="パス_290" data-name="パス 290" d="M101.283,132.573a34.891,34.891,0,0,0,16.415,6.5,40.433,40.433,0,0,0,19.613-2.031,30.863,30.863,0,0,0,8.3-4.473,1.544,1.544,0,0,0,0-2.172,1.576,1.576,0,0,0-2.172,0c-4.2,3.251-9.726,4.948-14.918,5.694a37.339,37.339,0,0,1-17.752-1.877,26.509,26.509,0,0,1-7.316-3.817,1.588,1.588,0,0,0-2.172,0,1.546,1.546,0,0,0,0,2.172" transform="translate(-36.296 -46.781)" fill="#211715"/>
        <path id="パス_291" data-name="パス 291" d="M91.624,65.293a5.906,5.906,0,0,0-6.48-.978,5.7,5.7,0,0,0-2.956,3.844,14.821,14.821,0,0,0,2.076,11.575c1.455,2.218,3.779,4.24,6.616,3.872a1.586,1.586,0,0,0,1.536-1.536,1.544,1.544,0,0,0-1.536-1.536c-2.112.273-3.528-1.472-4.448-3.162a12.436,12.436,0,0,1-1.532-4.9c-.119-1.58-.1-3.531.87-4.868l-.036.051c.063-.074.13-.144.2-.212.031-.027.342-.274.192-.169a2.477,2.477,0,0,1,1.021-.408,2.667,2.667,0,0,1,2.307.6c1.459,1.33,3.637-.837,2.172-2.172Z" transform="translate(-29.432 -22.949)" fill="#211715"/>
        <path id="パス_304" data-name="パス 304" d="M88.383,48.2C86,40.288,86.515,31.368,90.976,24.259a22.68,22.68,0,0,1,4.283-5c1.489-1.306-.691-3.472-2.172-2.172-6.714,5.887-9.7,15.1-9.129,23.868a36.069,36.069,0,0,0,1.463,8.068C85.99,50.909,88.956,50.1,88.383,48.2Z" transform="translate(-30.196 -6.006)" fill="#211715"/>
        <path id="パス_305" data-name="パス 305" d="M170.468,21.33c6.18,5.006,7.9,13.612,7.528,21.188a37,37,0,0,1-.934,6.651c-.45,1.923,2.512,2.744,2.963.817,1.944-8.307,1.586-17.974-2.837-25.473a19.857,19.857,0,0,0-4.548-5.356,1.582,1.582,0,0,0-2.172,0,1.547,1.547,0,0,0,0,2.172Z" transform="translate(-61.199 -6.74)" fill="#211715"/>
        <path id="パス_306" data-name="パス 306" d="M149.323,47.16a20.657,20.657,0,0,1,6.612,4.849,23.222,23.222,0,0,1,4.877,7.048,1.584,1.584,0,0,0,1.889,1.073,1.547,1.547,0,0,0,1.073-1.889A26.681,26.681,0,0,0,158.263,50a23.112,23.112,0,0,0-7.389-5.494,1.585,1.585,0,0,0-2.1.551,1.548,1.548,0,0,0,.551,2.1Z" transform="translate(-53.479 -15.956)" fill="#211715"/>
        <path id="パス_307" data-name="パス 307" d="M102.158,59.153a58.114,58.114,0,0,1,10.27-9.416c.395-.269.8-.53,1.209-.773a2.58,2.58,0,0,0,.332-.191c.217-.186.239.062-.136-.045-.584-.166-.6-.52-.506.147.078.563-.075,1.123.04,1.683a2.573,2.573,0,0,0,1.175,1.7c1.215.722,2.328.084,3.4-.536.975-.566,1.944-1.143,2.918-1.713a66.424,66.424,0,0,1,7.23-3.847,1.546,1.546,0,0,0,.551-2.1,1.577,1.577,0,0,0-2.1-.551,61.086,61.086,0,0,0-6.483,3.411c-1.015.59-2.025,1.19-3.038,1.784q-.643.377-1.29.748c-.038.021-.31.17-.309.174l.338-.01q.338-.144.474.156c.465.168-.019.239.168.062a1.751,1.751,0,0,0,.025-.515c-.009-1.365-.407-3.045-1.863-3.531-1.176-.392-2.2.328-3.154.943a45.476,45.476,0,0,0-5.753,4.553,75.843,75.843,0,0,0-5.666,5.694c-1.313,1.471.853,3.651,2.172,2.172Z" transform="translate(-35.842 -15.598)" fill="#211715"/>
      </g>
    </g>
  </g>
</svg>
