<svg xmlns="http://www.w3.org/2000/svg" xmlns:xlink="http://www.w3.org/1999/xlink" width="214.495" height="133.259" viewBox="0 0 214.495 133.259">
  <defs>
    <clipPath id="clip-path">
      <rect id="長方形_30" data-name="長方形 30" width="167.686" height="111.447" fill="none"/>
    </clipPath>
    <clipPath id="clip-path-2">
      <rect id="長方形_24" data-name="長方形 24" width="69.813" height="70.459" fill="#56bec0"/>
    </clipPath>
  </defs>
  <g id="point3" transform="translate(-11.346 42.616)">
    <g id="グループ_36" data-name="グループ 36" transform="translate(1.482 -20.804)">
      <g id="グループ_35" data-name="グループ 35" transform="translate(9.864)" clip-path="url(#clip-path)">
        <path id="パス_246" data-name="パス 246" d="M66.448,2.756c-5.052.008-4.415.014-8.712.019a2.363,2.363,0,0,0-1.224.341C41.252,12.241,20.961,24.366,3.733,34.663A2.6,2.6,0,0,0,2.487,36.9c.013,15.938.028,54.306.03,71.212A2.541,2.541,0,0,0,5.008,110.7h0c17.755-.007,80.666-.081,112.4-.274a2.374,2.374,0,0,0,1.215-.342c16.607-9.925,33.341-21,47.2-29.282a2.591,2.591,0,0,0,1.245-2.238c-.028-17.816-.151-58.624-.172-73.531a2.54,2.54,0,0,0-2.5-2.582h-.014c-23.692.16-66.107.253-97.938.3" transform="translate(-0.914 -0.844)" fill="#fff"/>
        <path id="パス_247" data-name="パス 247" d="M125.895,2.792C111.1,11.635,91.37,23.427,74.292,33.634a1.73,1.73,0,0,0-.829,1.493V60.4a.981.981,0,0,0,.962,1,.934.934,0,0,0,.355-.071c1.181-.494,2.034-1.294,2.862-1.294a2.447,2.447,0,0,1,1.221.6c.588.44,1.2.958,1.695.958.955,0,2.605-1.674,3.345-1.674,1.056,0,2.6,1.753,3.32,1.753.86,0,1.7-1.766,2.65-1.766a4.245,4.245,0,0,1,2.485,1.3.8.8,0,0,0,1.145-.167.869.869,0,0,0,.164-.5c.011-2.351.027-22.234.039-24.492A1.8,1.8,0,0,1,94.57,34.5c17.442-10.426,37.943-22.67,53.16-31.77Z" transform="translate(-27.006 -0.938)" fill="#56bec0"/>
        <path id="パス_248" data-name="パス 248" d="M53.872,51.412c-10.431.019-15.485.034-25.916.044H23.164c-1.953,0-1.957,3.151,0,3.151q12.48,0,24.962-.027c3.71-.006,2.041-.012,5.747-.019,1.953,0,1.957-3.151,0-3.151Z" transform="translate(-7.976 -17.664)" fill="#211715"/>
        <path id="パス_249" data-name="パス 249" d="M65.534.337l-3.2.012L58.27.354a6.653,6.653,0,0,0-3.662.691C50.3,3.57,46.033,6.17,41.746,8.735Q27.618,17.181,13.489,25.623L6.527,29.784,3.064,31.853A5.649,5.649,0,0,0,.441,34.3c-.66,1.487-.385,3.449-.384,5.054q0,2.526,0,5.054Q.068,56.838.073,69.27q0,12.993.009,25.986v10.47A11.364,11.364,0,0,0,.2,108.268a4.146,4.146,0,0,0,2.058,2.7,7.86,7.86,0,0,0,3.735.459q7.639,0,15.278-.013c7.139-.007,8.9-.016,16.039-.028q12.3-.019,24.59-.044,12.341-.027,24.683-.062,11.027-.033,22.054-.083l4.715-.024c1.834-.01,3.736.229,5.386-.735,4.84-2.827,9.629-5.754,14.442-8.63,9.377-5.6,16.961-11.207,26.337-16.813,2.046-1.223,4.159-2.371,6.155-3.676a4.248,4.248,0,0,0,1.96-3.14,21.057,21.057,0,0,0,.035-2.322q-.009-5.186-.021-10.371-.029-12.75-.063-25.5-.031-12.352-.063-24.7-.009-4.648-.019-9.3c0-1.868.055-3.722-1.5-5.018S162.3.044,160.431.056c-8.193.05-14.594.087-22.788.113q-14.585.052-29.171.085Q93.646.291,78.822.316,72.178.328,65.534.337c-1.953,0-1.956,3.154,0,3.151q13.853-.02,27.706-.048,14.62-.03,29.238-.071c8.98-.026,16.167-.057,25.147-.1q5.755-.025,11.509-.058l2.552-.016a5.3,5.3,0,0,1,2.266.1c.885.5.51,2.473.512,3.361q.019,10.432.048,20.864.032,12.8.063,25.6.028,11.113.051,22.226c0,.712.016,1.426,0,2.138-.019,1.018-.725,1.252-1.5,1.716l-6.117,3.657-13.378,8-12.4,8.483-7.138,4.267c-2.332,1.394-4.628,2.926-7.024,4.2a4.585,4.585,0,0,1-2.125.215l-2.2.012-4.764.024q-5.159.024-10.318.043-11.636.043-23.272.071-12.24.031-24.482.052c-7.644.014-9.91.026-17.553.035q-9.308.013-18.617.021l-6.83,0c-.879,0-1.764.032-2.642,0-1.549-.053-1.159-1.81-1.159-2.983q0-11.257-.006-22.515Q3.1,69.7,3.09,56.608L3.1,45.014V37.847a10.038,10.038,0,0,1,.018-1.983,1.144,1.144,0,0,1,.6-.761c.579-.375,1.186-.708,1.777-1.061l3.352-2,6.85-4.093q6.969-4.17,13.946-8.34Q42.723,11.788,55.8,3.967a2.275,2.275,0,0,1,1.305-.459h1.75l3.789,0c2.755,0,.133-.008,2.887-.012,1.953-.007,1.957-3.157,0-3.155" transform="translate(0 0)" fill="#211715"/>
        <path id="パス_250" data-name="パス 250" d="M193.161,37.012c9.046-5.406,16.3-10.812,25.348-16.22l7.057-4.219c1.692-1.012.166-3.736-1.532-2.721-8.813,5.27-15.834,10.539-24.649,15.806l-7.754,4.634c-1.692,1.012-.166,3.735,1.532,2.721Z" transform="translate(-70.175 -4.683)" fill="#211715"/>
        <path id="パス_251" data-name="パス 251" d="M124.232.6Q108.227,10.172,92.22,19.737l-16.734,10-1.909,1.141a5.481,5.481,0,0,0-1.98,1.575,3.935,3.935,0,0,0-.548,2.228V56.2c0,1.15-.063,2.322.01,3.47a2.529,2.529,0,0,0,2.624,2.444,2.412,2.412,0,0,0,.787-.179c.684-.273,1.282-.7,1.941-1.019.086-.042.39-.147.336-.139-.164.023-.334-.19.025.089.173.135.364.251.541.383a4.289,4.289,0,0,0,2.158,1.067,3.334,3.334,0,0,0,1.862-.5c.47-.252.9-.576,1.35-.865a4.406,4.406,0,0,0,.607-.357c-.005.1-.264.023-.282.07-.13-.025-.138-.022-.026.009.091.031.1.033.04.007.409.322.9.577,1.332.882a4.429,4.429,0,0,0,1.467.788c1.2.288,2.523-.643,3.219-1.618.142-.2.163-.06-.063-.081a1.238,1.238,0,0,1,.543.2c.649.377,1.138,1.006,1.881,1.2a2.3,2.3,0,0,0,2.135-.576,2.96,2.96,0,0,0,.759-2.269L94.317,37.8l.011-2.222c0-.641.269-.635.814-.962L111.731,24.7,144.067,5.378,147.6,3.264c1.692-1.012.165-3.736-1.532-2.721Q130.8,9.677,115.518,18.8L99.306,28.491,95.37,30.842c-1.225.733-2.886,1.378-3.637,2.691-.715,1.247-.448,3.019-.455,4.406-.008,1.509-.015,19.765-.022,21.275a4.665,4.665,0,0,0,0,.5l.249-.352a.487.487,0,0,1,.566-.4.48.48,0,0,1,.161.064,7.87,7.87,0,0,0-.785-.614,4.34,4.34,0,0,0-2.024-.859c-1.444-.181-2.219.761-3.216,1.641-.211.187-.357.143.126.081.276-.035.372.119.02-.105-.471-.3-.9-.662-1.375-.96a3.078,3.078,0,0,0-3.357-.253c-.455.247-.871.564-1.307.842-.219.14-.452.254-.672.394.06-.037.122-.125-.1.022.158-.105.343.177.185-.053a4.739,4.739,0,0,0-.876-.624,6.187,6.187,0,0,0-.749-.506,2.857,2.857,0,0,0-2.29-.241,9.406,9.406,0,0,0-1.752.881c-.149.083-.306.158-.452.245-.267.16-.19,0-.1.084.118.113.822.242.579.549.134-.173,0-1.033,0-1.247V34.648c0-.591.238-.578.787-.907l16.142-9.649q15.7-9.386,31.4-18.768l3.352-2c1.692-1.012.165-3.736-1.532-2.721Z" transform="translate(-26.109 -0.11)" fill="#211715"/>
        <path id="パス_252" data-name="パス 252" d="M104.622,54.344Q120.314,54.3,136,54.219q6.387-.034,12.774-.083a16.943,16.943,0,0,0,2.629-.022.968.968,0,0,1-.209-.1c-.142-.127-.039-.28-.068.009a7.623,7.623,0,0,0,0,.8q0,1.754.005,3.508.02,9.673.056,19.346.036,11.051.073,22.1.027,8.5.042,17v1.342a1.518,1.518,0,1,0,3.035,0q0-8.1-.036-16.191-.034-11.232-.073-22.464-.033-10.123-.059-20.245,0-1.868-.006-3.736c0-1.716.059-3.724-1.875-4.367a9.135,9.135,0,0,0-2.887-.138l-2.8.021q-3.219.024-6.436.043-15.644.095-31.288.136l-4.259.013c-1.953.005-1.957,3.156,0,3.151Z" transform="translate(-37.922 -17.497)" fill="#211715"/>
      </g>
    </g>
    <g id="吹き出し" transform="translate(155.382 -42.616)">
      <g id="グループ_29" data-name="グループ 29" transform="translate(0 69.813) rotate(-90)" clip-path="url(#clip-path-2)">
        <path id="パス_219" data-name="パス 219" d="M32,0A31.989,31.989,0,0,0,6.836,51.753L4.149,64.591l11.939-4.833A32,32,0,1,0,32,0" transform="translate(67.202 3.23) rotate(90)" fill="#56bec0" stroke="#211715" stroke-width="3"/>
      </g>
      <g id="グループ_30" data-name="グループ 30" transform="translate(12.293 8.097)">
        <text id="_" data-name="￥" transform="translate(12 35.593)" fill="#fff" font-size="20" font-family="Jun501Pro-Bold, 'A-OTF Jun Pro \35 01'" font-weight="700"><tspan x="-10" y="0">￥</tspan></text>
        <text id="_0" data-name="0" transform="translate(31.487 39)" fill="#fff" font-size="33" font-family="Jun501Pro-Bold, 'A-OTF Jun Pro \35 01'" font-weight="700"><tspan x="-10.395" y="0">0</tspan></text>
      </g>
    </g>
  </g>
</svg>
