<svg xmlns="http://www.w3.org/2000/svg" xmlns:xlink="http://www.w3.org/1999/xlink" width="172" height="180.014" viewBox="0 0 172 180.014">
  <defs>
    <clipPath id="clip-path">
      <rect id="長方形_21" data-name="長方形 21" width="172" height="180.014" fill="none"/>
    </clipPath>
  </defs>
  <g id="point1" transform="translate(-34 -9.536)">
    <g id="グループ_22" data-name="グループ 22" transform="translate(34 9.536)" clip-path="url(#clip-path)">
      <path id="パス_109" data-name="パス 109" d="M146.564,142.758q-7.786-3.7-15.848-6.754a55.465,55.465,0,0,0-5.167-4.073.452.452,0,0,0-.707.388c.016.476.029.929.046,1.372a36.159,36.159,0,0,1-9.3,6.2c-.371.168-.813.4-.331,1.132-.228,2.346-1.981,7.587-3.25,10.45a52.636,52.636,0,0,1-2.741-10.2c.256-.555-.131-.755-.46-.9a35.4,35.4,0,0,1-11.371-8.3,67.675,67.675,0,0,0-8.294,6.568q-7.994,3.007-15.72,6.7c-2.421,1.156-4.9,2.422-6.59,4.533a19.272,19.272,0,0,0-2.309,4.125c-1.719,3.764-4.815,15.337-7.063,27.054v21.524c24.287-.031,69.312-.054,102.2-.073,2.666-2.763,3.12-4.638,3.12-4.638a17.75,17.75,0,0,0,.557-5.03c-.469-9.961-3.729-32.375-7.042-40.774a20.338,20.338,0,0,0-2.438-4.355c-1.788-2.229-4.4-3.567-6.958-4.787Z" transform="translate(-26.329 -60.424)" fill="#fff"/>
      <path id="パス_110" data-name="パス 110" d="M107.941,55.783c.24-4.532,3.912-18.1,24.226-18.1,24.282,0,23.469,19.514,23.469,19.514a3.555,3.555,0,0,1,2.845-.832,3.36,3.36,0,0,1,2.413,1.6,4.741,4.741,0,0,1,.5,1.909,14.224,14.224,0,0,1-1.45,7.539,9.034,9.034,0,0,1-2.337,3.067,5.991,5.991,0,0,1-2.787,1.256l-.477.074c-.229.855-.488,1.576-.612,1.959-.754,2.047-4.728,8.772-9.872,11.945a45.188,45.188,0,0,0,.315,4.655,62.808,62.808,0,0,0,3.114,5.567c1.56,2.427-.83,12.293-15.026,12.293s-19.936-9.513-16.5-12.354A11.073,11.073,0,0,0,119.6,90.19c.158-1.475.262-3.095.3-4.405a21.871,21.871,0,0,1-5.627-4.906,24.175,24.175,0,0,1-4.61-9l-.908-.139a5.989,5.989,0,0,1-2.787-1.256,9.042,9.042,0,0,1-2.338-3.067,14.224,14.224,0,0,1-1.45-7.539,4.733,4.733,0,0,1,.5-1.909,3.36,3.36,0,0,1,2.413-1.6,3.554,3.554,0,0,1,2.844.832,13.1,13.1,0,0,1,.012-1.414" transform="translate(-46.801 -17.269)" fill="#fff"/>
      <path id="パス_111" data-name="パス 111" d="M134.394,150.44c-3.33-3.31-5.512-7.319-7.972-11.322a17.748,17.748,0,0,1,3.614-4.883,35.93,35.93,0,0,0,10.371,7.228c.217.1.454.217.523.442a.831.831,0,0,1-.12.586,33.431,33.431,0,0,1-2.145,2.77c-1.459,1.785-3.292,3.972-4.272,5.18" transform="translate(-57.936 -61.516)" fill="#fff"/>
      <path id="パス_112" data-name="パス 112" d="M170.318,149.551c3.331-3.309,5.512-7.319,7.972-11.322a17.739,17.739,0,0,0-3.614-4.883,35.94,35.94,0,0,1-10.371,7.228c-.217.1-.455.217-.523.441a.831.831,0,0,0,.12.586,33.44,33.44,0,0,0,2.145,2.77c1.459,1.785,3.292,3.973,4.272,5.18" transform="translate(-75.051 -61.109)" fill="#fff"/>
      <path id="パス_113" data-name="パス 113" d="M184.818,284.291a3.539,3.539,0,0,0-1.5-2.793,7.784,7.784,0,0,0-2.963-1.182,39.762,39.762,0,0,0-8.849-.639,39.759,39.759,0,0,0-8.849.639,7.775,7.775,0,0,0-2.963,1.182,3.43,3.43,0,0,0-1.354,2.793v5.069c.33,1.615,2.189,2.52,3.834,2.954a36.668,36.668,0,0,0,9.33.891,36.418,36.418,0,0,0,9.331-.891c1.736-.458,3.71-1.44,3.877-3.228l.1-1.109v-3.686Z" transform="translate(-72.562 -128.168)" fill="#fff"/>
      <path id="パス_114" data-name="パス 114" d="M72.84,293.951c-15.131,0-45.517-.15-61.027-.147.005-5.224.278-25.907.278-30.312,2.671-3.164,8.714-10.006,10.156-11.612h5.309c0,.972-.015,2.45-.033,4.458H69.838c.555-1.625,1.13-3.229,1.782-4.876h6.111c0,1.232.388,20.309.4,23.21-.895,4.046-2.858,12.17-5.056,19.275Z" transform="translate(-5.414 -115.238)" fill="#fff"/>
      <path id="パス_115" data-name="パス 115" d="M60.294,236.663v18.9a3.862,3.862,0,0,1-2.888,1.393,10.6,10.6,0,0,1-3.418-.01,5.154,5.154,0,0,1-3.088-1.75c0-7.664-.007-15.3-.007-18.486" transform="translate(-23.323 -108.456)" fill="#fff"/>
      <path id="パス_116" data-name="パス 116" d="M91.132,236.663v18.9a3.862,3.862,0,0,1-2.887,1.393,10.6,10.6,0,0,1-3.419-.01,5.154,5.154,0,0,1-3.088-1.75c0-7.664-.007-15.3-.007-18.486" transform="translate(-37.455 -108.456)" fill="#fff"/>
      <path id="パス_117" data-name="パス 117" d="M55.417,232.555c-2.588,0-4.52.677-4.52,2.271,0,1.647,1.566,2.142,4.547,2.142,3.233,0,4.852-.464,4.852-2.188,0-1.595-2.289-2.225-4.879-2.225" transform="translate(-23.325 -106.573)" fill="#fff"/>
      <path id="パス_118" data-name="パス 118" d="M86.256,232.555c-2.589,0-4.521.677-4.521,2.271,0,1.647,1.566,2.142,4.548,2.142,3.233,0,4.851-.464,4.851-2.188,0-1.595-2.288-2.225-4.878-2.225" transform="translate(-37.457 -106.573)" fill="#fff"/>
      <path id="パス_119" data-name="パス 119" d="M84.421,146.7q-.171,1.071-.343,2.143a2.385,2.385,0,0,0-.108,1.436c3.489.42,9.1,1.183,12.5,1.619.449-2.016.586-2.5,1.038-4.539,0,0,.057-.947.122-2,8.2-8.511,6.949-10.78,5.08-12.232l-1.854-1.832a8.1,8.1,0,0,1,1.237-1.408,1.617,1.617,0,0,0,.339-2.4,3.973,3.973,0,0,0-2.62-1.147,17.156,17.156,0,0,0-9.3,1.153l.2-.574a5.492,5.492,0,0,0-.646-4.337,2.645,2.645,0,0,0-1.625-.816,2.329,2.329,0,0,0-2.259,1.145A15.486,15.486,0,0,0,84.45,132.8a11.2,11.2,0,0,0-1.05,2.371,52.038,52.038,0,0,0,.579,8.251c.235,1.853.446,3.243.441,3.277" transform="translate(-38.205 -55.793)" fill="#fff"/>
      <path id="パス_120" data-name="パス 120" d="M113.873,156.836c2.546,2.489,13.278,15.085,16.1,17.913a3.39,3.39,0,0,0,2.438,1.334,2.208,2.208,0,0,0,2.059-2.347,2.168,2.168,0,0,0-.042-.307,7.112,7.112,0,0,0-1.66-3.058c-4.569-5.27-11-13.192-15.393-18.682" transform="translate(-52.185 -69.515)" fill="#fff"/>
      <path id="パス_121" data-name="パス 121" d="M168.133,231.737a5.7,5.7,0,0,0-.217-1.775c-.122-.441-.956-3.327-2.27-7.87-3.712-13.45-5.89-20.1-5.89-20.1-.427-1.546-2.817-1.545-5.326-.852s-4.2,1.866-3.776,3.413c.854,3.094,4.233,14.438,6.287,21.869.562,2.034,1.077,3.9,1.51,5.468.979,3.547,3.69,4.623,5.993,3.987,2.24-.619,3.594-2.124,3.689-4.141" transform="translate(-69.01 -91.974)" fill="#fff"/>
      <path id="パス_122" data-name="パス 122" d="M172.771,213.249l-.358-.114c-2.281-.726-3.747-1.736-7.991-1.89a39.033,39.033,0,0,0-6.338.684c-2.647.511-6.583,2.393-7.8,3.917a4.088,4.088,0,0,0-1.1,3.153,6.565,6.565,0,0,0,.522,1.821c-1.068,1.081-1.958,1.809-2.195,3.23a2.211,2.211,0,0,0,1.192,2.522,2.851,2.851,0,0,0,1.663.277l.15-.021a2.329,2.329,0,0,0,1.319,2.156,2.849,2.849,0,0,0,2.77-.673c-.6,2.32,1.192,3.491,4.225,2.533a29.483,29.483,0,0,1,5.3-.848c3.037-.194,4.393-.458,9.774-.7,2.188-4.517,4.556-9.676,6.306-12.943l-3.378-1.56a26.854,26.854,0,0,0-4.067-1.543" transform="translate(-67.571 -96.807)" fill="#fff"/>
      <path id="パス_123" data-name="パス 123" d="M151.432,12.766c2.95,1.29,6.691,5.878,8.261,10.266,2.232,6.242,1.973,12.822.2,17.362a3,3,0,0,0-.618-.159,3.3,3.3,0,0,0-3.551,1.852,32.436,32.436,0,0,0-7.481-10.042,15.189,15.189,0,0,0-6.54-3.5,25.981,25.981,0,0,0-4.622-.926c-3.1,1.917-7.227,4.487-7.618,4.328a15.709,15.709,0,0,1-1.625-3.744c-5.851,4.6-10.572,7.741-17.177,13.943l-.364.342-1.574-1.421a3.554,3.554,0,0,0-2.844-.832,3.423,3.423,0,0,0-.817.229c-1.838-7.6-1.381-14.04.158-18.56,1.416-4.158,4.639-8.9,8.7-10.921-1.409-.59-3.061-1.286-3.061-1.286,5.982-6.02,13.85-7.4,20.68-7.191,7.292.223,12.989,3.094,16.407,7.776Z" transform="translate(-47.599 -1.14)" fill="#56bec0"/>
      <path id="パス_124" data-name="パス 124" d="M81.574,290.446v5.639c0,3.658,2.313,5.405,4.688,5.405,2.944,0,4.892-1.309,4.892-4.3,0-.387-.026-2.93-.069-6.57" transform="translate(-37.383 -133.103)" fill="#56bec0"/>
      <path id="パス_125" data-name="パス 125" d="M50.736,290.446v5.639c0,3.658,2.313,5.405,4.688,5.405,2.944,0,4.891-1.309,4.891-4.3,0-.387-.025-2.93-.069-6.57" transform="translate(-23.251 -133.103)" fill="#56bec0"/>
      <path id="パス_126" data-name="パス 126" d="M163.828,252.876q-.054-.171-.1-.349c-.464-1.682-1.022-3.7-1.635-5.9a4.338,4.338,0,0,0,3.454.025,29.478,29.478,0,0,1,5.3-.848c.331-.021.641-.043.94-.066.808,2.8,1.308,4.532,1.4,4.866a5.7,5.7,0,0,1,.217,1.775c-.1,2.017-1.449,3.521-3.688,4.14s-4.834-.368-5.889-3.638" transform="translate(-74.281 -112.612)" fill="#56bec0"/>
      <path id="パス_127" data-name="パス 127" d="M200.031,72.81a2.209,2.209,0,0,1,3.106.333l.01.012a3.964,3.964,0,0,1,.462,2.142,12.412,12.412,0,0,1-.179,2.665c-.554,3.016-2.13,6.629-5.484,7.219a1.311,1.311,0,0,0-.908,1.6,1.329,1.329,0,0,0,1.6.908c4.8-.842,7.1-6.247,7.515-10.579.212-2.2.128-4.869-1.753-6.35a4.876,4.876,0,0,0-6.208.212,1.311,1.311,0,0,0,0,1.839,1.327,1.327,0,0,0,1.839,0" transform="translate(-90.276 -31.963)" fill="#211715"/>
      <path id="パス_128" data-name="パス 128" d="M184.735,94.6a11.9,11.9,0,0,1-.566,2.98c-.108.365-.229.726-.35,1.087-.042.125-.289.726-.118.348a24.452,24.452,0,0,1-1.571,2.871,28.142,28.142,0,0,1-6.25,7.222,11.87,11.87,0,0,1-4.623,2.344c-1.63.379-.94,2.885.691,2.507,3.575-.828,6.579-3.384,8.947-6.081a30.8,30.8,0,0,0,4.984-7.4,15.949,15.949,0,0,0,1.455-5.876c.06-1.673-2.541-1.671-2.6,0Z" transform="translate(-78.056 -42.779)" fill="#211715"/>
      <path id="パス_129" data-name="パス 129" d="M107.734,70.97a4.875,4.875,0,0,0-6.076-.314c-1.989,1.479-2.1,4.178-1.884,6.451.419,4.334,2.717,9.736,7.514,10.579a1.338,1.338,0,0,0,1.6-.908,1.311,1.311,0,0,0-.908-1.6c-3.354-.589-4.93-4.2-5.484-7.219a12.415,12.415,0,0,1-.182-2.546,4.3,4.3,0,0,1,.416-2.18,2.193,2.193,0,0,1,3.06-.508c.036.026.071.053.106.081a1.335,1.335,0,0,0,1.839,0,1.311,1.311,0,0,0,0-1.839Z" transform="translate(-45.687 -31.961)" fill="#211715"/>
      <path id="パス_130" data-name="パス 130" d="M112.266,93.76c1.307,7.526,5.4,14.9,12.384,18.527a16.966,16.966,0,0,0,6.1,1.819,1.308,1.308,0,0,0,1.3-1.3,1.33,1.33,0,0,0-1.3-1.3c-4.438-.465-8.161-3.264-10.943-6.6a24.913,24.913,0,0,1-5.038-11.835,1.312,1.312,0,0,0-1.6-.908,1.33,1.33,0,0,0-.908,1.6Z" transform="translate(-51.43 -42.214)" fill="#211715"/>
      <path id="パス_131" data-name="パス 131" d="M189.916,21.495a11.205,11.205,0,0,1,3.552,2.8,21.724,21.724,0,0,1,3.189,4.611,24.277,24.277,0,0,1,2.467,11.773,21.88,21.88,0,0,1-1.025,6.1c-.516,1.6,1.994,2.28,2.507.691a26.3,26.3,0,0,0-4.81-24.459,13.767,13.767,0,0,0-4.567-3.76,1.339,1.339,0,0,0-1.778.466A1.311,1.311,0,0,0,189.916,21.495Z" transform="translate(-86.739 -8.746)" fill="#211715"/>
      <path id="パス_132" data-name="パス 132" d="M113.511,14.99c-4.3,1.62-7.5,5.429-9.48,9.467a27.783,27.783,0,0,0-2.569,12.794,43.453,43.453,0,0,0,1.225,9.217c.386,1.625,2.894.938,2.507-.691-1.932-8.136-1.842-17.505,3.777-24.234A13.122,13.122,0,0,1,114.2,17.5a1.337,1.337,0,0,0,.908-1.6,1.31,1.31,0,0,0-1.6-.908Z" transform="translate(-46.488 -6.849)" fill="#211715"/>
      <path id="パス_133" data-name="パス 133" d="M153.887,8.488A20.881,20.881,0,0,0,140.213.443a32.92,32.92,0,0,0-16.794,1.595,25.044,25.044,0,0,0-8.662,5.6A1.3,1.3,0,0,0,116.6,9.479a23.851,23.851,0,0,1,14.2-6.589c4.989-.585,10.353-.315,14.907,1.985A16.7,16.7,0,0,1,151.641,9.8a1.34,1.34,0,0,0,1.779.466A1.309,1.309,0,0,0,153.887,8.488Z" transform="translate(-52.414 0)" fill="#211715"/>
      <path id="パス_134" data-name="パス 134" d="M142.105,45.448c-2.475,1.517-4.912,3.139-7.482,4.5-.19.1-.383.191-.574.288-.232.118.017-.011.02-.007a1.423,1.423,0,0,1-.186.059c.413-.036,1.09.009,1.22.472a1.425,1.425,0,0,0-.123-.2c-.1-.2-.207-.4-.3-.605-.247-.529-.362-.816-.576-1.375a5.429,5.429,0,0,1-.369-1.122c-.153-1.086-1.512-1.092-2.173-.574-5.815,4.562-11.772,8.879-17.177,13.943-1.224,1.147.618,2.983,1.839,1.839,5.4-5.065,11.361-9.38,17.177-13.943l-2.173-.574a5.876,5.876,0,0,0,.419,1.246c.26.67.534,1.338.843,1.986a2.732,2.732,0,0,0,.96,1.287,1.937,1.937,0,0,0,1.836-.15,34.816,34.816,0,0,0,3.587-2.024c1.523-.921,3.034-1.866,4.551-2.8,1.424-.874.119-3.124-1.312-2.245Z" transform="translate(-52.233 -20.735)" fill="#211715"/>
      <path id="パス_135" data-name="パス 135" d="M172.293,50.753a16.316,16.316,0,0,1,8.238,5.4,33.618,33.618,0,0,1,5.425,8.426,1.31,1.31,0,0,0,1.778.466,1.33,1.33,0,0,0,.466-1.779,35.715,35.715,0,0,0-5.983-9.123,18.533,18.533,0,0,0-9.231-5.9c-1.629-.373-2.325,2.133-.691,2.508Z" transform="translate(-78.531 -22.092)" fill="#211715"/>
      <path id="パス_136" data-name="パス 136" d="M132.282,125.458c-.049,1.617-.152,3.232-.293,4.843a1.305,1.305,0,0,0,1.3,1.3,1.333,1.333,0,0,0,1.3-1.3c.141-1.611.243-3.226.293-4.843a1.311,1.311,0,0,0-1.3-1.3,1.326,1.326,0,0,0-1.3,1.3" transform="translate(-60.487 -56.898)" fill="#211715"/>
      <path id="パス_137" data-name="パス 137" d="M179.711,131.175c-.194-1.9-.321-3.813-.352-5.726a1.3,1.3,0,1,0-2.6,0c.031,1.913.158,3.824.352,5.726a1.33,1.33,0,0,0,1.3,1.3A1.314,1.314,0,0,0,179.711,131.175Z" transform="translate(-81.004 -56.894)" fill="#211715"/>
      <path id="パス_138" data-name="パス 138" d="M148.458,110.892a9.639,9.639,0,0,0,4.646,1.079,7.583,7.583,0,0,0,4.709-1.4,1.3,1.3,0,0,0,0-1.839,1.341,1.341,0,0,0-1.842,0c.4-.311.113-.089.01-.023s-.187.113-.284.163c-.05.026-.1.05-.152.075-.112.057-.2.021.074-.026a3.248,3.248,0,0,0-.392.142,7.1,7.1,0,0,1-1.1.25c.2-.03.029,0-.075.005s-.217.02-.325.027c-.259.017-.519.023-.779.022-.232,0-.465-.009-.7-.025-.108-.008-.213-.016-.32-.027-.034,0-.423-.068-.126-.013a9.43,9.43,0,0,1-1.023-.228c-.144-.043-.283-.094-.425-.142-.325-.108.217.108-.075-.028-.176-.083-.348-.169-.52-.26a1.3,1.3,0,1,0-1.313,2.245Z" transform="translate(-67.737 -49.662)" fill="#211715"/>
      <path id="パス_139" data-name="パス 139" d="M155.594,91.549a21.332,21.332,0,0,1,.507,2.32l-.046-.346a1.407,1.407,0,0,1,.009.32l.046-.346a.767.767,0,0,1-.035.144l.131-.31a.59.59,0,0,1-.05.093l.2-.263a.52.52,0,0,1-.076.075l.263-.2a1.562,1.562,0,0,1-.184.1l.31-.131a1.365,1.365,0,0,1-.31.09l.346-.047a1.24,1.24,0,0,1-.29,0l.346.047c-.108-.015-.217-.042-.325-.057a.991.991,0,0,0-.518-.023.972.972,0,0,0-.483.154,1.3,1.3,0,0,0-.467,1.778h0a1.247,1.247,0,0,0,.777.6c.259.035.511.1.775.112a2.494,2.494,0,0,0,1.154-.276,1.689,1.689,0,0,0,.93-1.111,2.748,2.748,0,0,0-.011-1.185c-.126-.748-.3-1.488-.491-2.221a1.338,1.338,0,0,0-.6-.777,1.3,1.3,0,0,0-1.91,1.469Z" transform="translate(-70.937 -41.199)" fill="#211715"/>
      <path id="パス_140" data-name="パス 140" d="M133.7,79.161c-.387,1.259-.135,4.155,2.25,4.4,3.152-.019,3.32-3.521,2.259-5.166-.869-1.348-3.424-1.909-4.509.765" transform="translate(-61.204 -35.41)" fill="#211715"/>
      <path id="パス_141" data-name="パス 141" d="M176.114,79.161c.388,1.259.135,4.155-2.25,4.4-3.152-.019-3.32-3.521-2.259-5.166.868-1.348,3.423-1.909,4.509.765" transform="translate(-78.372 -35.41)" fill="#211715"/>
      <path id="パス_142" data-name="パス 142" d="M131.315,134.939c.28-.306.57-.6.872-.883h-1.839a37.146,37.146,0,0,0,5.318,4.407q1.385.952,2.853,1.776.712.4,1.441.763.306.153.616.3c.136.064.271.127.409.19q.3.175.054-.028l-.178-.657c-.01-.108.087-.035-.027.075a2.476,2.476,0,0,0-.225.32c-.181.247-.373.488-.563.725-.632.792-1.275,1.574-1.92,2.356-1.138,1.381-2.288,2.754-3.418,4.143h1.839a36.952,36.952,0,0,1-4.981-6.488c-.891-1.412-3.142-.108-2.245,1.312a40.088,40.088,0,0,0,5.387,7.015,1.309,1.309,0,0,0,1.839,0c1.32-1.625,2.665-3.224,3.992-4.84.687-.838,1.373-1.679,2.033-2.537a2.793,2.793,0,0,0,.843-2.425c-.321-1.164-1.82-1.527-2.763-2.021q-1.473-.774-2.871-1.684a33.934,33.934,0,0,1-5.6-4.54,1.324,1.324,0,0,0-1.839,0c-.3.285-.592.577-.872.883-1.127,1.233.7,3.077,1.839,1.842Z" transform="translate(-59.17 -60.421)" fill="#211715"/>
      <path id="パス_143" data-name="パス 143" d="M171.582,133.246a33.754,33.754,0,0,1-5.49,4.113c-.949.575-1.924,1.108-2.925,1.589-1.04.5-2.11,1.116-1.734,2.5a5.506,5.506,0,0,0,1.15,1.842c.653.837,1.326,1.658,2,2.477,1.236,1.5,2.485,2.987,3.711,4.5a1.312,1.312,0,0,0,1.839,0,37.863,37.863,0,0,0,4.906-6.271c.91-1.408-1.341-2.716-2.245-1.313a34.507,34.507,0,0,1-4.5,5.742h1.839c-1.13-1.39-2.28-2.763-3.42-4.143-.645-.781-1.288-1.563-1.918-2.356-.191-.239-.382-.478-.564-.725-.069-.093-.141-.186-.2-.283-.094-.148-.046-.2-.054-.108l-.177.657c-.144.262.111.005.267-.068.209-.1.418-.2.625-.3q.635-.31,1.255-.65,1.331-.723,2.6-1.558a37.183,37.183,0,0,0,4.879-3.8c1.229-1.142-.613-2.979-1.839-1.839Z" transform="translate(-73.945 -60.898)" fill="#211715"/>
      <path id="パス_144" data-name="パス 144" d="M57.609,192.374c1.1-5.721,2.373-11.412,3.872-17.042.574-2.157,1.179-4.307,1.867-6.43.261-.805.533-1.608.836-2.4.054-.145.113-.289.17-.433.132-.336-.009.005.072-.177q.345-.784.718-1.556a11.973,11.973,0,0,1,2.587-3.72,16.582,16.582,0,0,1,3.7-2.413,1.291,1.291,0,0,0,.644-1.123v-.005a1.3,1.3,0,0,0-2.6,0v.005l.644-1.122a15.183,15.183,0,0,0-6.383,5.5,29.465,29.465,0,0,0-2.488,5.534,142.935,142.935,0,0,0-3.926,14.271q-1.215,5.188-2.221,10.421a1.335,1.335,0,0,0,.908,1.6A1.313,1.313,0,0,0,57.609,192.374Z" transform="translate(-25.233 -71.408)" fill="#211715"/>
      <path id="パス_145" data-name="パス 145" d="M184.4,174.29a140.921,140.921,0,0,0,1.035-18.547,65.586,65.586,0,0,0-.667-8.164c-.433-2.907-1.236-5.731-1.865-8.6a32.543,32.543,0,0,1-.682-4.28c-.048-.572-.079-1.144-.1-1.717a11.452,11.452,0,0,1-.04-1.908l-.177.656-.569.34-.656-.177a14.379,14.379,0,0,1,2.447,1.768q1.214.952,2.372,1.973c1.408,1.243,2.752,2.56,4.043,3.926,1.267,1.34,2.485,2.725,3.7,4.117.617.709,1.239,1.414,1.851,2.127.375.437.769,1,.335,1.505a29.445,29.445,0,0,1-2.167,2.066q-1.364,1.282-2.749,2.54a1.309,1.309,0,0,0,.015,1.851,1.329,1.329,0,0,0,.248.191c1.425.693,2.838,1.414,4.225,2.182.392.217.906.45,1.1.886a3.031,3.031,0,0,1-.147,1.829c-.8,3.2-1.625,6.4-2.438,9.594a1.3,1.3,0,0,0,2.508.692q.692-2.723,1.384-5.445c.442-1.741,1.025-3.5,1.29-5.281a3.972,3.972,0,0,0-1.874-4.222,46.53,46.53,0,0,0-4.734-2.48l.263,2.042q1.546-1.408,3.067-2.841a11.838,11.838,0,0,0,2.443-2.522c1.4-2.588-1.327-4.885-2.851-6.633a75.092,75.092,0,0,0-10.681-10.432q-.778-.6-1.576-1.172a2.3,2.3,0,0,0-2.035-.625c-1.433.408-1.25,1.95-1.208,3.112a39.027,39.027,0,0,0,.86,6.9c.589,2.709,1.354,5.38,1.8,8.12a56.957,56.957,0,0,1,.647,7.278A136.819,136.819,0,0,1,181.8,174.29a1.308,1.308,0,0,0,1.3,1.3,1.33,1.33,0,0,0,1.3-1.3Z" transform="translate(-82.25 -59.33)" fill="#211715"/>
      <path id="パス_146" data-name="パス 146" d="M179.211,244.153q-.072.5-.146,1a.993.993,0,0,0-.023.519,1.338,1.338,0,0,0,.931,1.083l.346.046a1.3,1.3,0,0,0,.657-.177l.263-.2a1.3,1.3,0,0,0,.335-.574q.072-.5.146-1a.993.993,0,0,0,.023-.519,1.337,1.337,0,0,0-.932-1.083l-.346-.047a1.3,1.3,0,0,0-.656.178l-.263.2A1.3,1.3,0,0,0,179.211,244.153Z" transform="translate(-82.039 -111.451)" fill="#211715"/>
      <path id="パス_147" data-name="パス 147" d="M134.909,216.614q-1.364-13.872-2.051-27.8-.206-4.056-.36-8.117c-.063-1.668-2.664-1.676-2.6,0q.537,14.076,1.7,28.116.325,3.9.711,7.8a1.338,1.338,0,0,0,1.3,1.3A1.309,1.309,0,0,0,134.909,216.614Z" transform="translate(-59.528 -82.234)" fill="#211715"/>
      <path id="パス_148" data-name="パス 148" d="M131.851,149.849q-.214-8.844-.168-17.693a1.3,1.3,0,0,0-2.6,0q-.048,8.848.168,17.693a1.3,1.3,0,0,0,2.6,0" transform="translate(-59.151 -59.988)" fill="#211715"/>
      <path id="パス_149" data-name="パス 149" d="M123.007,130.778a71.418,71.418,0,0,0-6.645,5.171,1.309,1.309,0,0,0,0,1.842,1.332,1.332,0,0,0,1.839,0q1.508-1.334,3.1-2.567c-.108.083-.047.036.024-.018l.192-.147.385-.291q.384-.288.772-.572.813-.6,1.645-1.17a1.3,1.3,0,0,0-1.313-2.245Z" transform="translate(-53.152 -59.851)" fill="#211715"/>
      <path id="パス_150" data-name="パス 150" d="M158.261,185.074c-.016-6.022-.018-12.044.043-18.067a1.3,1.3,0,0,0-2.6,0c-.062,6.022-.06,12.045-.043,18.067a1.3,1.3,0,0,0,2.6,0" transform="translate(-71.33 -75.959)" fill="#211715"/>
      <path id="パス_151" data-name="パス 151" d="M150.957,149.7a50.51,50.51,0,0,0,2.622,9.364,1.318,1.318,0,0,0,1.083.931,1.28,1.28,0,0,0,1.3-.621c.739-1.674,1.379-3.391,1.95-5.127a35.714,35.714,0,0,0,1.335-4.934,1.338,1.338,0,0,0-.908-1.6,1.312,1.312,0,0,0-1.6.908,35.192,35.192,0,0,1-1.288,4.79q-.418,1.274-.887,2.532-.231.618-.477,1.23-.108.271-.221.538l-.012.029c-.047.108-.093.217-.14.322l2.376.311a50.513,50.513,0,0,1-2.623-9.364,1.311,1.311,0,0,0-1.6-.908,1.33,1.33,0,0,0-.908,1.6Z" transform="translate(-69.161 -67.673)" fill="#211715"/>
      <path id="パス_152" data-name="パス 152" d="M191.807,139.885q4.67,1.78,9.252,3.778c2.912,1.275,5.865,2.546,8.658,4.067a15.736,15.736,0,0,1,3.307,2.283,12.067,12.067,0,0,1,2.457,3.481,29.069,29.069,0,0,1,1.925,5.192,130.235,130.235,0,0,1,2.79,12.745q1.246,7.031,2.089,14.127c.271,2.27.507,4.545.687,6.826a23.12,23.12,0,0,1-.32,7.644,1.3,1.3,0,0,0,2.508.691c1.122-4.432.4-9.129-.1-13.608q-.819-7.368-2.068-14.687c-.77-4.534-1.635-9.069-2.831-13.513a34.67,34.67,0,0,0-1.723-5.214,20.189,20.189,0,0,0-2.193-3.951,14.1,14.1,0,0,0-3.348-3.124,58.791,58.791,0,0,0-9.453-4.726q-5.414-2.4-10.951-4.515a1.311,1.311,0,0,0-1.6.908,1.329,1.329,0,0,0,.908,1.6Z" transform="translate(-87.465 -62.936)" fill="#211715"/>
      <path id="パス_153" data-name="パス 153" d="M111.847,156.661c1.985,1.95,3.786,4.109,5.625,6.194,2.468,2.8,4.919,5.609,7.405,8.39.875.978,1.75,1.958,2.657,2.906a7.818,7.818,0,0,0,2.147,1.771,3.436,3.436,0,0,0,3.726-.466c2.316-1.9.944-4.942-.607-6.839s-3.176-3.719-4.741-5.6q-5.507-6.614-10.869-13.343a1.308,1.308,0,0,0-1.839,0,1.331,1.331,0,0,0,0,1.839q4.465,5.58,9.006,11.1,2.287,2.773,4.61,5.515c.683.8,1.422,1.578,2.063,2.414.418.546,1.2,1.7,1.043,2.426-.186.833-1.053.815-1.609.4a10.862,10.862,0,0,1-1.3-1.27c-.864-.916-1.7-1.854-2.543-2.793-2.329-2.608-4.63-5.243-6.942-7.866-1.962-2.225-3.878-4.534-6-6.614-1.192-1.174-3.034.663-1.839,1.839Z" transform="translate(-51.078 -68.42)" fill="#211715"/>
      <path id="パス_154" data-name="パス 154" d="M100.416,141.423a6.818,6.818,0,0,1,.65-.656c.069-.06.14-.117.21-.176-.092.077-.1.075,0,0,.136-.1.271-.191.414-.28a8.069,8.069,0,0,1,.845-.462c.07-.033.14-.063.21-.1-.225.1.02-.007.067-.025q.249-.1.5-.18a11.651,11.651,0,0,1,2.054-.468c-.189.026.023,0,.1-.009s.173-.018.26-.026c.2-.018.4-.031.6-.042.407-.021.813-.025,1.221-.018a1.3,1.3,0,1,0,0-2.6c-3.2-.054-6.772.681-8.972,3.2a1.3,1.3,0,0,0,1.823,1.854l.015-.015Z" transform="translate(-44.997 -62.5)" fill="#211715"/>
      <path id="パス_155" data-name="パス 155" d="M108.658,149.682c.664-.535,1.3-1.107,1.965-1.638l.172-.136c.038-.03.217-.171.044-.035s.041-.03.077-.057l.151-.113q.367-.271.746-.53a11.8,11.8,0,0,1,1.455-.851,1.308,1.308,0,0,0,.466-1.779,1.334,1.334,0,0,0-1.779-.466,28.027,28.027,0,0,0-5.137,3.767,1.3,1.3,0,0,0-.379.921,1.323,1.323,0,0,0,.379.921,1.308,1.308,0,0,0,.921.379,1.494,1.494,0,0,0,.921-.379Z" transform="translate(-48.778 -65.95)" fill="#211715"/>
      <path id="パス_156" data-name="パス 156" d="M85.167,129.79a13.518,13.518,0,0,1,.618-4.488,16.63,16.63,0,0,1,.769-2.056,5.762,5.762,0,0,1,.509-1.008c-.131.179.085-.071.124-.1-.254.214.352-.159.021-.018a3.087,3.087,0,0,1,.379-.114c.054-.013.108-.024.166-.033-.161.02-.166.023-.014.008.037,0,.433-.008.262-.022-.156-.012.232.067.287.088-.214-.083.2.12.246.147.084.054.349.139.081.048a1.256,1.256,0,0,1,.114.113q-.189-.245-.061-.049c.04.091.1.192.15.279q.091.2.009,0c.03.075.06.15.087.226q.064.177.118.358a6.023,6.023,0,0,1,.2.9c-.031-.229.015.264.016.311,0,.129,0,.258,0,.387,0,.084-.01.167-.019.251q.028-.212-.011.017c-.044.15-.081.3-.137.445a1.311,1.311,0,0,0,.908,1.6,1.329,1.329,0,0,0,1.6-.91,6.012,6.012,0,0,0-.108-3.87,4.984,4.984,0,0,0-.875-1.734,3.939,3.939,0,0,0-1.571-1,3.792,3.792,0,0,0-3.78.817,5.925,5.925,0,0,0-1.124,1.95,21.6,21.6,0,0,0-.858,2.286,16.2,16.2,0,0,0-.711,5.179,1.3,1.3,0,1,0,2.6,0Z" transform="translate(-37.834 -54.7)" fill="#211715"/>
      <path id="パス_157" data-name="パス 157" d="M108.342,154.737a57.229,57.229,0,0,0,4.7-5.322,16.818,16.818,0,0,0,2.287-3.8,4.6,4.6,0,0,0-.554-4.941,4.989,4.989,0,0,0-3.344-1.885c-1.674-.061-1.671,2.54,0,2.6.5.018,1.045.646,1.455,1.066.271.28-.1-.206.051.058.058.1.121.212.185.311.158.248-.066-.3.029.086.051.206.044.5.054.129,0,.134.02.271.017.405,0,.075-.019.159-.014.234.014.181.069-.3,0,.011a7.948,7.948,0,0,1-.345,1.144c.119-.3-.018.038-.051.108-.054.114-.108.229-.168.342-.138.271-.287.532-.442.79-.352.585-.741,1.147-1.148,1.695a50.389,50.389,0,0,1-4.546,5.131c-1.173,1.2.665,3.034,1.839,1.839Z" transform="translate(-48.637 -63.602)" fill="#211715"/>
      <path id="パス_158" data-name="パス 158" d="M106.226,167.574c-.34,1.528-.707,3.05-1.047,4.579a1.3,1.3,0,0,0,2.507.691c.34-1.528.707-3.05,1.047-4.579a1.3,1.3,0,1,0-2.507-.691" transform="translate(-48.179 -76.357)" fill="#211715"/>
      <path id="パス_159" data-name="パス 159" d="M79.265,174.152c4.863.461,9.7,1.221,14.547,1.842.9.115,1.8.236,2.7.325l-1.3-1.3c-.645,6.784-1.715,13.543-2.7,20.282q-.356,2.438-.721,4.876a1.342,1.342,0,0,0,.908,1.6,1.31,1.31,0,0,0,1.6-.908c1.06-7.048,2.083-14.1,2.975-21.176.2-1.555.388-3.11.537-4.67.071-.748-.657-1.236-1.3-1.3-4.681-.467-9.338-1.218-14.006-1.8-1.079-.134-2.158-.271-3.24-.372a1.309,1.309,0,0,0-1.3,1.3,1.329,1.329,0,0,0,1.3,1.3Z" transform="translate(-35.729 -78.617)" fill="#211715"/>
      <path id="パス_160" data-name="パス 160" d="M83.6,138.062a11.77,11.77,0,0,1,7.8-7.3,16.4,16.4,0,0,1,6.161-.626,5.037,5.037,0,0,1,2.559.6.782.782,0,0,1,.3.392c.028.188-.116.275.127.18a1.338,1.338,0,0,0-.908,1.6,1.31,1.31,0,0,0,1.6.908,2.9,2.9,0,0,0,.966-4.689c-1.4-1.542-4.005-1.625-5.938-1.644a16.555,16.555,0,0,0-11.6,4.27,13.568,13.568,0,0,0-3.575,5.627c-.523,1.594,1.987,2.275,2.508.691Z" transform="translate(-37.13 -58.418)" fill="#211715"/>
      <path id="パス_161" data-name="パス 161" d="M81,145.859a44,44,0,0,0,.529,7.519c.135,1.094.282,2.187.433,3.279q.032.232.065.463c.03.211.113.374,0-.021,0,.013,0,.051.007.06,0,.04.005.008.009-.1l-.057.358-.248,1.548a1.34,1.34,0,0,0,.908,1.6,1.31,1.31,0,0,0,1.6-.908,16.922,16.922,0,0,0,.388-2.515,6.544,6.544,0,0,0-.121-.888q-.083-.6-.165-1.192c-.006-.044-.051-.379-.022-.163l-.054-.41q-.063-.48-.123-.96a44.7,44.7,0,0,1-.548-7.673c.084-1.672-2.517-1.668-2.6,0" transform="translate(-37.115 -66.269)" fill="#211715"/>
      <path id="パス_162" data-name="パス 162" d="M152.5,208.952c-.488-1.679-.981-3.359-1.46-5.041-.075-.262-.128-.542-.225-.8-.088-.231.033.181-.017-.139-.028-.179-.061.211-.014.037.023-.084.041-.163.071-.248-.085.237.033-.021.094-.113.105-.158-.132.133.011,0,.043-.041.082-.087.125-.128.059-.058.121-.114.185-.167-.143.119.029-.02.051-.036a5.737,5.737,0,0,1,.55-.333,9.4,9.4,0,0,1,4.571-1.075c.063,0,.46.054.271.019a3.674,3.674,0,0,1,.488.125c-.228-.074.131.075.2.119-.014-.009-.163-.134-.057-.035.15.141.038.129.028.02.023.244-.028-.159.041.089,0,.014.009.027.014.041.029.095.061.189.091.283.477,1.492.936,2.991,1.39,4.49.484,1.6,3,.916,2.508-.692q-.687-2.261-1.4-4.516a4.306,4.306,0,0,0-.458-1.1,3.311,3.311,0,0,0-2.279-1.358,11.377,11.377,0,0,0-6.156,1.069c-1.673.739-3.25,2.175-2.849,4.171.163.8.437,1.581.663,2.36q.527,1.823,1.059,3.644a1.3,1.3,0,0,0,2.508-.692Z" transform="translate(-67.92 -90.877)" fill="#211715"/>
      <path id="パス_163" data-name="パス 163" d="M169.419,245.01l1.323,4.588a4.753,4.753,0,0,1,.226,2.011,3.035,3.035,0,0,0-.094.365,1.6,1.6,0,0,1-.121.346,2.675,2.675,0,0,1-.518.769,4.113,4.113,0,0,1-1.9,1.083c-.143.041-.288.069-.433.108-.239.062-.069.018-.007.01-.079.01-.158.017-.237.022a4.652,4.652,0,0,1-.476.009c-.08,0-.159-.01-.238-.014-.249-.012.079.023-.069-.009s-.313-.066-.468-.112c-.078-.023-.154-.049-.231-.075-.2-.066.163.079-.03-.007a4.153,4.153,0,0,1-.387-.2c-.072-.042-.145-.087-.217-.133,0,0-.31-.237-.152-.108a4.129,4.129,0,0,1-1.255-1.714,23.72,23.72,0,0,1-.877-3c-.345-1.246-.679-2.5-1.036-3.738a1.3,1.3,0,0,0-2.508.692c.358,1.243.692,2.492,1.037,3.738a26.444,26.444,0,0,0,1.007,3.318,6.315,6.315,0,0,0,4.073,3.77,6.54,6.54,0,0,0,5.429-1.111,5.732,5.732,0,0,0,2.2-5.812,18.554,18.554,0,0,0-.518-1.937l-1.023-3.547a1.3,1.3,0,0,0-2.508.692Z" transform="translate(-73.167 -111.546)" fill="#211715"/>
      <path id="パス_164" data-name="パス 164" d="M149.28,228.967a1.605,1.605,0,0,1-1.31-.274c.208.14-.132-.138-.174-.191.138.175-.04-.1-.063-.145.1.2-.036-.158-.041-.179.044.2-.011-.176-.011-.227a2.324,2.324,0,0,1,.554-1.44,12.116,12.116,0,0,1,1.314-1.354,24.675,24.675,0,0,1,2.827-2.1,13.958,13.958,0,0,1,3.393-1.78c1.593-.5.913-3.006-.691-2.507a16.749,16.749,0,0,0-4.478,2.357,24.681,24.681,0,0,0-3.684,2.98c-1.249,1.283-2.231,3.051-1.7,4.9a3.782,3.782,0,0,0,4.063,2.568,1.341,1.341,0,0,0,1.3-1.3,1.308,1.308,0,0,0-1.3-1.3Z" transform="translate(-66.481 -100.226)" fill="#211715"/>
      <path id="パス_165" data-name="パス 165" d="M177.882,212.567c-2.079-.955-4.249-1.571-6.383-2.38a20.1,20.1,0,0,0-6.743-1.346,23.542,23.542,0,0,0-3.214.226,33.2,33.2,0,0,0-3.916.615,18.543,18.543,0,0,0-6.688,3.073,6.891,6.891,0,0,0-2.2,2.6,5.781,5.781,0,0,0,.047,4.551,1.338,1.338,0,0,0,1.6.908,1.309,1.309,0,0,0,.908-1.6,3.356,3.356,0,0,1-.21-2.763,4.343,4.343,0,0,1,1.434-1.653,16.616,16.616,0,0,1,5.888-2.635,20.818,20.818,0,0,1,12.081.4c2.028.758,4.114,1.335,6.084,2.241a1.339,1.339,0,0,0,1.779-.466,1.311,1.311,0,0,0-.466-1.779Z" transform="translate(-67.958 -95.705)" fill="#211715"/>
      <path id="パス_166" data-name="パス 166" d="M158.193,241.724a3.37,3.37,0,0,0,2.346,4.132c1.928.513,3.894-.408,5.782-.715,1.684-.271,3.384-.35,5.08-.5,1.945-.173,3.889-.333,5.839-.438,1.665-.09,1.675-2.691,0-2.6-3.222.175-6.486.383-9.691.766-.933.112-1.866.242-2.789.421-.807.157-1.59.463-2.4.584a5.246,5.246,0,0,1-.845.036,2.057,2.057,0,0,1-.482-.121c-.088-.03-.086-.03.008,0a2.07,2.07,0,0,1-.217-.128c.18.17-.084-.108-.093-.118.074.074.031.037,0-.06a.979.979,0,0,1-.028-.567,1.337,1.337,0,0,0-.908-1.6,1.311,1.311,0,0,0-1.6.908Z" transform="translate(-72.462 -110.338)" fill="#211715"/>
      <path id="パス_167" data-name="パス 167" d="M159.427,227.619a14.8,14.8,0,0,0-7.909,4.9,3.833,3.833,0,0,0-.732,1.34,3.338,3.338,0,0,0,.794,2.837c1.427,1.763,3.859,1.374,5.427.036.085-.073.168-.148.251-.224.2-.18-.14.084.108-.083.184-.125.368-.246.561-.358s.394-.217.6-.316c.108-.054.221-.1.332-.154.252-.118-.151.054.128-.054a13.323,13.323,0,0,1,2-.632,1.3,1.3,0,1,0-.691-2.507,13.143,13.143,0,0,0-3.63,1.388,7.941,7.941,0,0,0-.936.63,5.672,5.672,0,0,0-.484.4c-.035.033-.182.154.006.01a3.137,3.137,0,0,1-.3.2c-.067.04-.449.213-.255.141-.08.03-.163.054-.242.08.02-.005-.383.088-.2.054s-.217.008-.2.007c-.054,0-.243-.036-.021.009a1.979,1.979,0,0,1-.236-.065c.241.082-.044-.044-.088-.071.214.128-.079-.087-.152-.157-.167-.163-.037-.048,0,0-.051-.077-.1-.155-.145-.234-.021-.036-.113-.246-.05-.088.074.184-.036-.138-.038-.141-.031-.078-.013-.234-.006.054,0-.054-.039-.256,0-.281-.011.008-.033.328.008.087,0,.029-.124.217-.039.114a1.425,1.425,0,0,0,.1-.173c.1-.157.217-.3.314-.456.089-.139-.221.271-.062.082.029-.035.057-.072.087-.108.062-.072.125-.145.189-.217.168-.188.344-.368.526-.542s.372-.342.567-.5l.147-.12c.243-.2-.159.108.007-.007.14-.1.275-.2.415-.3a14.336,14.336,0,0,1,2.013-1.156l.233-.108.271-.119c-.124.054.135-.054.158-.063q.194-.077.39-.15c.488-.179.979-.335,1.477-.476a1.3,1.3,0,1,0-.691-2.507Z" transform="translate(-69.075 -104.291)" fill="#211715"/>
      <path id="パス_168" data-name="パス 168" d="M194.06,234.267c1.568-3.142,3.052-6.324,4.568-9.489,1.238-2.583,2.448-5.212,3.931-7.667l-1.779.466c2.568,1.512,5.171,2.965,7.711,4.525,1.43.878,2.738-1.37,1.313-2.245-2.54-1.559-5.143-3.012-7.711-4.524a1.322,1.322,0,0,0-1.779.466c-1.484,2.454-2.693,5.083-3.931,7.666-1.517,3.166-3,6.348-4.569,9.489C191.07,234.447,193.312,235.766,194.06,234.267Z" transform="translate(-87.835 -98.603)" fill="#211715"/>
      <path id="パス_169" data-name="パス 169" d="M1.256,263.07c3.476,0,6.951-.04,10.426-.041a1.3,1.3,0,0,0,0-2.6c-3.475,0-6.95.04-10.426.041a1.3,1.3,0,0,0,0,2.6" transform="translate(0 -119.347)" fill="#211715"/>
      <path id="パス_170" data-name="パス 170" d="M121.329,275.445q0,3.585,0,7.17a1.3,1.3,0,0,0,2.6,0v-7.17a1.3,1.3,0,1,0-2.6,0" transform="translate(-55.602 -125.633)" fill="#211715"/>
      <path id="パス_171" data-name="パス 171" d="M15.36,262.577c-.009,1.609.007,3.218.018,4.827a1.32,1.32,0,0,0,1.3,1.3c13.016,0,26.03.094,39.045.133q5.327.016,10.653.017a1.318,1.318,0,0,0,1.3-1.3q-.011-2.167-.014-4.334a5.98,5.98,0,0,1,.449-1.962q.375-1.131.746-2.263c.915-2.78,1.842-5.555,2.917-8.279l-1.254.955h6.111l-1.3-1.3c.006,4.308.152,8.619.232,12.926q.073,3.916.139,7.832c.012.753-.019,1.52.031,2.271.007.1-.042.278.019-.034-.031.163-.071.319-.108.478q-.128.565-.257,1.13-.3,1.32-.622,2.637c-1.207,5-2.523,9.982-4.041,14.9l1.254-.955q-11.489,0-22.978-.048l-26.1-.081q-6.092-.015-12.184-.017l1.3,1.3c.01-8.442.163-16.885.244-25.327.016-1.661.034-3.324.035-4.984l-.379.921c3.318-3.927,6.723-7.786,10.156-11.613,1.114-1.243-.718-3.088-1.839-1.839-2.14,2.384-4.251,4.8-6.359,7.211-1.163,1.332-2.323,2.665-3.467,4.013a2.229,2.229,0,0,0-.71,1.366c-.009.189,0,.379,0,.569q0,.722-.008,1.445c-.047,6.511-.133,13.02-.2,19.531-.03,2.9-.066,5.806-.069,8.709a1.319,1.319,0,0,0,1.3,1.3q11.683,0,23.366.05l25.995.081q5.952.015,11.9.016a1.332,1.332,0,0,0,1.254-.955c1.378-4.467,2.587-8.987,3.7-13.526q.64-2.6,1.231-5.211a10.5,10.5,0,0,0,.146-2.529c-.08-5.353-.191-10.706-.29-16.058-.034-1.834-.091-3.671-.094-5.506a1.319,1.319,0,0,0-1.3-1.3H70.521a1.347,1.347,0,0,0-1.254.955c-1.1,2.8-2.054,5.655-2.994,8.513a15.067,15.067,0,0,0-1.211,4.471q0,2.271.014,4.546l1.3-1.3c-12.995,0-25.989-.089-38.984-.13q-5.357-.017-10.714-.02l1.3,1.3c-.011-1.609-.027-3.218-.018-4.827a1.3,1.3,0,0,0-2.6,0Z" transform="translate(-4.316 -114.142)" fill="#211715"/>
      <path id="パス_172" data-name="パス 172" d="M98.238,260.86q4.821.02,9.647.033a1.3,1.3,0,0,0,0-2.6q-4.821-.012-9.647-.033a1.3,1.3,0,0,0,0,2.6" transform="translate(-44.444 -118.353)" fill="#211715"/>
      <path id="パス_173" data-name="パス 173" d="M67.149,260.726l6.947.029a1.3,1.3,0,0,0,.006-2.6H74.1l-6.947-.029a1.3,1.3,0,0,0,0,2.6" transform="translate(-30.178 -118.292)" fill="#211715"/>
      <path id="パス_174" data-name="パス 174" d="M79.155,289.383v4.14a14.345,14.345,0,0,0,.266,3.665,6.02,6.02,0,0,0,3.864,4.246,7.1,7.1,0,0,0,5.732-.67A5.4,5.4,0,0,0,91.334,296c0-2.145-.043-4.292-.069-6.436a1.3,1.3,0,0,0-2.6,0q.034,2.881.063,5.761a12.972,12.972,0,0,1-.022,1.414c.015-.151-.048.263-.067.341s-.043.17-.069.254c.008-.025-.131.368-.063.2s-.1.2-.089.178c-.038.07-.077.139-.12.206s-.085.133-.132.2c.155-.211-.076.073-.095.093-.054.059-.365.325-.173.179a3.449,3.449,0,0,1-.45.285c-.071.038-.144.075-.217.108-.207.1.283-.094-.092.035a6.1,6.1,0,0,1-.625.181,3.708,3.708,0,0,1-.916.12c-.211.01-.423.015-.634.007-.1,0-.2-.011-.3-.02.191.016.045.009-.064-.013a5.253,5.253,0,0,1-.516-.128c-.08-.025-.46-.185-.243-.082a4.476,4.476,0,0,1-.472-.256c-.086-.054-.17-.108-.251-.168.147.108-.011-.01-.07-.065a3.4,3.4,0,0,1-1.063-1.676,10.915,10.915,0,0,1-.235-3.192v-4.14a1.3,1.3,0,0,0-2.6,0Z" transform="translate(-36.264 -132.04)" fill="#211715"/>
      <path id="パス_175" data-name="パス 175" d="M48.317,289.383v4.14a14.394,14.394,0,0,0,.266,3.665,6.02,6.02,0,0,0,3.865,4.246,7.1,7.1,0,0,0,5.732-.67A5.4,5.4,0,0,0,60.5,296c0-2.145-.043-4.292-.069-6.436a1.3,1.3,0,0,0-2.6,0q.035,2.881.063,5.761a12.972,12.972,0,0,1-.022,1.414c.015-.151-.049.263-.067.341s-.043.17-.069.254c.008-.025-.131.368-.064.2s-.1.2-.089.178c-.037.07-.077.139-.12.206s-.085.133-.131.2c.155-.211-.076.073-.095.093-.057.059-.365.325-.173.179a3.444,3.444,0,0,1-.45.285c-.072.038-.145.075-.217.108-.207.1.283-.094-.092.035a6.114,6.114,0,0,1-.625.181,3.708,3.708,0,0,1-.916.12c-.211.01-.423.015-.634.007-.1,0-.2-.011-.3-.02.191.016.044.009-.064-.013a4.96,4.96,0,0,1-.516-.128c-.08-.025-.46-.185-.243-.082a4.733,4.733,0,0,1-.473-.256c-.086-.054-.17-.108-.251-.168.147.108-.011-.01-.07-.065a3.4,3.4,0,0,1-1.063-1.676,10.9,10.9,0,0,1-.235-3.192v-4.14a1.3,1.3,0,0,0-2.6,0Z" transform="translate(-22.132 -132.04)" fill="#211715"/>
      <path id="パス_176" data-name="パス 176" d="M170.4,277.262a52.67,52.67,0,0,0-7.2.333c-2.117.291-4.633.734-6.126,2.416a4.069,4.069,0,0,0-.163,5.494c1.275,1.47,3.339,2.05,5.176,2.41a39.4,39.4,0,0,0,7.181.621,54.706,54.706,0,0,0,7.267-.283,14.958,14.958,0,0,0,6.078-1.693,4.2,4.2,0,0,0,2.079-4.95c-.908-2.526-3.584-3.407-5.993-3.842a46.48,46.48,0,0,0-8.3-.5,1.3,1.3,0,0,0,0,2.6,57.957,57.957,0,0,1,6.279.217c1.559.17,3.691.394,4.925,1.479a1.555,1.555,0,0,1-.151,2.654,10.76,10.76,0,0,1-4.619,1.4,42.991,42.991,0,0,1-5.909.328,58.333,58.333,0,0,1-5.846-.2c-1.369-.132-8.085-.882-6.325-3.666.946-1.5,3.464-1.756,5.043-1.956a52.2,52.2,0,0,1,6.6-.255,1.3,1.3,0,0,0,0-2.6" transform="translate(-71.453 -127.052)" fill="#211715"/>
      <path id="パス_177" data-name="パス 177" d="M155.944,287.132v4.525a4,4,0,0,0,1.641,3.269c2.188,1.718,5.332,2.046,8.009,2.265a60.338,60.338,0,0,0,9.393.02c2.666-.2,5.86-.5,8.079-2.156a4.412,4.412,0,0,0,1.858-3.207,43.711,43.711,0,0,0,.1-4.713,1.3,1.3,0,0,0-2.6,0c0,1.3.073,2.628-.022,3.925a2.183,2.183,0,0,1-.638,1.727,5.676,5.676,0,0,1-2.366,1.117,23,23,0,0,1-3.887.666,63.164,63.164,0,0,1-8.132.128,19.422,19.422,0,0,1-7.235-1.236,3.806,3.806,0,0,1-1.242-.833,1.33,1.33,0,0,1-.353-1.083v-4.413a1.3,1.3,0,0,0-2.6,0Z" transform="translate(-71.464 -131.009)" fill="#211715"/>
      <path id="パス_178" data-name="パス 178" d="M23.746,321.919a1.3,1.3,0,0,0,0-2.6,1.3,1.3,0,0,0,0,2.6" transform="translate(-10.306 -146.335)" fill="#211715"/>
      <path id="パス_179" data-name="パス 179" d="M10.75,321.919a1.3,1.3,0,0,0,0-2.6,1.3,1.3,0,0,0,0,2.6" transform="translate(-4.35 -146.335)" fill="#211715"/>
      <path id="パス_180" data-name="パス 180" d="M30.011,252.433H35.32l-1.3-1.3c0,1.486-.02,2.972-.033,4.458a1.318,1.318,0,0,0,1.3,1.3q2.647,0,5.295.005a1.3,1.3,0,0,0,0-2.6q-2.647,0-5.295-.005l1.3,1.3c.013-1.486.032-2.972.033-4.458a1.318,1.318,0,0,0-1.3-1.3H30.011A1.3,1.3,0,0,0,30.011,252.433Z" transform="translate(-13.178 -114.491)" fill="#211715"/>
      <path id="パス_181" data-name="パス 181" d="M20.425,289.131c.041,5.674.136,11.361-.061,17.034a1.316,1.316,0,0,0,1.3,1.3c13.062,0,26.124.087,39.186.127q5.309.016,10.618.018a1.318,1.318,0,0,0,1.3-1.3c0-5.7-.034-11.394-.06-17.092a1.32,1.32,0,0,0-1.3-1.3c-12.969,0-25.937-.088-38.906-.13q-5.387-.017-10.774-.02a1.318,1.318,0,0,0-1.3,1.3v.062a1.3,1.3,0,0,0,2.6,0v-.062l-1.3,1.3c12.992,0,25.983.094,38.975.133q5.353.016,10.706.016l-1.3-1.3c.025,5.7.059,11.395.06,17.092l1.3-1.3c-13.059,0-26.119-.09-39.178-.129q-5.309-.015-10.623-.016l1.3,1.3c.2-5.672.1-11.359.061-17.034a1.3,1.3,0,0,0-2.6,0" transform="translate(-9.332 -131.876)" fill="#211715"/>
      <path id="パス_182" data-name="パス 182" d="M180.339,262.494q15.778-.024,31.556-.039,14.49-.015,28.982-.027l11.936-.01a1.3,1.3,0,0,0,0-2.6l-23.806.02q-15.57.015-31.139.033l-17.527.023a1.3,1.3,0,0,0,0,2.6Z" transform="translate(-82.07 -119.067)" fill="#211715"/>
      <path id="パス_183" data-name="パス 183" d="M158.222,259.988l-9.1.016a1.3,1.3,0,0,0,0,2.6l9.1-.016a1.3,1.3,0,0,0,0-2.6" transform="translate(-67.743 -119.145)" fill="#211715"/>
      <path id="パス_184" data-name="パス 184" d="M133.484,262.644q4.234-.013,8.469-.021a1.3,1.3,0,0,0,.006-2.6h-.006q-4.234.009-8.469.021a1.3,1.3,0,0,0,0,2.6" transform="translate(-60.577 -119.161)" fill="#211715"/>
      <path id="パス_185" data-name="パス 185" d="M57.869,235.6v18.9l.177-.656c-.633.921-2.639.884-3.6.883a4.639,4.639,0,0,1-3.749-1.514l.379.921q0-9.243-.007-18.486a1.3,1.3,0,0,0-2.6,0q0,4.611,0,9.222v7.913a6.739,6.739,0,0,0,.047,1.7c.251.912,1.463,1.686,2.262,2.067a10.067,10.067,0,0,0,5.841.6,6.36,6.36,0,0,0,2.384-.75,3.8,3.8,0,0,0,.97-.82,2.159,2.159,0,0,0,.488-1.562V235.6a1.3,1.3,0,0,0-2.6,0Z" transform="translate(-22.198 -107.395)" fill="#211715"/>
      <path id="パス_186" data-name="パス 186" d="M88.71,235.6v18.9l.178-.656c-.633.921-2.639.884-3.6.883a4.64,4.64,0,0,1-3.749-1.514l.379.921q0-9.243-.007-18.486a1.3,1.3,0,0,0-2.6,0q0,4.611,0,9.222,0,3.15,0,6.3v1.613a6.789,6.789,0,0,0,.047,1.7c.251.912,1.463,1.686,2.262,2.067a10.068,10.068,0,0,0,5.841.6,6.36,6.36,0,0,0,2.384-.75,3.8,3.8,0,0,0,.97-.82,2.159,2.159,0,0,0,.488-1.562V235.6a1.3,1.3,0,0,0-2.6,0Z" transform="translate(-36.333 -107.395)" fill="#211715"/>
      <path id="パス_187" data-name="パス 187" d="M54.321,230.155c-1.918.01-4.6.3-5.526,2.287A3.167,3.167,0,0,0,48.9,235.3a3.523,3.523,0,0,0,2.116,1.511,11.4,11.4,0,0,0,3.171.354,16.033,16.033,0,0,0,3.346-.258A4.068,4.068,0,0,0,59.72,235.8a3.107,3.107,0,0,0,.726-2.651c-.478-2.627-4-2.98-6.122-2.99a1.3,1.3,0,1,0,0,2.6,8.644,8.644,0,0,1,2.478.275c.18.049.357.108.532.172-.225-.085.132.067.2.108s.149.091.223.139c.158.1-.189-.212.009.013.04.045.089.094.132.135-.137-.133-.1-.09,0,.035.038.045.178.19-.027-.064,0,0,.041.176.044.177-.09-.027.005-.289-.022-.021a.882.882,0,0,0-.009.169c.016.155.1-.3.005-.07a.756.756,0,0,0-.039.146c-.027.241.029-.141.051-.108.011.017-.1.17-.1.187-.094.212.063-.124.074-.093s-.108.113-.128.129c-.092.082-.2.091.054-.04-.047.024-.086.062-.134.085-.129.061-.331.144-.073.054-.166.059-.33.115-.5.159-.157.04-.314.073-.473.1-.076.014-.152.025-.229.036.243-.035.029,0-.018,0-.464.042-.927.071-1.393.082-.446.01-.892.01-1.338,0q-.325-.01-.646-.032c-.09-.007-.179-.014-.271-.022-.016,0-.433-.051-.157-.012a5.665,5.665,0,0,1-.962-.213c-.06-.02-.121-.047-.181-.064.265.074.133.068.061.023-.118-.073-.241-.137-.358-.213.271.176.13.1.058.027s-.113-.2.034.064c-.046-.082-.095-.178-.147-.256.247.366.078.129.054.1-.01-.013-.084-.306-.026-.061.046.2,0,.026,0-.036a2.329,2.329,0,0,0,0-.275c-.024-.175-.07.3.007.029.069-.242-.15.208,0-.017.03-.046.066-.1.09-.151-.086.163-.1.12.025-.012.043-.045.094-.081.138-.125-.2.2-.024.027.054-.022s.515-.231.271-.146a6.982,6.982,0,0,1,2.628-.385,1.3,1.3,0,1,0,0-2.6Z" transform="translate(-22.229 -105.473)" fill="#211715"/>
      <path id="パス_188" data-name="パス 188" d="M85.158,230.155c-1.918.01-4.6.3-5.529,2.287a3.167,3.167,0,0,0,.108,2.861,3.522,3.522,0,0,0,2.115,1.511,11.4,11.4,0,0,0,3.171.354,16.031,16.031,0,0,0,3.345-.258,4.068,4.068,0,0,0,2.184-1.114,3.106,3.106,0,0,0,.726-2.651c-.478-2.627-4-2.98-6.122-2.99a1.3,1.3,0,1,0,0,2.6,8.644,8.644,0,0,1,2.478.275q.271.074.531.172c-.224-.085.132.067.2.108s.15.091.223.139c.157.1-.19-.212.008.013.04.045.089.094.132.135-.137-.133-.1-.09,0,.035.038.045.178.19-.026-.064,0,0,.041.176.044.177-.089-.027.005-.289-.022-.021a.882.882,0,0,0-.008.169c.015.155.1-.3,0-.07a.857.857,0,0,0-.039.146c-.027.241.029-.141.051-.108.011.017-.1.17-.1.187-.094.212.064-.124.074-.093s-.108.113-.127.129c-.093.082-.2.091.054-.04-.047.024-.086.062-.134.085-.128.061-.33.144-.073.054-.167.059-.331.115-.5.159-.156.04-.314.073-.473.1-.076.014-.152.025-.229.036.243-.035.029,0-.018,0-.464.042-.927.071-1.393.082-.446.01-.892.01-1.338,0q-.325-.01-.646-.032c-.089-.007-.179-.014-.271-.022-.016,0-.433-.051-.157-.012a5.659,5.659,0,0,1-.961-.213c-.061-.02-.121-.047-.181-.064.264.074.133.068.06.023-.118-.073-.241-.137-.358-.213.271.176.13.1.058.027s-.113-.2.034.064c-.046-.082-.095-.178-.147-.256.246.366.077.129.054.1-.01-.013-.083-.306-.026-.061.047.2,0,.026,0-.036a2.123,2.123,0,0,0,0-.275c-.024-.175-.07.3.007.029.069-.242-.15.208,0-.017.03-.046.066-.1.09-.151-.086.163-.1.12.025-.012.043-.045.095-.081.138-.125-.2.2-.025.027.054-.022s.515-.231.271-.146a6.982,6.982,0,0,1,2.628-.385,1.3,1.3,0,0,0,0-2.6Z" transform="translate(-36.359 -105.473)" fill="#211715"/>
    </g>
  </g>
</svg>
