<svg xmlns="http://www.w3.org/2000/svg" xmlns:xlink="http://www.w3.org/1999/xlink" width="175.981" height="123.189" viewBox="0 0 175.981 123.189">
  <defs>
    <clipPath id="clip-path">
      <rect id="長方形_22" data-name="長方形 22" width="175.981" height="123.189" fill="none"/>
    </clipPath>
  </defs>
  <g id="point2" transform="translate(0 -38.045)">
    <g id="グループ_25" data-name="グループ 25" transform="translate(0 38.045)" clip-path="url(#clip-path)">
      <path id="パス_189" data-name="パス 189" d="M21.815,119.062c-.008-18.731-.018-43.559-.024-59.407A5.611,5.611,0,0,1,27.4,54.041h0c24.185-.007,94.262-.031,122.938-.041a5.613,5.613,0,0,1,5.617,5.611v0c0,21.261.01,55.791.018,77.79,4.44,6.241,13.971,19.375,18.628,27.331a5.138,5.138,0,0,1,.7,2.607c0,.812-.017,1.794-.017,2.809a3.9,3.9,0,0,1-3.9,3.893H5.732a3.249,3.249,0,0,1-3.25-3.248h0c0-5.013-.019,1.472-.019-3.447a5.176,5.176,0,0,1,.705-2.618C7.877,156.69,17.443,143.142,21.821,137c0-4.534,0-10.79-.006-17.933" transform="translate(-0.87 -52.448)" fill="#fff"/>
      <path id="パス_190" data-name="パス 190" d="M46.076,70.165c.007,17.867.022,53.092.027,64.2a3.438,3.438,0,0,0,3.439,3.438h0c22.664-.008,87.207-.03,109.513-.037a3.441,3.441,0,0,0,3.442-3.44v0c-.008-19.534-.019-47.1-.027-64.19a3.439,3.439,0,0,0-3.437-3.442h0c-16.568,0-88.266.03-109.516.036a3.438,3.438,0,0,0-3.442,3.434v.005" transform="translate(-16.273 -56.93)" fill="#fff"/>
      <path id="パス_191" data-name="パス 191" d="M137.46,116.567a3.053,3.053,0,0,0-6.106,0,2.873,2.873,0,0,0,1.572,2.766v2.812a1.458,1.458,0,0,0,1.455,1.459h.044a1.458,1.458,0,0,0,1.464-1.452v-2.81a2.855,2.855,0,0,0,1.571-2.776" transform="translate(-46.389 -73.483)" fill="#fff"/>
      <path id="パス_192" data-name="パス 192" d="M145.945,90.15a1.9,1.9,0,0,0-1.517-1.863c-2.954-.6-7.1-1.453-9.179-2.07-3.264-.966-8.444-3.09-10.367-3.891a1.9,1.9,0,0,0-1.5.024,81.94,81.94,0,0,1-10.42,3.867c-2.08.615-6.225,1.468-9.178,2.07a1.9,1.9,0,0,0-1.516,1.863c-.023,6.191-.18,11.847.017,17.952a32.972,32.972,0,0,0,1.6,9.379,19.939,19.939,0,0,0,1.574,3.57,16.881,16.881,0,0,0,5.763,6,102.313,102.313,0,0,0,11.291,5.973,3.806,3.806,0,0,0,3.2,0c3.065-1.415,6.533-3.14,9.565-4.921a20.7,20.7,0,0,0,9.673-12.717,34.3,34.3,0,0,0,.985-7.281c.2-6.109.039-11.765.018-17.956m-20.358,18.111v2.8a1.458,1.458,0,0,1-1.459,1.458h-.05a1.459,1.459,0,0,1-1.455-1.459v-2.812a2.874,2.874,0,0,1-1.571-2.766,3.053,3.053,0,0,1,6.1,0,2.855,2.855,0,0,1-1.57,2.776Z" transform="translate(-36.09 -62.402)" fill="#e99ca5"/>
      <path id="パス_193" data-name="パス 193" d="M22.5,118.215l-.014-34.277q0-8.263-.006-16.526V60.15a7.155,7.155,0,0,1,.343-3,4.124,4.124,0,0,1,2.057-2.062c1.291-.578,2.933-.345,4.32-.345H43.8l25.183-.008,28.266-.01,27.256-.009,22.236-.008c1.617,0,3.428-.263,4.872.611a3.993,3.993,0,0,1,1.708,2.153,9.72,9.72,0,0,1,.211,3.027V74.973q0,16.526.008,33.052,0,8.051,0,16.1V135c0,.517-.035,1.046,0,1.56a3.151,3.151,0,0,0,.805,1.617c5.592,7.837,11.285,15.632,16.394,23.8.558.891,1.131,1.781,1.64,2.7.721,1.3.484,2.863.474,4.3a2.5,2.5,0,0,1-1.164,2.358,3.226,3.226,0,0,1-1.732.32H6.411a4.759,4.759,0,0,1-2.468-.269c-1.164-.743-.7-2.294-.783-3.458C3.044,166.274.508,165.7.111,167.51a9.456,9.456,0,0,0-.065.966h3.1a7.492,7.492,0,0,1,.259-3.347,29.712,29.712,0,0,1,2.572-4.286c2.014-3.193,4.109-6.334,6.23-9.455q3.149-4.635,6.378-9.215,1.358-1.93,2.722-3.853a6.7,6.7,0,0,0,1.14-1.754,12.167,12.167,0,0,0,.054-2.984L22.5,118.219a1.553,1.553,0,0,0-3.1,0q0,8.967.007,17.933l.212-.784c-6.1,8.571-12.248,17.172-17.717,26.168a10.136,10.136,0,0,0-1.836,4.509,13.831,13.831,0,0,0-.019,2.428,1.553,1.553,0,0,0,3.105,0c.029-.254.129-.936-.045-.14l-3.05-.413c.036.51,0,1.035,0,1.544a5.283,5.283,0,0,0,1.26,3.722c1.229,1.367,2.873,1.565,4.592,1.565h162.7a11.95,11.95,0,0,0,3.466-.226,5.571,5.571,0,0,0,3.089-2.376,7.561,7.561,0,0,0,.811-4.164,9.272,9.272,0,0,0-.906-4.878c-.548-.984-1.161-1.94-1.76-2.891-1.343-2.141-2.739-4.25-4.153-6.345-2.982-4.416-6.059-8.769-9.154-13.108l-3.558-4.988.212.783q-.006-15.171-.01-30.344-.006-16.268-.007-32.535V59.517a7.626,7.626,0,0,0-2.684-6.327c-1.825-1.45-3.849-1.59-6.08-1.589l-21.474.008-26.664.009-27.994.01-25.465.008-19.139.006a7.574,7.574,0,0,0-5.972,2.424c-1.733,1.99-1.8,4.269-1.8,6.769l.006,15.28.014,34.263q0,3.919,0,7.838a1.551,1.551,0,0,0,3.1,0" transform="translate(0 -51.601)" fill="#211715"/>
      <path id="パス_194" data-name="パス 194" d="M167.861,223.456H27c-1.906,0-3.816-.038-5.722,0h-.246a1.553,1.553,0,0,0,0,3.1H161.892c1.906,0,3.817.038,5.722,0h.247a1.553,1.553,0,0,0,0-3.1" transform="translate(-6.897 -112.291)" fill="#211715"/>
      <path id="パス_195" data-name="パス 195" d="M105.939,119.42c-2.638-4.717-2.959-10.155-3.034-15.44-.039-2.755-.021-5.512.005-8.267.013-1.4.029-2.792.039-4.188a18.871,18.871,0,0,1,.012-2.06c.032-.263.023-.378.27-.5a6.859,6.859,0,0,1,1.506-.314q.874-.179,1.746-.363c1.118-.235,2.233-.477,3.346-.735a62.722,62.722,0,0,0,6.679-1.977q1.828-.647,3.622-1.378.921-.375,1.834-.768a3.78,3.78,0,0,1,1.4-.536,3.67,3.67,0,0,1,.959.378q.582.24,1.164.477,1.4.566,2.8,1.111c1.924.744,3.863,1.483,5.847,2.054,2.014.582,4.075,1,6.127,1.427q.867.181,1.735.359c.349.072,1.132.089,1.4.32.223.194.139.486.14.761q0,1.106.014,2.211c.023,2.767.061,5.535.065,8.3,0,5.31.206,10.892-1.689,15.945a19.252,19.252,0,0,1-8.085,9.545c-2.249,1.358-4.6,2.558-6.96,3.71a12.817,12.817,0,0,1-3.3,1.457c-1.1.167-2.206-.606-3.153-1.061-2.389-1.147-4.751-2.354-7.046-3.678a21.863,21.863,0,0,1-5.572-4.166,15.478,15.478,0,0,1-1.876-2.631,1.554,1.554,0,0,0-2.681,1.567,19.05,19.05,0,0,0,5.121,5.73A50.161,50.161,0,0,0,115.5,130.9q1.918.992,3.87,1.916a8.724,8.724,0,0,0,4.01,1.259,10.346,10.346,0,0,0,4.023-1.395q1.986-.95,3.941-1.965a39.575,39.575,0,0,0,6.89-4.264,22.2,22.2,0,0,0,4.807-5.512c3.012-4.88,3.538-10.579,3.64-16.186.054-2.962.036-5.926.008-8.888-.014-1.552-.032-3.1-.043-4.657-.01-1.479.158-3.014-.892-4.2-.863-.977-2.092-1.123-3.3-1.371s-2.432-.5-3.645-.772a54.392,54.392,0,0,1-6.182-1.692c-2.16-.752-4.291-1.589-6.409-2.449a9.221,9.221,0,0,0-2.7-.92c-1.376-.091-2.717.788-3.956,1.3a82.542,82.542,0,0,1-14.8,4.383,9.2,9.2,0,0,0-3.42.983c-1.332.924-1.5,2.3-1.5,3.8-.017,3.04-.065,6.08-.074,9.12-.02,5.964-.154,12.081,1.793,17.8a23.018,23.018,0,0,0,1.682,3.8c.984,1.745,3.666.181,2.689-1.567" transform="translate(-35.235 -61.559)" fill="#211715"/>
      <path id="パス_196" data-name="パス 196" d="M127.014,103.824a4.864,4.864,0,0,1,1.3-3.311,4.947,4.947,0,0,1,6.921-.008c.111.114.219.232.323.355-.151-.183.113.158.138.194a6.114,6.114,0,0,1,.327.549s.209.433.114.212a4.883,4.883,0,0,1,.409,2.005,1.553,1.553,0,0,0,3.1,0,7.871,7.871,0,1,0-15.741,0,1.554,1.554,0,0,0,3.105,0Z" transform="translate(-43.764 -67.262)" fill="#211715"/>
      <path id="パス_197" data-name="パス 197" d="M137.775,106.553l-15.433-.006a3.3,3.3,0,0,0-3.306,3.3v0c0,3.988,0,8.546,0,12.555a3.3,3.3,0,0,0,3.3,3.306h0c4.5,0,10.778.005,15.432.006a3.3,3.3,0,0,0,3.305-3.3v-.005c0-4.01,0-8.566,0-12.554a3.3,3.3,0,0,0-3.3-3.307Zm-6.238,10.313v2.8a1.458,1.458,0,0,1-1.459,1.458h-.05a1.459,1.459,0,0,1-1.455-1.459v-2.812A2.874,2.874,0,0,1,127,114.091a3.053,3.053,0,0,1,6.1,0A2.855,2.855,0,0,1,131.537,116.866Z" transform="translate(-42.04 -71.007)" fill="#211715"/>
      <path id="パス_198" data-name="パス 198" d="M43.675,69.316q.008,20.624.017,41.248L43.7,128.73v3.228a7.845,7.845,0,0,0,.647,4.015,5.178,5.178,0,0,0,4.692,2.532h2.968l34.44-.012,41.079-.014,18.051-.006h10.507a12.14,12.14,0,0,0,3.623-.232,5.067,5.067,0,0,0,3.486-4.537c.114-1.876.005-3.793.005-5.672q0-6.132-.005-12.264-.007-12.817-.012-25.633l-.005-12.022v-5.5c0-1.757.272-3.759-.463-5.4a5.066,5.066,0,0,0-4.6-2.922c-.672-.014-1.347,0-2.019,0h-5.2l-32.018.01-38.748.013-29.838.009a9.309,9.309,0,0,0-3.321.305,5.085,5.085,0,0,0-3.291,4.687c-.065,2,3.04,2,3.1,0,.078-2.446,3.163-1.887,4.829-1.888h6.008l15.249-.005,37.2-.012,34.263-.012,11.578,0c.658,0,1.318,0,1.975,0a1.982,1.982,0,0,1,2.184,1.754,2.071,2.071,0,0,1,.007.335c.03,3.466,0,6.932,0,10.4q.011,24.317.021,48.634v2.869a10.838,10.838,0,0,1-.057,2.557c-.328,1.294-1.5,1.423-2.631,1.423h-6.2l-16,.005-39.559.014-36.635.012H49.271c-1.271,0-2.393-.428-2.466-1.885-.105-2.041,0-4.117,0-6.161l0-8.409-.017-41.171q0-4.227,0-8.455a1.554,1.554,0,0,0-3.105,0" transform="translate(-15.424 -56.081)" fill="#211715"/>
    </g>
  </g>
</svg>
