<svg xmlns="http://www.w3.org/2000/svg" xmlns:xlink="http://www.w3.org/1999/xlink" width="195.512" height="132.214" viewBox="0 0 195.512 132.214">
  <defs>
    <clipPath id="clip-path">
      <rect id="長方形_26" data-name="長方形 26" width="195.512" height="115.396" fill="none"/>
    </clipPath>
    <clipPath id="clip-path-2">
      <rect id="長方形_31" data-name="長方形 31" width="69.938" height="69.937" fill="none"/>
    </clipPath>
  </defs>
  <g id="point4" transform="translate(-381.551 -915.063)">
    <g id="グループ_34" data-name="グループ 34" transform="translate(391.551 921.88)">
      <g id="グループ_33" data-name="グループ 33" transform="translate(-10 10)" clip-path="url(#clip-path)">
        <path id="パス_227" data-name="パス 227" d="M66.37,69.925c-.017-6.345-.035-12.68-.051-18.617h-.084a3.4,3.4,0,0,0-3.406-3.384H27.993a5.216,5.216,0,0,0-2.212.435,5.986,5.986,0,0,0-2.168,1.924c-5.006,6.773-13.2,18.932-17.7,26.569A12.076,12.076,0,0,0,3.969,82.9c-.03,7.372-.135,14.167-.2,23.409a1.164,1.164,0,0,0-1.323.98,1.131,1.131,0,0,0-.013.172c0,2.029-.024,4.324-.041,7.276a4.657,4.657,0,0,0,4.634,4.68h0c4.8.022,10.873.058,11.62.058l41.054.1c1,0,2.881,0,6.781,0,0-4.9-.054-27.287-.112-49.647" transform="translate(-1 -20.027)" fill="#fff"/>
        <path id="パス_228" data-name="パス 228" d="M58.137,25.129c-3.569,2.086-6.683,3.955-8.637,5.21A5.355,5.355,0,0,0,47,33.53h34.47a3.4,3.4,0,0,1,3.406,3.384h.084c-.026-9.232-.049-17.49-.066-23.268l-1.8-.125a14.975,14.975,0,0,0-2.308,0,12.136,12.136,0,0,0-4.94,1.562c-5.135,2.818-12,6.709-17.713,10.046" transform="translate(-19.642 -5.632)" fill="#fff"/>
        <path id="パス_229" data-name="パス 229" d="M219.7,100.569c4.032,0,5.353-.01,18.88-.008a2.328,2.328,0,0,0,2.328-2.328c-.014-23.822-.111-72.1-.126-93.442a2.322,2.322,0,0,0-2.321-2.323h0c-17.617,0-106.835-.026-124.06-.029a2.321,2.321,0,0,0-2.324,2.316v.012c.051,17.87.248,86.756.244,95.8,18.826-.015,58.639-.05,64.26-.046" transform="translate(-46.837 -1.019)" fill="#fff"/>
        <path id="パス_230" data-name="パス 230" d="M257.014,160.582a5.338,5.338,0,0,0-5.444,5.231c0,.061,0,.122,0,.183a5.251,5.251,0,0,0,5.445,5.512A5.2,5.2,0,0,0,262.459,166a5.334,5.334,0,0,0-5.253-5.414c-.064,0-.128,0-.192,0" transform="translate(-105.131 -67.107)" fill="#fff"/>
        <path id="パス_231" data-name="パス 231" d="M61.392,160.582a5.338,5.338,0,0,0-5.444,5.231c0,.061,0,.122,0,.183a5.251,5.251,0,0,0,5.445,5.512A5.2,5.2,0,0,0,66.837,166a5.334,5.334,0,0,0-5.253-5.414c-.064,0-.127,0-.192,0" transform="translate(-23.38 -67.107)" fill="#fff"/>
        <path id="パス_232" data-name="パス 232" d="M67.176,61.463a2.193,2.193,0,0,0-2.193-2.182c-6.49-.007-15.977-.039-21.693-.039a5.762,5.762,0,0,0-2.341.388A5.8,5.8,0,0,0,38.908,61.6c-3.4,4.581-8.993,12.978-13.518,20.118a3.4,3.4,0,0,0,3.635,5.134c11.75-2.7,26.986-6.136,36.588-8.456a2.135,2.135,0,0,0,1.633-2.088c-.022-4.571-.055-11.376-.071-14.847" transform="translate(-10.389 -24.755)" fill="#e99ca5"/>
        <path id="パス_233" data-name="パス 233" d="M249.141,141.686a16.09,16.09,0,0,0-16.408,15.766c0,.18,0,.36,0,.54,0,9.837,6.851,16.614,16.409,16.614,9.927,0,16.409-6.839,16.409-16.614a16.075,16.075,0,0,0-16.409-16.306m0,21.922A5.251,5.251,0,0,1,243.7,158.1a5.445,5.445,0,0,1,10.889,0,5.2,5.2,0,0,1-5.444,5.512" transform="translate(-97.258 -59.209)" fill="#211715"/>
        <path id="パス_234" data-name="パス 234" d="M53.518,141.686a16.09,16.09,0,0,0-16.409,15.764c0,.18,0,.361,0,.542,0,9.837,6.851,16.614,16.409,16.614,9.927,0,16.409-6.839,16.409-16.614a16.074,16.074,0,0,0-16.407-16.306m0,21.922a5.251,5.251,0,0,1-5.445-5.512,5.445,5.445,0,0,1,10.889,0,5.2,5.2,0,0,1-5.444,5.512" transform="translate(-15.506 -59.209)" fill="#211715"/>
        <path id="パス_235" data-name="パス 235" d="M5.156,104.969Q5.2,98.5,5.275,92.036q.027-2.78.05-5.56.011-1.376.019-2.753a19.883,19.883,0,0,1,.093-2.979,14.655,14.655,0,0,1,2.212-5.135q1.222-2.037,2.494-4.05,2.99-4.746,6.129-9.4,2.976-4.431,6.061-8.79c.87-1.222,1.7-2.53,2.678-3.667A3.652,3.652,0,0,1,27.1,48.366a10.416,10.416,0,0,1,1.942-.07H62.08a3.078,3.078,0,0,1,1.848.334,2.02,2.02,0,0,1,.891,1.653c.058,1.793,2.852,1.8,2.794,0A4.87,4.87,0,0,0,64.5,45.817a11.1,11.1,0,0,0-3.988-.315H31.291c-1.3,0-2.643-.093-3.939.029-2.353.222-3.857,1.523-5.209,3.361-2.072,2.816-4.075,5.682-6.05,8.567Q12.782,62.3,9.6,67.22A98.9,98.9,0,0,0,4.044,76.3a13.9,13.9,0,0,0-1.488,6.382q-.015,2.987-.042,5.974c-.038,4.223-.086,8.446-.123,12.669q-.016,1.821-.029,3.641a1.4,1.4,0,0,0,2.794,0Z" transform="translate(-0.987 -19.001)" fill="#211715"/>
        <path id="パス_236" data-name="パス 236" d="M67.567,60.443a3.684,3.684,0,0,0-1.476-2.875,4.44,4.44,0,0,0-2.821-.7l-6.138-.012-12.491-.025c-1.956,0-4.275-.291-5.957.909-1.5,1.068-2.517,2.841-3.57,4.322-2.468,3.469-4.838,7.008-7.177,10.565q-1.906,2.9-3.775,5.821C23.081,80.138,22,81.788,22.649,83.88a4.862,4.862,0,0,0,4.075,3.4,8.906,8.906,0,0,0,2.994-.407l3.079-.706c8.621-1.974,17.248-3.927,25.86-5.943q2.707-.635,5.414-1.281a4.718,4.718,0,0,0,2.647-1.265,4.034,4.034,0,0,0,.92-2.88q-.03-6.026-.058-12.049-.006-1.152-.011-2.3a1.4,1.4,0,0,0-2.794,0q.024,5.175.049,10.349.006,1.385.013,2.77c0,.591.209,1.618-.1,2.119s-1.179.513-1.693.636q-1.215.291-2.43.579C52.887,78.727,45.14,80.487,37.4,82.253l-5.918,1.353-2.835.65a3.727,3.727,0,0,1-2.055.164,2.029,2.029,0,0,1-1.222-2.582,13.75,13.75,0,0,1,1.411-2.3q.846-1.325,1.7-2.64,3.344-5.158,6.815-10.232c.969-1.41,1.948-2.814,2.951-4.2.436-.6.857-1.231,1.347-1.792a2.735,2.735,0,0,1,2.11-1.044c1.67-.095,3.365-.015,5.037-.012q2.874,0,5.746.012l5.937.013c1.813,0,3.645-.069,5.456.009a.82.82,0,0,1,.894.739c0,.015,0,.03,0,.046.089,1.79,2.884,1.8,2.795,0" transform="translate(-9.384 -23.735)" fill="#211715"/>
        <path id="パス_237" data-name="パス 237" d="M218.7,100.947c6.437,0,7.924,0,14.362-.008,1.409,0,2.819.008,4.228,0a3.922,3.922,0,0,0,3.112-1.3c1.238-1.469.9-3.571.9-5.363q0-5.278-.01-10.556-.015-12.393-.036-24.785-.02-13.048-.041-26.1-.017-11.292-.031-22.585,0-2.264,0-4.527c0-1.916.116-3.93-1.738-5.1-1.389-.878-3.484-.576-5.08-.576h-6.469l-16-.006L192.9.041l-20.637,0-20.7,0-5.986,0-16.326,0H117.377c-1.262,0-2.525-.012-3.784,0a3.809,3.809,0,0,0-3.913,3.7c0,.047,0,.094,0,.141-.01.877.005,1.754.008,2.632q.022,7.625.044,15.251l.058,20.106q.031,10.679.058,21.357.024,9.638.048,19.276.016,6.793.028,13.587,0,1.738,0,3.476a1.418,1.418,0,0,0,1.4,1.4l14.357-.01,18.453-.013,5.871-.012,15.888-.009h9.693a1.4,1.4,0,0,0,0-2.794h-8.126l-15.257.008-5.685.012-18.711.012-15.068.011h-1.413l1.4,1.4q0-4.684-.015-9.367-.017-8.284-.038-16.567-.026-10.252-.053-20.5L112.558,32.2q-.024-9.022-.051-18.045l-.027-6.88L112.472,4.5a2.094,2.094,0,0,1,.194-1.339,1.224,1.224,0,0,1,1.1-.349h23.223l17.6,0,6.694.009,20.52,0,19.791,0,17.627,0,9.078,0c3.006,0,6.014-.033,9.019,0,1.459.017,1.075,1.786,1.076,2.807q0,2.22,0,4.44.005,5.2.013,10.392.017,12.224.037,24.454.02,12.851.039,25.7.017,11.223.028,22.447v2.344a5.975,5.975,0,0,1-.08,2.183c-.378.808-1.582.531-2.281.531h-4.1c-3.881,0-2.813,0-6.7,0q-3.328,0-6.655,0a1.4,1.4,0,0,0,0,2.794Z" transform="translate(-45.834 0)" fill="#211715"/>
        <path id="パス_238" data-name="パス 238" d="M99.841,171.41q3.4,0,6.8,0a1.4,1.4,0,1,0,0-2.794q-3.4,0-6.8,0a1.4,1.4,0,0,0,0,2.794" transform="translate(-41.14 -70.463)" fill="#211715"/>
        <path id="パス_239" data-name="パス 239" d="M15.8,145.8q-4.25,0-8.5-.017l-2.5-.006a12.642,12.642,0,0,0-2.767.058,2.562,2.562,0,0,0-1.746,1.421,5.884,5.884,0,0,0-.256,2.493Q.021,152.256,0,154.766a6.931,6.931,0,0,0,1.16,4.421,6.055,6.055,0,0,0,3.7,2.374,28.276,28.276,0,0,0,4.962.14c2.607.014,5.216.039,7.823.041a1.4,1.4,0,0,0,0-2.794c-1.868,0-3.735-.019-5.6-.029L7.665,158.9a5.939,5.939,0,0,1-3.415-.547A3.269,3.269,0,0,1,2.8,156.007a40.375,40.375,0,0,1,.012-4.733q.006-.972.01-1.944a7.612,7.612,0,0,0,0-.807c-.069-.7-.108.38-.233.038a14.773,14.773,0,0,0,2.207,0l2.5.006q4.25.01,8.5.017A1.4,1.4,0,0,0,15.8,145.8Z" transform="translate(0 -60.898)" fill="#211715"/>
        <path id="パス_240" data-name="パス 240" d="M88.906,110.09a3.215,3.215,0,0,0-1.738-2.831,7.413,7.413,0,0,0-3.344-.345h-3.7a9.874,9.874,0,0,0-3.281.19,3.232,3.232,0,0,0-.68,5.663,5.523,5.523,0,0,0,3.271.531h5.368a6.2,6.2,0,0,0,1.863-.137,3.226,3.226,0,0,0,2.24-3.073,1.165,1.165,0,0,0-2.328,0,.848.848,0,0,1-.757.879,19.524,19.524,0,0,1-2.42,0h-5.19c-.519,0-1.009-.1-1.12-.7a.863.863,0,0,1,.515-.978,2.746,2.746,0,0,1,.935-.058h6.9c.577,0,1.124.166,1.139.848a1.165,1.165,0,0,0,2.328.009" transform="translate(-31.252 -44.662)" fill="#211715"/>
        <path id="パス_241" data-name="パス 241" d="M123.2,153.6q4.222,0,8.444,0l16.008.008,5.673.01,17.3.008q5.515,0,11.029,0h.7a1.4,1.4,0,0,0,0-2.794h-9.94l-16.777-.008-5.718-.01-16.618-.009q-4.811,0-9.622,0H123.2a1.4,1.4,0,0,0,0,2.794Z" transform="translate(-50.92 -63.022)" fill="#211715"/>
        <path id="パス_242" data-name="パス 242" d="M123.2,19.739h14.485l13.814,0,3.419,0,18.118,0,18.285.005,17.354,0,15.09,0h14.2a1.4,1.4,0,0,0,0-2.794H212.642l-16.914,0-18.231,0-18.22-.005-3.9,0-14.658,0H123.2a1.4,1.4,0,0,0,0,2.794Z" transform="translate(-50.921 -7.083)" fill="#211715"/>
        <path id="パス_243" data-name="パス 243" d="M293.5,153.594c6.859,0,8.768.034,15.626.034a1.4,1.4,0,0,0,0-2.794c-6.859,0-8.768-.033-15.626-.034a1.4,1.4,0,0,0,0,2.794" transform="translate(-122.091 -63.02)" fill="#211715"/>
        <path id="パス_244" data-name="パス 244" d="M4.675,124.709c.917,0,1.833.013,2.749.024l1.54.019a1.524,1.524,0,0,1,.807.1c.441.291.318.9.318,1.4v10.669a1.4,1.4,0,0,0,2.794,0v-9.6c0-1.823.116-3.8-1.707-4.865a6.647,6.647,0,0,0-3.4-.506c-1.034-.013-2.069-.027-3.1-.029a1.4,1.4,0,0,0,0,2.794" transform="translate(-1.39 -50.948)" fill="#211715"/>
        <path id="パス_245" data-name="パス 245" d="M47.318,32.954A4.574,4.574,0,0,1,49.6,30.283c.873-.552,1.749-1.09,2.63-1.625,2.325-1.41,4.67-2.787,7.021-4.153q7.764-4.512,15.626-8.851a12.937,12.937,0,0,1,4.094-1.6,9.165,9.165,0,0,1,1.579-.185c.51-.006,1.021.016,1.53.05a1.4,1.4,0,1,0,0-2.794A14.154,14.154,0,0,0,74.85,12.5c-2.739,1.339-5.374,2.95-8.028,4.449-5.322,3-10.63,6.042-15.858,9.207-2.522,1.527-5.53,2.962-6.34,6.054a1.4,1.4,0,0,0,2.695.743Z" transform="translate(-18.627 -4.633)" fill="#211715"/>
      </g>
    </g>
    <g id="グループ_38" data-name="グループ 38" transform="translate(475 896.063)">
      <g id="グループ_37" data-name="グループ 37" transform="translate(4 19)" clip-path="url(#clip-path-2)">
        <ellipse id="楕円形_3" data-name="楕円形 3" cx="35.5" cy="35" rx="35.5" ry="35" transform="translate(0 0.937)" fill="#fff"/>
        <path id="パス_253" data-name="パス 253" d="M34.969,69.937A34.969,34.969,0,1,1,69.937,34.969,35.006,35.006,0,0,1,34.969,69.937m0-66.5A31.532,31.532,0,1,0,66.5,34.969,31.567,31.567,0,0,0,34.969,3.436" fill="#384045"/>
        <path id="パス_254" data-name="パス 254" d="M131.214,126.091a5.123,5.123,0,1,1-5.123-5.123,5.12,5.12,0,0,1,5.123,5.123" transform="translate(-91.122 -91.122)" fill="#384045"/>
        <path id="パス_255" data-name="パス 255" d="M43.039,67.375a19.234,19.234,0,0,1,4.874-5.668L44.82,56.754a28.733,28.733,0,0,0-5.644,7.264Z" transform="translate(-29.51 -42.751)" fill="#d7838f"/>
        <path id="パス_256" data-name="パス 256" d="M66.247,35.879l3.2,5.115a18.671,18.671,0,0,1,8.6-2.864l-1.667-7.84a28.7,28.7,0,0,0-10.128,5.589" transform="translate(-49.902 -22.817)" fill="#d7838f"/>
        <path id="パス_257" data-name="パス 257" d="M114.417,34.173c.252-.008.5-.036.758-.036a22.939,22.939,0,0,1,10.171,2.157l2.326-10.073a28.094,28.094,0,0,0-14.982-.166Z" transform="translate(-84.887 -18.922)" fill="#d7838f"/>
        <path id="パス_258" data-name="パス 258" d="M29.065,132.092l-3.8-1.695c-.091.92-.142,1.853-.142,2.8,0,1.122.075,2.295.186,3.46l3.034.533a49.272,49.272,0,0,1,.727-5.1" transform="translate(-18.922 -98.226)" fill="#d7838f"/>
        <path id="パス_259" data-name="パス 259" d="M30.441,101.344a30.992,30.992,0,0,1,2.374-6.66l-3.8-3.3a28.562,28.562,0,0,0-2.5,8.208Z" transform="translate(-19.97 -68.836)" fill="#d7838f"/>
        <path id="パス_260" data-name="パス 260" d="M29.094,165.818c.016-1.316.071-2.579.158-3.8l-2.741-.486a18.425,18.425,0,0,0,1.256,4.839Z" transform="translate(-19.97 -121.681)" fill="#d7838f"/>
        <path id="パス_261" data-name="パス 261" d="M169.108,41.528a17.236,17.236,0,0,1,7.549,9.235l8.638-9.59a28.779,28.779,0,0,0-13.8-9.954Z" transform="translate(-127.385 -23.517)" fill="#d7838f"/>
        <path id="パス_262" data-name="パス 262" d="M198.006,99.75l12.051,5.036A28.795,28.795,0,0,0,207.9,76.125l-9.018,10.009a20.793,20.793,0,0,1-.881,13.615" transform="translate(-149.153 -57.343)" fill="#d7838f"/>
        <path id="パス_263" data-name="パス 263" d="M163.022,126.524l-19.607,1.11-1.683,2.643,2.488,1.908Z" transform="translate(-106.764 -95.307)" fill="#384045"/>
      </g>
    </g>
  </g>
</svg>
