<svg xmlns="http://www.w3.org/2000/svg" xmlns:xlink="http://www.w3.org/1999/xlink" width="130" height="130" viewBox="0 0 130 130">
  <defs>
    <clipPath id="clip-path">
      <circle id="楕円形_6" data-name="楕円形 6" cx="65" cy="65" r="65" transform="translate(390 1425)" fill="#fff"/>
    </clipPath>
    <clipPath id="clip-path-2">
      <rect id="長方形_37" data-name="長方形 37" width="163.5" height="193.899" fill="none"/>
    </clipPath>
  </defs>
  <g id="woman" transform="translate(-390 -1425)" clip-path="url(#clip-path)">
    <circle id="楕円形_5" data-name="楕円形 5" cx="65" cy="65" r="65" transform="translate(390 1425)" fill="#fff"/>
    <g id="グループ_42" data-name="グループ 42" transform="translate(374.5 1437.358)">
      <g id="グループ_41" data-name="グループ 41" clip-path="url(#clip-path-2)">
        <path id="パス_319" data-name="パス 319" d="M87.636,56.724a3.682,3.682,0,0,0-3.4-1.873,3.558,3.558,0,0,0-3.206,1.781c-1.094,1.9-1.062,5.4-.341,7.573a11.719,11.719,0,0,0,3.383,5.582,4.122,4.122,0,0,0,3.526.9,29.528,29.528,0,0,0,5.5,10.563,22.333,22.333,0,0,0,7.113,6.007V89.84A5.821,5.821,0,0,1,99.96,91.9a5.009,5.009,0,0,1-1.5,2.189,16.87,16.87,0,0,1-5.032,2.546l-2.442.961c5.1,3.433,13.479,5.358,20.562,5.519,7.185-.162,15.661-2.139,20.755-5.655l-2.091-.825a16.885,16.885,0,0,1-5.032-2.546,5.014,5.014,0,0,1-1.5-2.189,5.823,5.823,0,0,1-.248-2.061V86.687a20.339,20.339,0,0,0,6.427-5.432,29.506,29.506,0,0,0,5.452-10.4A4.09,4.09,0,0,0,138.936,70a11.717,11.717,0,0,0,3.426-5.556c.738-2.165.8-5.67-.282-7.576a3.559,3.559,0,0,0-3.192-1.805,3.64,3.64,0,0,0-3.706,2.53,13.052,13.052,0,0,1-1.26-.6c-3.817-1.314-7.262-5.175-9.57-9.534a53.03,53.03,0,0,1-3.056-9.231,32.857,32.857,0,0,1-16.361,11.9,2.359,2.359,0,0,1-1.372.063c-.515-.243-.659-.478-.615-1.156.11-1.686.785-4.472.977-6.1-4.557,4.476-9.539,9.2-14.161,12.983l-2.129.8Z" transform="translate(-30.516 -14.553)" fill="#fff"/>
        <path id="パス_321" data-name="パス 321" d="M81.462,85.588l1.734.01c1.475-.539,3.091-1.114,4.835-1.716.039.027.082.051.121.077L90.59,83a16.884,16.884,0,0,0,5.032-2.546,5.014,5.014,0,0,0,1.5-2.189,5.824,5.824,0,0,0,.248-2.061V73.626a22.343,22.343,0,0,1-7.113-6.007,29.533,29.533,0,0,1-5.5-10.563,4.122,4.122,0,0,1-3.526-.9,11.727,11.727,0,0,1-3.383-5.582c-.722-2.171-.754-5.676.341-7.573A3.559,3.559,0,0,1,81.4,41.215a3.682,3.682,0,0,1,3.4,1.873l2.129-.8c4.622-3.782,9.6-8.506,14.161-12.983-.193,1.63-.868,4.416-.977,6.1-.044.678.1.912.615,1.156A2.359,2.359,0,0,0,102.1,36.5a32.857,32.857,0,0,0,16.361-11.9,53.029,53.029,0,0,0,3.056,9.231c2.308,4.359,5.753,8.22,9.57,9.534a12.982,12.982,0,0,0,1.26.6,3.639,3.639,0,0,1,3.706-2.53,3.558,3.558,0,0,1,3.192,1.805c1.08,1.906,1.02,5.41.282,7.576a11.717,11.717,0,0,1-3.426,5.556,4.09,4.09,0,0,1-3.635.848,29.516,29.516,0,0,1-5.452,10.4,20.33,20.33,0,0,1-6.427,5.432V76.2a5.822,5.822,0,0,0,.248,2.061,5.009,5.009,0,0,0,1.5,2.189A16.87,16.87,0,0,0,127.374,83l2.088.824c.025-.018.054-.034.079-.052,1.7.608,3.52,1.34,5.313,2.118l1.156.007a10.225,10.225,0,0,0,8.938-6.887c1.344-4.156-.322-9.551-1.561-13.738a80.767,80.767,0,0,1-3.1-22.068c.142-4.339-.161-9.483-.315-11.636-.535-7.467-3.9-15.8-8.733-20.438-1.926-1.845-2.593-2.784-4.465-3.88l-2.167-1.268-2.152-.873a35.226,35.226,0,0,0-14.087-2.7A34.512,34.512,0,0,0,86.194,11.08C79.836,17.168,75.8,28.287,76.31,43.62c0,10.393-.85,17.887-2.045,22.148A50.474,50.474,0,0,0,72.729,76.5c-.025,3.58,3.289,8.306,8.733,9.086Z" transform="translate(-27.683 -0.918)" fill="#e198a1"/>
        <path id="パス_346" data-name="パス 346" d="M176.779,67.388a85.311,85.311,0,0,0,2.591,20.465c.79,3,1.827,5.937,2.329,9.009.428,2.621.4,5.4-1.054,7.707a8.818,8.818,0,0,1-6.66,4.025,1.524,1.524,0,0,0-1.486,1.486,1.5,1.5,0,0,0,1.486,1.486,11.969,11.969,0,0,0,7.771-3.625,11.747,11.747,0,0,0,3.151-8.249,34.83,34.83,0,0,0-1.836-9.7,79.481,79.481,0,0,1-2.38-10.406,88.746,88.746,0,0,1-.94-12.2,1.487,1.487,0,0,0-2.973,0Z" transform="translate(-65.658 -25.103)" fill="#211715"/>
        <path id="パス_347" data-name="パス 347" d="M179.441,65.258c-.006.434-.019.867-.031,1.3a1.528,1.528,0,0,0,1.486,1.486l.4-.053a1.484,1.484,0,0,0,.656-.382l.232-.3a1.484,1.484,0,0,0,.2-.75c.012-.434.025-.867.031-1.3a1.528,1.528,0,0,0-1.486-1.486l-.4.053a1.484,1.484,0,0,0-.656.382l-.232.3A1.484,1.484,0,0,0,179.441,65.258Z" transform="translate(-68.288 -24.273)" fill="#211715"/>
        <path id="パス_348" data-name="パス 348" d="M79.061,66.932q-.027-.892-.037-1.784a1.54,1.54,0,0,0-.435-1.051,1.655,1.655,0,0,0-1.051-.435,1.5,1.5,0,0,0-1.051.435,1.533,1.533,0,0,0-.435,1.051q.009.892.037,1.784a1.55,1.55,0,0,0,.435,1.051,1.655,1.655,0,0,0,1.051.435,1.487,1.487,0,0,0,1.486-1.486" transform="translate(-28.947 -24.231)" fill="#211715"/>
        <path id="パス_349" data-name="パス 349" d="M80.933,108.593a9.2,9.2,0,0,1-6.649-4.361,6.86,6.86,0,0,1-.987-2.982,27.246,27.246,0,0,1,.308-4.478c.336-2.762,1.065-5.4,1.639-8.106a67.765,67.765,0,0,0,1.134-8.119c.367-4.151.488-8.322.491-12.488a1.487,1.487,0,0,0-2.973,0c-.006,6.642-.145,13.473-1.552,19.967-.262,1.21-.621,2.4-.88,3.607-.379,1.776-.652,3.577-.863,5.38a22.024,22.024,0,0,0-.258,4.552,10.076,10.076,0,0,0,1.233,3.927,11.982,11.982,0,0,0,8.563,5.969,1.534,1.534,0,0,0,1.828-1.038,1.5,1.5,0,0,0-1.038-1.828Z" transform="translate(-26.759 -25.358)" fill="#211715"/>
        <path id="パス_350" data-name="パス 350" d="M89.044,87.06a31.414,31.414,0,0,0,6.619,13.432c3.185,3.786,7.315,6.82,12.3,7.588a1.534,1.534,0,0,0,1.828-1.038,1.5,1.5,0,0,0-1.038-1.828c-4.54-.7-8.083-3.375-10.985-6.824A28.285,28.285,0,0,1,91.91,86.27c-.412-1.867-3.28-1.077-2.867.79Z" transform="translate(-33.877 -32.431)" fill="#211715"/>
        <path id="パス_351" data-name="パス 351" d="M157.859,86.27a28.52,28.52,0,0,1-5.237,11.362,21.349,21.349,0,0,1-4.549,4.476,19.883,19.883,0,0,1-5.226,2.516c-1.811.591-1.036,3.464.79,2.867a22.683,22.683,0,0,0,5.936-2.816,24.249,24.249,0,0,0,5.15-4.941,31.378,31.378,0,0,0,6-12.674c.412-1.864-2.453-2.661-2.867-.79Z" transform="translate(-53.979 -32.431)" fill="#211715"/>
        <path id="パス_352" data-name="パス 352" d="M170.358,66.557a2.53,2.53,0,0,1,2.307-.5,2.258,2.258,0,0,1,.876.409c-.127-.1.176.185.173.181.3.321-.119-.208.1.116a7.212,7.212,0,0,1,.751,4.605,11.716,11.716,0,0,1-1.382,4.381c-.717,1.351-2.124,3.423-3.923,3.18a1.538,1.538,0,0,0-1.828,1.038,1.5,1.5,0,0,0,1.038,1.828c4.637.626,7.318-3.783,8.55-7.623,1.008-3.143,1.069-8.09-1.915-10.225a5.6,5.6,0,0,0-6.853.5c-1.43,1.277.678,3.374,2.1,2.1Z" transform="translate(-63.714 -23.982)" fill="#211715"/>
        <path id="パス_353" data-name="パス 353" d="M87.136,64.135a5.638,5.638,0,0,0-6.234-.906,5.507,5.507,0,0,0-2.8,3.778,14.161,14.161,0,0,0,2.007,10.845c1.386,2.112,3.6,4.026,6.294,3.684a1.534,1.534,0,0,0,1.486-1.486,1.5,1.5,0,0,0-1.486-1.486c-1.993.253-3.319-1.386-4.186-2.98a11.751,11.751,0,0,1-1.434-4.472,7.524,7.524,0,0,1,.749-4.662q.086-.124-.045.048c.043-.055.089-.107.137-.157s.337-.316.224-.23a2.265,2.265,0,0,1,.881-.4,2.522,2.522,0,0,1,2.3.526c1.414,1.283,3.523-.813,2.1-2.1Z" transform="translate(-29.594 -23.855)" fill="#211715"/>
        <path id="パス_354" data-name="パス 354" d="M96.028,134.364c4.826,3.2,10.775,4.636,16.449,5.346a43.682,43.682,0,0,0,17.7-1.619,30.808,30.808,0,0,0,8.594-3.838c1.576-1.067.09-3.643-1.5-2.567-4.4,2.977-9.893,4.393-15.108,5.052a41.421,41.421,0,0,1-16.677-1.446,28.521,28.521,0,0,1-7.956-3.5c-1.6-1.06-3.09,1.514-1.5,2.567Z" transform="translate(-36.292 -50.025)" fill="#211715"/>
        <path id="パス_355" data-name="パス 355" d="M104.51,116.851c0,.635-.012,1.27-.05,1.9-.024.408-.048.817-.093,1.223a2.764,2.764,0,0,1-.087.469q-.04.171-.094.337c-.071.182-.081.219-.031.109a5.2,5.2,0,0,1-.527.964q-.154.218-.051.07-.1.12-.212.232a4.537,4.537,0,0,1-.357.323q.114-.082-.1.079c-.09.066-.18.129-.272.193q-.269.185-.551.353c-.322.193-.653.37-.99.535-1.517.741-3.39,1.371-5.108,2.047a1.531,1.531,0,0,0-1.038,1.828,1.5,1.5,0,0,0,1.828,1.038,60.005,60.005,0,0,0,6.248-2.565,10.868,10.868,0,0,0,2.334-1.618,6.746,6.746,0,0,0,1.582-2.482,14.192,14.192,0,0,0,.549-5.04,1.486,1.486,0,1,0-2.973,0Z" transform="translate(-36.117 -43.91)" fill="#211715"/>
        <path id="パス_356" data-name="パス 356" d="M147.29,116.852a14.192,14.192,0,0,0,.549,5.04,6.739,6.739,0,0,0,1.582,2.482,10.867,10.867,0,0,0,2.334,1.618A60.006,60.006,0,0,0,158,128.558a1.5,1.5,0,0,0,1.828-1.038,1.521,1.521,0,0,0-1.038-1.828c-1.713-.674-3.6-1.31-5.108-2.047-.338-.165-.669-.342-.99-.535q-.281-.168-.551-.353c-.092-.063-.183-.127-.272-.193-.146-.107-.181-.133-.1-.079a4.2,4.2,0,0,1-.357-.323q-.111-.111-.212-.232c.068.1.051.076-.051-.07a5.091,5.091,0,0,1-.527-.964c.05.11.04.073-.031-.109-.036-.111-.067-.224-.094-.337a2.766,2.766,0,0,1-.087-.469c-.045-.406-.069-.815-.093-1.223-.038-.635-.046-1.269-.05-1.9a1.486,1.486,0,1,0-2.973,0Z" transform="translate(-56.063 -43.912)" fill="#211715"/>
        <path id="パス_357" data-name="パス 357" d="M191.478,203.87c5.735-1.687,9.091-6.964,9.214-12.8.144-6.821-1.927-13.6-3.582-20.148-1.623-6.42-3.307-12.906-6.066-18.948a30.152,30.152,0,0,0-12.105-13.555,113.952,113.952,0,0,0-17.23-7.873,1.5,1.5,0,0,0-1.828,1.038,1.521,1.521,0,0,0,1.038,1.828,127.906,127.906,0,0,1,14.764,6.578,27.665,27.665,0,0,1,11.624,11.1c2.871,5.384,4.517,11.369,6.066,17.24.871,3.3,1.688,6.622,2.5,9.94a61.142,61.142,0,0,1,1.622,8.692c.3,3.114.491,6.345-.983,9.214A9.475,9.475,0,0,1,190.687,201c-1.831.539-1.052,3.408.79,2.867Z" transform="translate(-60.834 -49.661)" fill="#211715"/>
        <path id="パス_358" data-name="パス 358" d="M46.68,200.945a8.182,8.182,0,0,1-3.089-1.5,6.192,6.192,0,0,1-1.95-2.454c-1.079-2.287-.886-5.4-.634-7.989a118.888,118.888,0,0,1,3.763-18.619c.777-2.957,1.6-5.9,2.456-8.837.8-2.738,1.571-5.464,2.636-8.113a38.637,38.637,0,0,1,4.112-8.053,18.594,18.594,0,0,1,6.456-5.459c5.116-2.789,10.889-4.429,16.471-6.5a1.527,1.527,0,0,0,1.038-1.828,1.5,1.5,0,0,0-1.828-1.038c-5.277,1.953-10.742,3.589-15.8,6.078a23.6,23.6,0,0,0-7.363,5.3,30.907,30.907,0,0,0-4.989,8.417,127.02,127.02,0,0,0-5.675,17.824,139.3,139.3,0,0,0-4.119,19.664c-.411,3.49-.648,7.222.844,10.5a8.934,8.934,0,0,0,2.485,3.208,10.42,10.42,0,0,0,4.4,2.262,1.529,1.529,0,0,0,1.828-1.038,1.5,1.5,0,0,0-1.038-1.828Z" transform="translate(-14.407 -49.668)" fill="#211715"/>
        <path id="パス_359" data-name="パス 359" d="M122.821,102.081a10.187,10.187,0,0,0,4.937,1.156,8.044,8.044,0,0,0,5.028-1.512,1.489,1.489,0,0,0,0-2.1,1.532,1.532,0,0,0-2.1,0c.46-.362.154-.119.035-.042-.1.063-.2.12-.3.174-.126.066-.49.177-.053.041-.139.043-.273.106-.411.151a7.854,7.854,0,0,1-1.15.264c.217-.036.105-.014-.047,0-.113.011-.226.021-.339.028-.272.018-.545.025-.818.023q-.366,0-.732-.027c-.112-.007-.224-.017-.335-.028-.061-.006-.468-.083-.1-.01-.362-.072-.72-.134-1.075-.24-.151-.045-.3-.1-.446-.151-.357-.124.274.136-.049-.019-.184-.088-.366-.179-.546-.275a1.487,1.487,0,1,0-1.5,2.567Z" transform="translate(-46.474 -37.76)" fill="#211715"/>
        <path id="パス_360" data-name="パス 360" d="M129.324,83.989a22.966,22.966,0,0,1,.532,2.456l-.053-.4a1.512,1.512,0,0,1,.009.339l.053-.4a.805.805,0,0,1-.037.152l.15-.355a.6.6,0,0,1-.053.1l.232-.3a.534.534,0,0,1-.079.079l.3-.232a1.594,1.594,0,0,1-.193.1l.355-.15a1.381,1.381,0,0,1-.325.1l.4-.053a1.325,1.325,0,0,1-.305,0l.4.053c-.115-.016-.228-.045-.343-.06a1.129,1.129,0,0,0-.593-.027,1.1,1.1,0,0,0-.552.177,1.486,1.486,0,0,0-.533,2.033,1.423,1.423,0,0,0,.888.683c.283.038.557.11.845.123a2.727,2.727,0,0,0,1.273-.308,1.894,1.894,0,0,0,1.032-1.242,3.037,3.037,0,0,0-.012-1.312c-.133-.791-.314-1.575-.515-2.351a1.487,1.487,0,0,0-2.866.79Z" transform="translate(-48.903 -31.252)" fill="#211715"/>
        <path id="パス_361" data-name="パス 361" d="M109.334,72.589c-.406,1.333-.142,4.4,2.362,4.66,3.308-.02,3.484-3.727,2.37-5.47-.912-1.427-3.593-2.02-4.732.81" transform="translate(-41.556 -26.867)" fill="#211715"/>
        <path id="パス_362" data-name="パス 362" d="M148.915,72.589c.407,1.333.142,4.4-2.361,4.66-3.308-.02-3.485-3.727-2.371-5.47.912-1.427,3.593-2.02,4.732.81" transform="translate(-54.646 -26.867)" fill="#211715"/>
        <path id="パス_365" data-name="パス 365" d="M158.341,10.583a12.945,12.945,0,0,1,2.515,2.012c.933.928,1.906,1.827,2.779,2.813a26.57,26.57,0,0,1,4.014,6.319,37.753,37.753,0,0,1,3.3,14.215c.17,3.1.264,6.209.169,9.313-.059,1.914,2.914,1.912,2.973,0,.09-2.925.009-5.854-.141-8.775a51.308,51.308,0,0,0-.787-7.366,34.74,34.74,0,0,0-6.85-15.126,44.947,44.947,0,0,0-3.117-3.255,17.222,17.222,0,0,0-3.355-2.717,1.488,1.488,0,0,0-1.5,2.567Z" transform="translate(-59.998 -2.968)" fill="#211715"/>
        <path id="パス_366" data-name="パス 366" d="M124.115,2.758A37.779,37.779,0,0,0,108.538.028a35.89,35.89,0,0,0-15.933,4.63,28.181,28.181,0,0,0-9.166,7.881,35.626,35.626,0,0,0-5.426,11.694A62.309,62.309,0,0,0,76.087,42.7c.06,1.908,3.033,1.917,2.973,0-.291-9.276.839-19.3,5.984-27.268a23.814,23.814,0,0,1,7.488-7.281A33.417,33.417,0,0,1,106.516,3.15a35.018,35.018,0,0,1,16.808,2.476,1.5,1.5,0,0,0,1.828-1.038,1.523,1.523,0,0,0-1.038-1.828Z" transform="translate(-28.945 0)" fill="#211715"/>
        <path id="パス_367" data-name="パス 367" d="M144.463,38.68c1.1,4.141,2.294,8.228,4.741,11.793,2.331,3.4,5.533,6.66,9.657,7.683,1.857.461,2.649-2.406.79-2.867-3.527-.875-6.239-3.817-8.171-6.748-2.139-3.247-3.165-6.925-4.151-10.652a1.488,1.488,0,0,0-2.867.79Z" transform="translate(-54.965 -14.021)" fill="#211715"/>
        <path id="パス_368" data-name="パス 368" d="M124.992,36.578a32.074,32.074,0,0,1-10.448,9.066,29.106,29.106,0,0,1-3.167,1.483c-.534.209-1.073.411-1.619.587-.045.015-.753.147-.767.164.091-.105.548.475.4.406.035.126.045.076.028-.152.008-.126.019-.251.032-.377.022-.222.053-.442.087-.663.083-.548.185-1.092.286-1.636.211-1.139.429-2.275.573-3.425.168-1.342-1.7-1.873-2.538-1.051-4.568,4.485-9.208,8.92-14.161,12.983a1.5,1.5,0,0,0,0,2.1,1.52,1.52,0,0,0,2.1,0c4.953-4.062,9.592-8.5,14.161-12.983l-2.538-1.051c-.234,1.863-.811,3.941-.964,5.917a2.524,2.524,0,0,0,1.258,2.583c1.122.621,2.414.209,3.53-.192a34.417,34.417,0,0,0,11.273-6.688,37.061,37.061,0,0,0,5.039-5.573,1.5,1.5,0,0,0-.533-2.034,1.523,1.523,0,0,0-2.034.533Z" transform="translate(-35.499 -13.642)" fill="#211715"/>
      </g>
    </g>
  </g>
</svg>
