<svg xmlns="http://www.w3.org/2000/svg" xmlns:xlink="http://www.w3.org/1999/xlink" width="80" height="80" viewBox="0 0 80 80">
  <defs>
    <clipPath id="clip-path">
      <circle id="楕円形_6" data-name="楕円形 6" cx="40" cy="40" r="40" transform="translate(390 1425)" fill="#fff"/>
    </clipPath>
    <clipPath id="clip-path-2">
      <rect id="長方形_36" data-name="長方形 36" width="107.911" height="124.529" fill="none"/>
    </clipPath>
  </defs>
  <g id="men" transform="translate(-390 -1425)" clip-path="url(#clip-path)">
    <g id="グループ_40" data-name="グループ 40" transform="translate(376.133 1425)">
      <circle id="楕円形_5" data-name="楕円形 5" cx="40" cy="40" r="40" transform="translate(13.867 0)" fill="#fff"/>
      <g id="グループ_39" data-name="グループ 39" transform="translate(0 7.376)" clip-path="url(#clip-path-2)">
        <path id="パス_266" data-name="パス 266" d="M120.542,42.241a2.48,2.48,0,0,1,1.8-.659,2.312,2.312,0,0,1,2.074,1.173,7.031,7.031,0,0,1,.184,4.922,7.611,7.611,0,0,1-2.226,3.609,2.654,2.654,0,0,1-2.361.551,19.178,19.178,0,0,1-3.542,6.759,13.212,13.212,0,0,1-4.175,3.529c0,.152,0,.31,0,.475a3.78,3.78,0,0,0,.161,1.339,3.251,3.251,0,0,0,.977,1.422,10.956,10.956,0,0,0,3.269,1.654l1.048.414c-2.822,2.262-7.849,4.072-13.085,4.087-5.2-.015-10.2-1.8-13.027-4.042l1.167-.459a10.965,10.965,0,0,0,3.269-1.654,3.249,3.249,0,0,0,.977-1.422,3.778,3.778,0,0,0,.162-1.339s0-.036,0-.1A14.508,14.508,0,0,1,92.6,58.6a19.181,19.181,0,0,1-3.572-6.862,2.678,2.678,0,0,1-2.29-.589,7.613,7.613,0,0,1-2.2-3.627,7.034,7.034,0,0,1,.221-4.92,2.311,2.311,0,0,1,2.083-1.157,2.481,2.481,0,0,1,1.8.673s-7.015-16.723,16.749-16.723,15.15,16.848,15.15,16.848Z" transform="translate(-51.037 -15.391)" fill="#fff"/>
        <path id="パス_271" data-name="パス 271" d="M119.143,27.418a17.637,17.637,0,0,0-4.462-5.739,10.217,10.217,0,0,0-2.919-1.852,11.1,11.1,0,0,0-2.736-.568l-.434.175c-2.137.908-5.151,2.816-6.842,3.764a.58.58,0,0,1-.826-.627,3.1,3.1,0,0,0-.073-1.121c-.112-.468-.47-.667-.747-.52-2.369,1.254-5.746,4.495-7.659,6.646l-2.537.717a2.482,2.482,0,0,0-1.8-.673,2.958,2.958,0,0,0-.873.151c-2.22-7.113-.428-14.569,4.381-18.793-.245-.319-.428-.554-.428-.554,2.374-3.028,7.739-6.28,15.006-6.034,6.354.279,10.54,2.466,12.809,6.528,5.857,3.413,7.111,12.15,5.512,18.886a2.882,2.882,0,0,0-.9-.171,2.481,2.481,0,0,0-1.805.659l-2.542-.579c-.038-.1-.079-.2-.122-.295Z" transform="translate(-52.303 -1.441)" fill="#56bec0"/>
        <path id="パス_275" data-name="パス 275" d="M163.375,129.966c1.689.7,3.427,1.278,5.13,1.936,2.15.828,4.3,1.676,6.367,2.687a19.873,19.873,0,0,1,5.1,3.372,15.729,15.729,0,0,1,3.282,4.393,57.153,57.153,0,0,1,3.634,10.234c.611,2.18,1.2,4.367,1.811,6.549a37.485,37.485,0,0,1,1.193,5.977c.242,2.188.428,4.42-.619,6.438a6.592,6.592,0,0,1-3.962,3.364.947.947,0,0,0,.5,1.824,8.97,8.97,0,0,0,6.172-8.8c-.051-4.735-1.449-9.249-2.694-13.768a79.429,79.429,0,0,0-3.707-11.285A19.749,19.749,0,0,0,182.607,138a18.707,18.707,0,0,0-5-4.118,57.111,57.111,0,0,0-7.384-3.332c-2.1-.825-4.255-1.543-6.343-2.406a.951.951,0,0,0-1.163.66.968.968,0,0,0,.66,1.162Z" transform="translate(-98.604 -77.64)" fill="#211715"/>
        <path id="パス_276" data-name="パス 276" d="M64.781,128.156c-2.354.828-4.728,1.63-7.049,2.547a47.841,47.841,0,0,0-6.218,2.843,18.648,18.648,0,0,0-5.266,4.543,16.074,16.074,0,0,0-2.335,4.023,104.9,104.9,0,0,0-3.6,10.878,82.311,82.311,0,0,0-2.868,12.306,10.925,10.925,0,0,0,.943,7.051,10.22,10.22,0,0,0,4.823,4.2.976.976,0,0,0,1.294-.34.953.953,0,0,0-.339-1.294,8.693,8.693,0,0,1-3.94-3.181,8.135,8.135,0,0,1-1.007-5.383,66.522,66.522,0,0,1,2.611-11.781c1.032-3.652,2.125-7.307,3.475-10.857a15.376,15.376,0,0,1,1.512-3.208,16.852,16.852,0,0,1,4.564-4.641,33.36,33.36,0,0,1,6.31-3.116c2.495-1.011,5.056-1.873,7.595-2.765a.969.969,0,0,0,.66-1.162.953.953,0,0,0-1.163-.66Z" transform="translate(-22.59 -77.652)" fill="#211715"/>
        <path id="パス_280" data-name="パス 280" d="M153.134,117.194a8.284,8.284,0,0,0,.106,1.766,4.022,4.022,0,0,0,.688,1.461,6.437,6.437,0,0,0,2.655,1.917c1.105.485,2.247.894,3.37,1.337a.948.948,0,0,0,1.162-.66.972.972,0,0,0-.66-1.163c-.926-.365-1.858-.716-2.781-1.089q-.158-.066-.047-.019l-.134-.059c-.1-.046-.206-.093-.307-.142-.2-.1-.4-.2-.594-.312a4.01,4.01,0,0,1-.993-.735,1.623,1.623,0,0,1-.3-.43c-.016-.031-.165-.334-.113-.215a2,2,0,0,1-.163-.873c-.006-.261,0-.523,0-.784a.945.945,0,1,0-1.891,0Z" transform="translate(-92.817 -70.461)" fill="#211715"/>
        <path id="パス_281" data-name="パス 281" d="M105.413,118.142a2.8,2.8,0,0,1-.165,1.283c.058-.135-.055.1-.068.129-.059.114-.128.221-.194.331-.127.213.085-.071-.083.113-.088.1-.18.186-.275.275a5.91,5.91,0,0,1-.951.626,9.678,9.678,0,0,1-1.1.514c-.864.343-1.734.672-2.6,1.013a.974.974,0,0,0-.66,1.163.952.952,0,0,0,1.163.66c1.064-.419,2.142-.811,3.193-1.26a7.056,7.056,0,0,0,2.566-1.654,4.711,4.711,0,0,0,.868-1.5,4.945,4.945,0,0,0,.2-1.693.945.945,0,0,0-1.891,0Z" transform="translate(-60.178 -71.034)" fill="#211715"/>
        <path id="パス_282" data-name="パス 282" d="M97.955,7.653A15.767,15.767,0,0,1,106.487,2.5a20.851,20.851,0,0,1,6.812-.542,18.186,18.186,0,0,1,5.66,1.28,10.927,10.927,0,0,1,4.419,3.326.977.977,0,0,0,1.294.339.952.952,0,0,0,.339-1.293,12.745,12.745,0,0,0-4.331-3.644A18.681,18.681,0,0,0,114.427.18a21.813,21.813,0,0,0-13.38,2.472,15.137,15.137,0,0,0-4.429,3.664.976.976,0,0,0,0,1.337.952.952,0,0,0,1.337,0Z" transform="translate(-58.402 0)" fill="#211715"/>
        <path id="パス_283" data-name="パス 283" d="M127.542,103.793a6.591,6.591,0,0,0,3.2.749,5.209,5.209,0,0,0,3.253-.977.947.947,0,0,0,0-1.337.973.973,0,0,0-1.337,0c.292-.23.094-.073.018-.024s-.128.077-.193.113c-.082.043-.312.11-.039.029-.091.027-.178.069-.268.1a5.069,5.069,0,0,1-.747.173c.14-.024.056-.007-.036,0-.074.007-.146.013-.221.018-.176.012-.354.016-.531.014-.159,0-.317-.006-.475-.017-.073-.005-.146-.011-.217-.018-.036,0-.3-.052-.07-.006-.235-.047-.468-.087-.7-.157-.1-.029-.193-.065-.289-.1-.23-.08.17.085-.037-.014-.12-.057-.238-.117-.355-.179a.946.946,0,1,0-.954,1.633Z" transform="translate(-77.028 -61.801)" fill="#211715"/>
        <path id="パス_284" data-name="パス 284" d="M134.149,85.695a14.884,14.884,0,0,1,.346,1.6l-.035-.251a.922.922,0,0,1,.007.22l.034-.251a.432.432,0,0,1-.024.1l.095-.225a.438.438,0,0,1-.034.063l.148-.191a.34.34,0,0,1-.052.051l.19-.148a.973.973,0,0,1-.124.067l.226-.1a.9.9,0,0,1-.212.062l.252-.034a.855.855,0,0,1-.2,0l.251.034c-.074-.01-.148-.029-.222-.039a.728.728,0,0,0-.377-.017.7.7,0,0,0-.352.113.944.944,0,0,0-.339,1.293.905.905,0,0,0,.565.435c.182.024.359.07.543.079a1.766,1.766,0,0,0,.816-.2,1.216,1.216,0,0,0,.662-.8,1.981,1.981,0,0,0-.008-.842c-.086-.514-.2-1.023-.335-1.527a.945.945,0,1,0-1.823.5Z" transform="translate(-80.98 -51.217)" fill="#211715"/>
        <path id="パス_285" data-name="パス 285" d="M113.933,73.977c-.264.866-.092,2.857,1.534,3.027,2.148-.014,2.264-2.421,1.54-3.553a1.7,1.7,0,0,0-3.074.526" transform="translate(-68.996 -44.051)" fill="#211715"/>
        <path id="パス_286" data-name="パス 286" d="M152.436,73.977c.264.866.092,2.857-1.534,3.027-2.15-.014-2.264-2.421-1.54-3.553A1.7,1.7,0,0,1,152.436,73.977Z" transform="translate(-90.288 -44.051)" fill="#211715"/>
        <path id="パス_287" data-name="パス 287" d="M93.3,87.955a20.382,20.382,0,0,0,4.344,8.775,13.246,13.246,0,0,0,7.931,4.866.976.976,0,0,0,1.163-.66.953.953,0,0,0-.66-1.163,11.678,11.678,0,0,1-7.1-4.38,18.408,18.408,0,0,1-3.858-7.941C94.86,86.265,93.037,86.768,93.3,87.955Z" transform="translate(-56.535 -52.596)" fill="#211715"/>
        <path id="パス_288" data-name="パス 288" d="M157.647,87.454a18.534,18.534,0,0,1-3.411,7.4,13.979,13.979,0,0,1-2.9,2.867,12.857,12.857,0,0,1-3.456,1.674c-1.151.377-.657,2.2.5,1.824a14.656,14.656,0,0,0,3.906-1.866,15.867,15.867,0,0,0,3.283-3.163,20.358,20.358,0,0,0,3.9-8.231c.262-1.185-1.56-1.691-1.823-.5Z" transform="translate(-89.236 -52.597)" fill="#211715"/>
        <path id="パス_289" data-name="パス 289" d="M175.243,66.366A1.635,1.635,0,0,1,176.6,66a1.563,1.563,0,0,1,.7.273c-.068-.049.319.344.191.176a4.481,4.481,0,0,1,.536,2.961,7.613,7.613,0,0,1-.909,2.953c-.47.886-1.392,2.238-2.572,2.075a.977.977,0,0,0-1.161.661.952.952,0,0,0,.66,1.163c3.01.414,4.768-2.5,5.547-4.994.643-2.059.657-5.279-1.34-6.626a3.619,3.619,0,0,0-4.341.387c-.906.814.434,2.148,1.337,1.337Z" transform="translate(-105.071 -38.846)" fill="#211715"/>
        <path id="パス_290" data-name="パス 290" d="M101.111,131.57a21.486,21.486,0,0,0,10.1,4,24.9,24.9,0,0,0,12.07-1.25,19.058,19.058,0,0,0,5.11-2.752.95.95,0,0,0,0-1.337.968.968,0,0,0-1.337,0,19.735,19.735,0,0,1-9.181,3.5,22.985,22.985,0,0,1-10.925-1.155,16.322,16.322,0,0,1-4.5-2.348.977.977,0,0,0-1.337,0,.952.952,0,0,0,0,1.337" transform="translate(-61.119 -78.775)" fill="#211715"/>
        <path id="パス_291" data-name="パス 291" d="M87.832,64.7a3.635,3.635,0,0,0-3.988-.6,3.506,3.506,0,0,0-1.819,2.366A9.119,9.119,0,0,0,83.3,73.589c.9,1.365,2.326,2.609,4.072,2.383a.977.977,0,0,0,.945-.945.95.95,0,0,0-.945-.945c-1.3.168-2.171-.906-2.737-1.946a7.657,7.657,0,0,1-.943-3.013,4.617,4.617,0,0,1,.535-3c.038-.052.03-.042-.022.031.039-.045.08-.089.122-.131.019-.016.21-.168.119-.1a1.521,1.521,0,0,1,.628-.252,1.642,1.642,0,0,1,1.42.368c.9.818,2.238-.515,1.337-1.337Z" transform="translate(-49.56 -38.645)" fill="#211715"/>
        <path id="パス_304" data-name="パス 304" d="M86.654,36.082a18.053,18.053,0,0,1,1.6-14.736,13.947,13.947,0,0,1,2.637-3.077c.917-.8-.425-2.136-1.337-1.337-4.132,3.623-5.968,9.293-5.618,14.688a22.15,22.15,0,0,0,.9,4.965A.946.946,0,0,0,86.654,36.082Z" transform="translate(-50.847 -10.113)" fill="#211715"/>
        <path id="パス_305" data-name="パス 305" d="M170.3,20.328c3.8,3.081,4.858,8.376,4.633,13.038a22.871,22.871,0,0,1-.575,4.093c-.277,1.184,1.545,1.688,1.824.5,1.2-5.112.975-11.061-1.746-15.676a12.223,12.223,0,0,0-2.8-3.3.974.974,0,0,0-1.337,0,.951.951,0,0,0,0,1.337Z" transform="translate(-103.055 -11.349)" fill="#211715"/>
        <path id="パス_306" data-name="パス 306" d="M149.035,46.071a12.709,12.709,0,0,1,4.069,2.984,14.3,14.3,0,0,1,3,4.337.975.975,0,0,0,1.163.66.953.953,0,0,0,.661-1.163,16.408,16.408,0,0,0-3.393-5.07,14.207,14.207,0,0,0-4.547-3.381.976.976,0,0,0-1.293.339.952.952,0,0,0,.34,1.294Z" transform="translate(-90.054 -26.869)" fill="#211715"/>
        <path id="パス_307" data-name="パス 307" d="M101.165,53.068a35.764,35.764,0,0,1,6.32-5.795c.243-.166.49-.326.744-.476a1.592,1.592,0,0,0,.2-.118c.133-.115.147.038-.084-.028-.359-.1-.368-.32-.311.091.048.346-.046.691.024,1.036a1.586,1.586,0,0,0,.723,1.049c.748.445,1.433.052,2.091-.33.6-.348,1.2-.7,1.8-1.054a40.872,40.872,0,0,1,4.449-2.368.951.951,0,0,0,.339-1.293.97.97,0,0,0-1.293-.34,37.705,37.705,0,0,0-3.99,2.1c-.624.363-1.246.732-1.869,1.1q-.4.232-.794.46c-.023.013-.191.1-.19.107l.208-.006c.139-.059.235-.027.291.1.286.1-.012.147.1.038a1.084,1.084,0,0,0,.015-.317c-.005-.84-.25-1.874-1.146-2.173a2.279,2.279,0,0,0-1.941.58,28.031,28.031,0,0,0-3.54,2.8,46.5,46.5,0,0,0-3.486,3.5c-.808.9.524,2.247,1.337,1.337Z" transform="translate(-60.355 -26.265)" fill="#211715"/>
      </g>
    </g>
  </g>
</svg>
