<svg xmlns="http://www.w3.org/2000/svg" xmlns:xlink="http://www.w3.org/1999/xlink" width="76.643" height="68.879" viewBox="0 0 76.643 68.879">
  <defs>
    <clipPath id="clip-path">
      <rect id="長方形_41" data-name="長方形 41" width="60.675" height="58.333" fill="none"/>
    </clipPath>
    <clipPath id="clip-path-2">
      <rect id="長方形_47" data-name="長方形 47" width="18.325" height="49.431" fill="none"/>
    </clipPath>
  </defs>
  <g id="step1" transform="translate(-424.501 -1538.574)">
    <g id="カート" transform="translate(440.468 1549.121)">
      <g id="グループ_44" data-name="グループ 44" transform="translate(0 0)" clip-path="url(#clip-path)">
        <path id="パス_370" data-name="パス 370" d="M15.1,149.187a5.475,5.475,0,1,1,5.475-5.475,5.481,5.481,0,0,1-5.475,5.475m0-8.55a3.075,3.075,0,1,0,3.076,3.075,3.079,3.079,0,0,0-3.076-3.075" transform="translate(-6.325 -90.855)" fill="#e99ca5"/>
        <path id="パス_371" data-name="パス 371" d="M91.237,149.187a5.475,5.475,0,1,1,5.475-5.475,5.481,5.481,0,0,1-5.475,5.475m0-8.55a3.075,3.075,0,1,0,3.075,3.075,3.079,3.079,0,0,0-3.075-3.075" transform="translate(-56.366 -90.855)" fill="#e99ca5"/>
        <path id="パス_372" data-name="パス 372" d="M53.5,0A6.2,6.2,0,0,0,47.46,4.757l-1.527,6.33H19.347a18.28,18.28,0,0,1,.175,2.4H45.354L38.5,41.879H5.122l-2.64-10.11c-.387.025-.776.042-1.169.042-.442,0-.879-.022-1.313-.053l3.269,12.52H40.394l9.4-38.958A3.8,3.8,0,0,1,53.5,2.4h7.175V0Z" fill="#e99ca5"/>
      </g>
    </g>
    <g id="グループ_55" data-name="グループ 55" transform="translate(424.501 1549.856) rotate(-38)">
      <g id="グループ_54" data-name="グループ 54" transform="translate(0 0)" clip-path="url(#clip-path-2)">
        <path id="パス_396" data-name="パス 396" d="M16.507,4.012v-1A3,3,0,0,0,13.517,0a.917.917,0,0,0-.172.016,23.842,23.842,0,0,1-8.384,0A.891.891,0,0,0,4.808,0a3,3,0,0,0-2.99,3.011v1a2.478,2.478,0,0,0,0,4.776V42.022a7.345,7.345,0,1,0,14.69,0V8.78a2.472,2.472,0,0,0,0-4.767m-1.9-1v.9H3.718v-.9A1.107,1.107,0,0,1,4.742,1.9a25.685,25.685,0,0,0,8.848,0,1.109,1.109,0,0,1,1.017,1.108M9.163,47.531a5.483,5.483,0,0,1-5.444-5.508V22.316H14.607V42.022a5.483,5.483,0,0,1-5.444,5.508m5.444-27.116H3.718V8.879H14.607ZM2.459,6.978A.576.576,0,0,1,1.9,6.388a.554.554,0,0,1,.558-.573H15.848a.575.575,0,0,1,.575.573.584.584,0,0,1-.575.591Z" transform="translate(0 0)" fill="#e99ca5" stroke="#e99ca5" stroke-width="0.5"/>
        <path id="パス_397" data-name="パス 397" d="M.951,9.814a.951.951,0,0,0,.951-.95V.951a.951.951,0,1,0-1.9,0V8.864a.951.951,0,0,0,.951.95" transform="translate(10.251 9.645)" fill="#e99ca5" stroke="#e99ca5" stroke-width="0.5"/>
        <path id="パス_398" data-name="パス 398" d="M.951,0A.951.951,0,0,0,0,.95V16.985a.951.951,0,0,0,1.9,0V.95A.951.951,0,0,0,.951,0" transform="translate(10.251 23.861)" fill="#e99ca5" stroke="#e99ca5" stroke-width="0.5"/>
      </g>
    </g>
  </g>
</svg>
