<svg xmlns="http://www.w3.org/2000/svg" xmlns:xlink="http://www.w3.org/1999/xlink" width="64.717" height="74.318" viewBox="0 0 64.717 74.318">
  <defs>
    <clipPath id="clip-path">
      <rect id="長方形_464" data-name="長方形 464" width="64.717" height="74.318" fill="none"/>
    </clipPath>
  </defs>
  <g id="step3" transform="translate(72 103)">
    <g id="グループ_154" data-name="グループ 154" transform="translate(-72 -103)" clip-path="url(#clip-path)">
      <path id="パス_599" data-name="パス 599" d="M370.071,0a3.656,3.656,0,1,0,3.651,3.658A3.655,3.655,0,0,0,370.071,0" transform="translate(-313.224 0)" fill="#e99ca5"/>
      <path id="パス_600" data-name="パス 600" d="M370.685,107.353a2.15,2.15,0,1,0-2.152,2.148,2.149,2.149,0,0,0,2.152-2.148" transform="translate(-313.202 -89.93)" fill="#e99ca5"/>
      <path id="パス_601" data-name="パス 601" d="M413,65.3a2.57,2.57,0,1,0,2.567,2.571A2.566,2.566,0,0,0,413,65.3" transform="translate(-350.855 -55.825)" fill="#e99ca5"/>
      <path id="パス_602" data-name="パス 602" d="M32.526,331.271A7.338,7.338,0,1,0,42.9,341.648L64.16,320.393H43.4Z" transform="translate(-25.97 -273.887)" fill="#e99ca5"/>
      <path id="パス_603" data-name="パス 603" d="M43.444,113.524a4.442,4.442,0,0,0-7.471,4.136l-.285.286L3.436,150.2a11.75,11.75,0,0,0,16.617,16.618l32.253-32.252.285-.284a4.442,4.442,0,0,0,4.138-7.471Zm7.179,19.738-8.343,8.344L18.562,165.324A9.641,9.641,0,0,1,4.927,151.69l23.6-23.6,8.461-8.459.4-.407c.056.061.113.12.172.179l13.284,13.284c.058.059.118.115.178.172Zm4.612-1.661a2.334,2.334,0,0,1-2.324.584l-.6-.6L38.672,117.946l-.6-.6a2.334,2.334,0,0,1,3.884-2.326L55.235,128.3a2.334,2.334,0,0,1,0,3.3" transform="translate(0 -95.934)" fill="#e99ca5"/>
    </g>
  </g>
</svg>
