<svg xmlns="http://www.w3.org/2000/svg" xmlns:xlink="http://www.w3.org/1999/xlink" width="89.333" height="72.921" viewBox="0 0 89.333 72.921">
  <defs>
    <clipPath id="clip-path">
      <rect id="長方形_50" data-name="長方形 50" width="57.243" height="41.258" fill="none"/>
    </clipPath>
    <clipPath id="clip-path-2">
      <rect id="長方形_49" data-name="長方形 49" width="52.704" height="41.319" fill="none"/>
    </clipPath>
  </defs>
  <g id="step5" transform="translate(-353.569 -1502.769)">
    <g id="sample" transform="translate(385.658 1534.431)">
      <g id="グループ_60" data-name="グループ 60" transform="translate(0 0)" clip-path="url(#clip-path)">
        <path id="パス_404" data-name="パス 404" d="M11.577,16.1H24.464V28.41a4.146,4.146,0,1,0,8.292,0V16.1h5.717V28.41a4.146,4.146,0,1,0,8.292,0V16.1h6.05V33.612H4.429V16.1h7.149Zm20.058,0V28.41a3.025,3.025,0,1,1-6.049,0V16.1Zm14.009,0V28.41a3.025,3.025,0,1,1-6.05,0V16.1ZM39.594,2.848h6.05V9.283h-6.05Zm-.649-1.727h7.37c.06,0,.15.117.15.291,0,.2-.113.314-.15.314h-7.37c-.052,0-.172-.121-.172-.314s.111-.291.172-.291m.649,9.283h6.05V11.57h-6.05ZM25.586,2.848h6.05V9.283h-6.05Zm-.649-1.727h7.37c.053,0,.149.111.149.291,0,.2-.113.314-.149.314h-7.37c-.052,0-.172-.121-.172-.314s.111-.291.172-.291m.649,9.283h6.05V11.57h-6.05ZM17.65,11.57H4.429V2.422A2.237,2.237,0,0,0,2.2.18,2.226,2.226,0,0,0,0,2.422V40.7a.56.56,0,0,0,.56.56H3.868a.56.56,0,0,0,.56-.56V38.141H52.815V40.7a.56.56,0,0,0,.56.56h3.308a.56.56,0,0,0,.56-.56V2.422a2.215,2.215,0,1,0-4.429,0V11.57h-6.05V2.751a1.437,1.437,0,0,0,.822-1.338A1.333,1.333,0,0,0,46.315,0h-7.37a1.359,1.359,0,0,0-1.293,1.413,1.441,1.441,0,0,0,.822,1.333V11.57H32.757V2.751a1.438,1.438,0,0,0,.821-1.338A1.333,1.333,0,0,0,32.307,0h-7.37a1.358,1.358,0,0,0-1.293,1.413,1.44,1.44,0,0,0,.821,1.333V11.57H17.65Zm35.165,3.408H4.429V12.692H52.815ZM3.308,40.137H1.121V2.422A1.1,1.1,0,0,1,2.2,1.3a1.127,1.127,0,0,1,1.1,1.122V40.137Zm1.121-5.4H52.814V37.02H4.429Zm51.694,5.4H53.936V2.422A1.1,1.1,0,0,1,55.018,1.3a1.128,1.128,0,0,1,1.1,1.122Z" transform="translate(0 0)" fill="#e99ca5" stroke="#e99ca5" stroke-width="1"/>
      </g>
    </g>
    <g id="hands" transform="translate(353.569 1502.769)">
      <g id="グループ_58" data-name="グループ 58" transform="translate(0 0)" clip-path="url(#clip-path-2)">
        <path id="パス_400" data-name="パス 400" d="M65.564,27.338l-.356.261a.508.508,0,1,0,.6.818l.351-.257c1.488-1.086,1.684-1.4,1.082-3.373a.509.509,0,0,0-.973.3c.434,1.42.434,1.42-.709,2.254" transform="translate(-25.482 -9.575)" fill="#e99ca5" stroke="#e99ca5" stroke-width="1"/>
        <path id="パス_401" data-name="パス 401" d="M55.458,15.92c-.152-2.616-.592-3.155-2.577-4.52-1.417-.968-2.632-1.806-3.844-2.642-1.235-.852-2.468-1.7-3.909-2.687-1.545-1.064-5.916-1.159-13.362-.289-7.579.913-11.316-.767-16.976-3.306C13.14,1.735,11.27.9,9.113.036a.509.509,0,1,0-.376.945c2.138.851,4,1.686,5.637,2.422,5.814,2.611,9.656,4.334,17.512,3.389C41.18,5.705,43.81,6.4,44.552,6.91c1.442.985,2.673,1.834,3.907,2.685,1.214.838,2.43,1.677,3.847,2.645,1.773,1.219,2.007,1.507,2.137,3.739l.513,9.144a4.957,4.957,0,0,1-1.465-.251.508.508,0,1,0-.345.956,6.323,6.323,0,0,0,2.132.319l.227,0a.513.513,0,0,0,.362-.164A.507.507,0,0,0,56,25.606Z" transform="translate(-3.299 0)" fill="#e99ca5" stroke="#e99ca5" stroke-width="1"/>
        <path id="パス_402" data-name="パス 402" d="M45.463,36.673a1.937,1.937,0,0,0,1.832-.938c.66-1.228-.207-3.126-2.017-4.415-1.359-.959-3.254-2.036-5.086-3.076-1.812-1.03-3.686-2.095-5-3.026-2.48-1.769-2.343-2.3-2.341-2.3s.209-.41,2.378-.394c1.676.035,3.535.028,5.839-.019a34.1,34.1,0,0,1,3.051,1.738A35.31,35.31,0,0,0,47.3,26.047a.508.508,0,1,0,.449-.912,34.468,34.468,0,0,1-3.1-1.761,34.918,34.918,0,0,0-3.25-1.84.5.5,0,0,0-.234-.052c-2.347.049-4.229.055-5.927.021-2.077-.014-3.107.319-3.36,1.1-.279.858.533,1.889,2.72,3.449,1.36.961,3.257,2.039,5.091,3.08,1.811,1.028,3.683,2.092,5,3.022,1.461,1.04,2.064,2.445,1.71,3.1-.274.51-1.193.541-2.4.077-4.813-1.847-13.515-3.4-18.19-4.232-.854-.152-1.589-.283-2.158-.39a7.418,7.418,0,0,1-3.324-1.986,19.016,19.016,0,0,0-2.018-1.565C14.476,24.716,11.171,24.079,6.6,23.2c-1.749-.337-3.731-.719-5.969-1.254a.509.509,0,1,0-.237.99c2.26.54,4.253.924,6.012,1.263,4.464.861,7.69,1.482,11.354,3.816A18.062,18.062,0,0,1,19.665,29.5a8.267,8.267,0,0,0,3.794,2.211c.575.108,1.313.24,2.171.393,4.642.828,13.282,2.368,18,4.181a5.148,5.148,0,0,0,1.829.393" transform="translate(0 -8.421)" fill="#e99ca5" stroke="#e99ca5" stroke-width="1"/>
        <path id="パス_403" data-name="パス 403" d="M76.866,32.644a.936.936,0,0,0,.931-.916v-1.1a.936.936,0,0,0-.931-.916H70.319a.915.915,0,0,0-.911.916v1.1a.915.915,0,0,0,.911.916h5.333V42.755H71.271V41.29a.509.509,0,1,0-1.017,0v8.443a3.208,3.208,0,1,0,6.415,0V32.644ZM75.653,49.733a2.191,2.191,0,1,1-4.381,0V43.772h4.381Zm-5.227-19H76.78v.895H70.425Z" transform="translate(-27.209 -11.648)" fill="#e99ca5" stroke="#e99ca5" stroke-width="1"/>
      </g>
    </g>
  </g>
</svg>
