<svg id="step2" xmlns="http://www.w3.org/2000/svg" xmlns:xlink="http://www.w3.org/1999/xlink" width="50.618" height="66.88" viewBox="0 0 50.618 66.88">
  <defs>
    <clipPath id="clip-path">
      <rect id="長方形_463" data-name="長方形 463" width="50.618" height="66.88" fill="none"/>
    </clipPath>
  </defs>
  <g id="グループ_153" data-name="グループ 153" clip-path="url(#clip-path)">
    <path id="パス_597" data-name="パス 597" d="M40.327,17.792a12.44,12.44,0,0,0,24.774,0,3.274,3.274,0,0,0,1.784-.72,1.4,1.4,0,0,0,.427-1c0-.927-.941-1.726-2.155-2.374V8.539A8.547,8.547,0,0,0,56.619,0H48.81a8.547,8.547,0,0,0-8.538,8.538V13.7c-1.214.648-2.155,1.448-2.155,2.374a1.4,1.4,0,0,0,.427,1,3.273,3.273,0,0,0,1.784.721M52.715,13c6.294,0,10.972,1.851,12.336,2.869a58.06,58.06,0,0,1-8.3.239c-1.274-.012-2.628-.024-4.032-.024s-2.758.013-4.032.024a58.02,58.02,0,0,1-8.3-.239C41.743,14.849,46.42,13,52.715,13m0,14.164A10.536,10.536,0,0,1,42.28,17.982c1.568.078,3.662.067,6.42.042,1.269-.012,2.617-.024,4.014-.024s2.745.013,4.014.024c1.164.011,2.209.019,3.146.019,1.285,0,2.367-.016,3.274-.061a10.536,10.536,0,0,1-10.434,9.179M42.191,8.539A6.626,6.626,0,0,1,48.81,1.92h7.809a6.626,6.626,0,0,1,6.619,6.618v4.313c-.191-.071-.382-.139-.569-.2a32.32,32.32,0,0,0-19.907,0c-.188.064-.378.133-.57.2Z" transform="translate(-26.862 -0.001)" fill="#e99ca5"/>
    <path id="パス_598" data-name="パス 598" d="M47.583,120.481V116.3c0-.01,0-.019,0-.028a.957.957,0,0,0-.233-.668l-1.576-1.809v-.743A12.367,12.367,0,0,0,33.417,100.7H18.288A12.367,12.367,0,0,0,5.935,113.049v.744L4.359,115.6a.956.956,0,0,0-.233.668c0,.009,0,.018,0,.028v3.966A4.455,4.455,0,0,0,0,124.7v3.765A4.455,4.455,0,0,0,4.122,132.9v3.984a.96.96,0,0,0,.96.96H46.623a.96.96,0,0,0,.96-.96v-4.2a4.458,4.458,0,0,0,3.036-4.218V124.7a4.458,4.458,0,0,0-3.036-4.218m-25.2-3.224h6.892v5.407l-.509.457L27.3,121.8l-1.468,1.317L24.362,121.8l-1.469,1.317-.509-.457Zm-9.907-8.05h9.37L20.6,115.272H7.191Zm32.037,6.066H31.2l-1.249-6.066h9.277Zm-16.522-6.066,1.249,6.066H22.557l1.249-6.066Zm-9.7-6.591H33.417a10.45,10.45,0,0,1,10.311,8.834l-3.339-3.832a.959.959,0,0,0-.723-.329H12.04a.959.959,0,0,0-.723.329l-3.339,3.832a10.45,10.45,0,0,1,10.311-8.834M1.919,128.464V124.7a2.536,2.536,0,0,1,2.534-2.533h.54a1.076,1.076,0,0,1,1.07,1H4v1.919H6.071v.534H4v1.919H6.071v.534H4v1.919H6.064a1.076,1.076,0,0,1-1.07,1h-.54a2.536,2.536,0,0,1-2.534-2.533m4.122,7.46v-3.2a3,3,0,0,0,1.949-2.8v-6.676a3,3,0,0,0-1.949-2.8v-3.182H20.464v6.264l2.429,2.178,1.468-1.317,1.468,1.318,1.468-1.318,1.468,1.317,2.429-2.178v-6.264H45.663v2.989h-.038a3,3,0,0,0-3,3v6.676a3,3,0,0,0,3,3h.038v3.007Zm42.658-7.46A2.536,2.536,0,0,1,46.166,131h-.541a1.076,1.076,0,0,1-1.07-1h2.068v-1.919H44.547v-.534h2.076v-1.919H44.547v-.534h2.076v-1.919H44.555a1.076,1.076,0,0,1,1.07-1h.541A2.536,2.536,0,0,1,48.7,124.7Z" transform="translate(0 -70.963)" fill="#e99ca5"/>
  </g>
</svg>
