<svg xmlns="http://www.w3.org/2000/svg" width="69.564" height="66.078" viewBox="0 0 69.564 66.078">
  <g id="step6" transform="translate(-1)">
    <g id="mail" transform="translate(6 0)">
      <g id="パス_406" data-name="パス 406" transform="translate(-46.186 -142.321)" fill="#e99ca5">
        <path d="M 53.83413314819336 205.8984680175781 C 53.83403396606445 205.8984680175781 53.83395767211914 205.8984680175781 53.83385467529297 205.8984680175781 C 52.73074722290039 205.8983612060547 51.71091461181641 205.2946166992188 51.17234802246094 204.3228607177734 C 50.63889312744141 203.3603057861328 50.66928100585938 202.1830139160156 51.25144577026367 201.2499389648438 C 51.84714126586914 200.289306640625 52.86520767211914 198.2530364990234 54.44796752929688 193.9509582519531 C 51.43771362304688 191.7610168457031 48.92662048339844 189.1044006347656 47.11921691894531 186.1834869384766 C 46.01233673095703 184.3946990966797 45.15911483764648 182.4993896484375 44.58324813842773 180.5502319335938 C 43.98771667480469 178.5345001220703 43.68583679199219 176.4504241943359 43.68598556518555 174.3559265136719 C 43.68598556518555 170.7349243164062 44.57149505615234 167.2272338867188 46.31792449951172 163.9304962158203 C 47.97968673706055 160.7935791015625 50.34572601318359 157.9859008789062 53.35031509399414 155.58544921875 C 56.31388473510742 153.2177734375 59.75458526611328 151.3619995117188 63.57685470581055 150.0696716308594 C 67.50718688964844 148.7407989501953 71.67619323730469 148.0670166015625 75.96807861328125 148.0670166015625 C 78.75568389892578 148.0670166015625 81.55411529541016 148.3621978759766 84.28560638427734 148.9443511962891 L 86.13620758056641 149.3387603759766 L 86.25920867919922 151.2269287109375 C 86.60006713867188 156.4592742919922 90.97966766357422 160.5579528808594 96.22978973388672 160.5579528808594 C 97.66688537597656 160.5579528808594 99.04799652099609 160.2594909667969 100.3347473144531 159.6708831787109 L 102.1404342651367 158.8448791503906 L 103.3537292480469 160.4167175292969 C 106.556999206543 164.5666351318359 108.2501525878906 169.3868713378906 108.2501525878906 174.3563537597656 C 108.2501525878906 177.9773559570312 107.364616394043 181.4848785400391 105.6181488037109 184.7814788818359 C 103.9563598632812 187.9182434082031 101.5902938842773 190.7257995605469 98.58568572998047 193.1261596679688 C 95.62209320068359 195.4937591552734 92.181396484375 197.3494567871094 88.35915374755859 198.6417541503906 C 84.4288330078125 199.9705810546875 80.25988006591797 200.6443481445312 75.96807861328125 200.6443481445312 C 72.88883972167969 200.6443481445312 69.79433441162109 200.2764129638672 66.75283813476562 199.5496978759766 C 63.75934600830078 201.5951690673828 59.50731658935547 204.1207275390625 54.82195663452148 205.7333679199219 L 54.81178665161133 205.7368774414062 L 54.80159759521484 205.7402801513672 C 54.48789215087891 205.8452453613281 54.16238021850586 205.8984680175781 53.83413314819336 205.8984680175781 Z M 78.88620758056641 181.7518005371094 L 85.44343566894531 181.7518005371094 L 82.60340118408203 178.9117889404297 L 81.44583892822266 180.0693664550781 C 80.70144653320312 180.8111419677734 79.83193969726562 181.3786163330078 78.88620758056641 181.7518005371094 Z M 66.81513977050781 181.7518005371094 L 73.36931610107422 181.7518005371094 C 72.42288208007812 181.3784637451172 71.55423736572266 180.8108367919922 70.81276702880859 180.0693969726562 L 69.65517425537109 178.9117889404297 L 66.81513977050781 181.7518005371094 Z M 66.47067260742188 165.7344665527344 L 75.80915832519531 175.0729675292969 C 75.89836883544922 175.1621856689453 76.00304412841797 175.20556640625 76.12913513183594 175.20556640625 C 76.25197601318359 175.20556640625 76.35686492919922 175.1627197265625 76.44088745117188 175.0782012939453 L 76.44402313232422 175.0750274658203 L 76.44718933105469 175.0718841552734 L 79.37583923339844 172.1468353271484 L 85.78778839111328 165.7344665527344 L 66.47067260742188 165.7344665527344 Z M 87.59976196289062 173.9155426025391 L 87.92790985107422 174.2436676025391 L 87.92790985107422 173.5873718261719 L 87.59976196289062 173.9155426025391 Z M 64.3309326171875 173.5888214111328 L 64.3309326171875 174.2434844970703 L 64.65834808349609 173.9160766601562 L 64.3309326171875 173.5888214111328 Z" stroke="none"/>
        <path d="M 53.83409118652344 203.3984680175781 C 53.89056396484375 203.3984680175781 53.94902420043945 203.3893127441406 54.00833511352539 203.3694763183594 C 58.86172103881836 201.6990051269531 63.23858261108398 198.9940185546875 66.260986328125 196.8453063964844 C 69.3104248046875 197.6679992675781 72.57252502441406 198.1443481445312 75.96808624267578 198.1443481445312 C 92.4111328125 198.1443481445312 105.7501602172852 187.4832458496094 105.7501602172852 174.3563537597656 C 105.7501602172852 169.8214721679688 104.1585693359375 165.5508422851562 101.3747100830078 161.9443054199219 C 99.80902099609375 162.6605224609375 98.05964660644531 163.0579528808594 96.22978210449219 163.0579528808594 C 89.62564849853516 163.0579528808594 84.18948364257812 157.913330078125 83.76449584960938 151.3894348144531 C 81.27214813232422 150.8582458496094 78.67307281494141 150.5670166015625 75.96808624267578 150.5670166015625 C 59.52473449707031 150.5670166015625 46.18599700927734 161.2283325195312 46.18599700927734 174.3561096191406 C 46.18544769287109 181.9138793945312 50.58738327026367 188.6242065429688 57.45656967163086 192.9737548828125 C 56.47502136230469 195.7578735351562 54.80453491210938 200.2668151855469 53.37263488769531 202.5730285644531 C 53.14009857177734 202.9451141357422 53.43678665161133 203.3984222412109 53.83409118652344 203.3984680175781 M 69.65518188476562 175.3762512207031 L 72.58050537109375 178.3016052246094 C 73.52786254882812 179.2489318847656 74.7890625 179.7729187011719 76.12942504882812 179.7729187011719 C 77.46949768066406 179.7729187011719 78.72738647460938 179.2489318847656 79.67806243896484 178.3016052246094 L 82.60338592529297 175.3762512207031 L 90.33140563964844 183.1042175292969 C 90.09394836425781 183.7727661132812 89.45658111572266 184.2518005371094 88.70557403564453 184.2518005371094 L 63.55325698852539 184.2518005371094 C 62.8022575378418 184.2518005371094 62.16464614868164 183.7727661132812 61.92718505859375 183.1042175292969 L 69.65518188476562 175.3762512207031 M 90.42790985107422 167.5514221191406 L 90.42790985107422 174.9744567871094 L 90.41716003417969 180.2682189941406 L 84.06427001953125 173.9156799316406 L 90.42790985107422 167.5514221191406 M 61.8309326171875 167.5552673339844 L 68.19430541992188 173.9156799316406 L 64.47770690917969 177.6322326660156 L 61.8309326171875 180.2638549804688 L 61.8309326171875 167.5552673339844 M 63.55299758911133 163.2344665527344 L 88.705322265625 163.2344665527344 C 89.55281829833984 163.2344665527344 90.25914764404297 163.8477783203125 90.40034484863281 164.6572570800781 L 81.14252471923828 173.9156799316406 L 78.21387481689453 176.8407287597656 C 77.65897369384766 177.39892578125 76.91487121582031 177.70556640625 76.12913513183594 177.70556640625 C 75.34008026123047 177.70556640625 74.59959411621094 177.39892578125 74.0413818359375 176.8407287597656 L 61.85794448852539 164.6572570800781 C 61.9991455078125 163.8477783203125 62.70574569702148 163.2344665527344 63.55299758911133 163.2344665527344 M 53.83420944213867 208.3984680175781 L 53.83362197875977 208.3984680175781 C 51.82219696044922 208.3982696533203 49.96459579467773 207.3009643554688 48.98572158813477 205.5347290039062 C 48.0134391784668 203.7804107666016 48.06761932373047 201.6350555419922 49.12645721435547 199.9329376220703 C 49.50525665283203 199.3222503662109 50.24967956542969 197.9118041992188 51.45684814453125 194.7973937988281 C 48.85435104370117 192.6620178222656 46.65559387207031 190.1853637695312 44.9932975769043 187.4989776611328 C 43.76926040649414 185.5208435058594 42.82464599609375 183.4212646484375 42.18570709228516 181.2585601806641 C 41.52217102050781 179.0126647949219 41.18582153320312 176.6902160644531 41.18599700927734 174.3557434082031 C 41.18599700927734 170.3226623535156 42.16935729980469 166.4212341308594 44.10877227783203 162.7601928710938 C 45.93180847167969 159.31884765625 48.51609802246094 156.2477569580078 51.78985977172852 153.6322631835938 C 54.98128509521484 151.0825653076172 58.67759704589844 149.0871276855469 62.776123046875 147.7013854980469 C 66.96493530273438 146.2851257324219 71.40334320068359 145.5670166015625 75.96808624267578 145.5670166015625 C 78.93051910400391 145.5670166015625 81.90427398681641 145.8806762695312 84.80672454833984 146.499267578125 L 88.50791931152344 147.2880859375 L 88.75392150878906 151.0644073486328 C 89.00938415527344 154.9860229492188 92.29317474365234 158.0579528808594 96.22978210449219 158.0579528808594 C 97.30547332763672 158.0579528808594 98.33669281005859 157.8357238769531 99.29478454589844 157.3974456787109 L 102.9061431884766 155.7454681396484 L 105.3327331542969 158.8891296386719 C 108.8768463134766 163.4806060791016 110.7501602172852 168.8290557861328 110.7501602172852 174.3563537597656 C 110.7501602172852 178.3896179199219 109.7667617797852 182.2909088134766 107.8272857666016 185.9518432617188 C 106.0042114257812 189.3930358886719 103.4198837280273 192.4639892578125 100.1460952758789 195.0793914794922 C 96.95467376708984 197.6289978027344 93.25836944580078 199.6243591308594 89.15988159179688 201.0100555419922 C 84.97108459472656 202.4262542724609 80.53273010253906 203.1443481445312 75.96808624267578 203.1443481445312 C 73.05754089355469 203.1443481445312 70.13531494140625 202.8355407714844 67.25254821777344 202.2248077392578 C 64.19717407226562 204.2375793457031 60.11552429199219 206.5553436279297 55.63557052612305 208.0972747802734 L 55.59517288208008 208.1109924316406 C 55.02519607543945 208.3017425537109 54.43272018432617 208.3984680175781 53.83420944213867 208.3984680175781 Z M 72.50619506835938 168.2344665527344 L 76.12852478027344 171.8567962646484 L 79.75254058837891 168.2344665527344 L 72.50619506835938 168.2344665527344 Z" stroke="none" fill="#fff"/>
      </g>
      <path id="パス_407" data-name="パス 407" d="M205.979,137.16a8.247,8.247,0,1,0,0-16.494,8.273,8.273,0,0,0-8.248,8.247,9.263,9.263,0,0,0,.266,2.122,8.281,8.281,0,0,0,7.983,6.125m-.346-12.649,1.7-.08h.266v8.964h-2.069v-6.444l-1.06.913-.663.528v-2.185h0Z" transform="translate(-155.936 -120.666)" fill="#e99ca5"/>
    </g>
  </g>
</svg>
