<svg xmlns="http://www.w3.org/2000/svg" xmlns:xlink="http://www.w3.org/1999/xlink" width="80" height="80" viewBox="0 0 80 80">
  <defs>
    <clipPath id="clip-path">
      <circle id="楕円形_6" data-name="楕円形 6" cx="40" cy="40" r="40" transform="translate(390 1425)" fill="#fff"/>
    </clipPath>
    <clipPath id="clip-path-2">
      <rect id="長方形_37" data-name="長方形 37" width="100.615" height="119.322" fill="none"/>
    </clipPath>
  </defs>
  <g id="women" transform="translate(-390 -1425)" clip-path="url(#clip-path)">
    <circle id="楕円形_5" data-name="楕円形 5" cx="40" cy="40" r="40" transform="translate(390 1425)" fill="#fff"/>
    <g id="グループ_42" data-name="グループ 42" transform="translate(380.461 1432.605)">
      <g id="グループ_41" data-name="グループ 41" clip-path="url(#clip-path-2)">
        <path id="パス_319" data-name="パス 319" d="M84.765,49.613a2.266,2.266,0,0,0-2.092-1.153,2.189,2.189,0,0,0-1.973,1.1,6.663,6.663,0,0,0-.21,4.66,7.212,7.212,0,0,0,2.082,3.435,2.537,2.537,0,0,0,2.17.557,18.168,18.168,0,0,0,3.383,6.5,13.744,13.744,0,0,0,4.377,3.7v1.587a3.581,3.581,0,0,1-.153,1.268,3.082,3.082,0,0,1-.925,1.347,10.383,10.383,0,0,1-3.1,1.567l-1.5.592c3.141,2.113,8.295,3.3,12.654,3.4,4.421-.1,9.638-1.316,12.772-3.48l-1.287-.508a10.391,10.391,0,0,1-3.1-1.567,3.085,3.085,0,0,1-.925-1.347,3.584,3.584,0,0,1-.153-1.268v-1.94a12.515,12.515,0,0,0,3.955-3.343,18.159,18.159,0,0,0,3.355-6.4,2.517,2.517,0,0,0,2.237-.522,7.211,7.211,0,0,0,2.108-3.419,6.661,6.661,0,0,0-.174-4.662,2.19,2.19,0,0,0-1.964-1.111,2.24,2.24,0,0,0-2.28,1.557,8.028,8.028,0,0,1-.776-.367c-2.349-.809-4.469-3.185-5.889-5.867a32.633,32.633,0,0,1-1.881-5.681A20.22,20.22,0,0,1,95.41,45.559a1.452,1.452,0,0,1-.844.039c-.317-.15-.406-.294-.378-.711.068-1.037.483-2.752.6-3.755-2.8,2.755-5.87,5.662-8.714,7.989l-1.31.491Z" transform="translate(-49.615 -23.662)" fill="#fff"/>
        <path id="パス_321" data-name="パス 321" d="M78.1,53.6l1.067.006c.908-.332,1.9-.686,2.976-1.056.024.016.051.032.075.048l1.5-.59a10.39,10.39,0,0,0,3.1-1.567,3.086,3.086,0,0,0,.925-1.347,3.584,3.584,0,0,0,.153-1.268V46.235a13.75,13.75,0,0,1-4.377-3.7,18.175,18.175,0,0,1-3.383-6.5,2.537,2.537,0,0,1-2.17-.557,7.216,7.216,0,0,1-2.082-3.435,6.663,6.663,0,0,1,.21-4.66,2.19,2.19,0,0,1,1.973-1.1,2.266,2.266,0,0,1,2.093,1.153l1.31-.491c2.845-2.327,5.91-5.235,8.714-7.989-.119,1-.534,2.717-.6,3.755-.027.417.062.561.379.711a1.452,1.452,0,0,0,.844-.039,20.22,20.22,0,0,0,10.069-7.324,32.633,32.633,0,0,0,1.881,5.681c1.421,2.682,3.541,5.058,5.889,5.867a7.987,7.987,0,0,0,.776.367,2.239,2.239,0,0,1,2.28-1.557,2.19,2.19,0,0,1,1.964,1.111,6.665,6.665,0,0,1,.174,4.662,7.21,7.21,0,0,1-2.108,3.419,2.517,2.517,0,0,1-2.237.522,18.163,18.163,0,0,1-3.355,6.4,12.511,12.511,0,0,1-3.955,3.343v1.94a3.583,3.583,0,0,0,.153,1.268,3.082,3.082,0,0,0,.925,1.347,10.38,10.38,0,0,0,3.1,1.567l1.285.507.049-.032c1.048.374,2.166.825,3.27,1.3l.712,0a6.293,6.293,0,0,0,5.5-4.238c.827-2.558-.2-5.877-.961-8.454a49.705,49.705,0,0,1-1.906-13.58c.088-2.67-.1-5.835-.194-7.161-.329-4.595-2.4-9.725-5.374-12.577a13.542,13.542,0,0,0-2.748-2.388l-1.334-.781-1.325-.537a21.677,21.677,0,0,0-8.669-1.661A21.238,21.238,0,0,0,81.015,7.746c-3.913,3.746-6.4,10.588-6.083,20.025,0,6.4-.523,11.007-1.259,13.63a31.063,31.063,0,0,0-.945,6.605A6.169,6.169,0,0,0,78.1,53.6Z" transform="translate(-45.008 -1.492)" fill="#e198a1"/>
        <path id="パス_346" data-name="パス 346" d="M175.133,66.836a52.5,52.5,0,0,0,1.595,12.594c.486,1.847,1.124,3.654,1.433,5.544a6.741,6.741,0,0,1-.649,4.743,5.427,5.427,0,0,1-4.1,2.477.938.938,0,0,0-.915.915.922.922,0,0,0,.915.915,7.366,7.366,0,0,0,4.782-2.231,7.228,7.228,0,0,0,1.939-5.077,21.426,21.426,0,0,0-1.13-5.969,48.9,48.9,0,0,1-1.464-6.4,54.615,54.615,0,0,1-.578-7.507.915.915,0,0,0-1.829,0Z" transform="translate(-106.751 -40.814)" fill="#211715"/>
        <path id="パス_347" data-name="パス 347" d="M179.429,64.686c0,.267-.011.534-.019.8a.94.94,0,0,0,.915.915l.243-.033a.914.914,0,0,0,.4-.235l.143-.185a.911.911,0,0,0,.125-.462c.008-.267.015-.534.019-.8a.941.941,0,0,0-.915-.915l-.243.033a.912.912,0,0,0-.4.235l-.143.185A.912.912,0,0,0,179.429,64.686Z" transform="translate(-111.027 -39.464)" fill="#211715"/>
        <path id="パス_348" data-name="パス 348" d="M77.9,65.674q-.016-.549-.023-1.1a.948.948,0,0,0-.268-.647,1.02,1.02,0,0,0-.647-.268.925.925,0,0,0-.647.268.943.943,0,0,0-.268.647q.006.549.023,1.1a.954.954,0,0,0,.268.647,1.017,1.017,0,0,0,.647.268.915.915,0,0,0,.915-.915" transform="translate(-47.064 -39.396)" fill="#211715"/>
        <path id="パス_349" data-name="パス 349" d="M76.844,92.451a5.664,5.664,0,0,1-4.092-2.684,4.221,4.221,0,0,1-.607-1.835,16.77,16.77,0,0,1,.19-2.756c.207-1.7.655-3.321,1.009-4.989a41.719,41.719,0,0,0,.7-5c.226-2.555.3-5.121.3-7.685a.915.915,0,0,0-1.83,0,58.593,58.593,0,0,1-.955,12.288c-.161.745-.382,1.474-.541,2.219-.233,1.093-.4,2.2-.531,3.311a13.556,13.556,0,0,0-.159,2.8,6.2,6.2,0,0,0,.759,2.417,7.373,7.373,0,0,0,5.269,3.673.944.944,0,0,0,1.125-.639.922.922,0,0,0-.639-1.125Z" transform="translate(-43.506 -41.229)" fill="#211715"/>
        <path id="パス_350" data-name="パス 350" d="M89.028,86.346A19.332,19.332,0,0,0,93.1,94.612a12.6,12.6,0,0,0,7.567,4.669.944.944,0,0,0,1.125-.639.922.922,0,0,0-.639-1.125,11.091,11.091,0,0,1-6.76-4.2,17.406,17.406,0,0,1-3.6-7.458c-.254-1.149-2.018-.663-1.764.486Z" transform="translate(-55.079 -52.728)" fill="#211715"/>
        <path id="パス_351" data-name="パス 351" d="M151.689,85.86a17.551,17.551,0,0,1-3.223,6.992,13.141,13.141,0,0,1-2.8,2.755,12.239,12.239,0,0,1-3.216,1.548c-1.115.364-.637,2.131.486,1.764a13.96,13.96,0,0,0,3.653-1.733,14.921,14.921,0,0,0,3.169-3.04,19.309,19.309,0,0,0,3.693-7.8c.253-1.147-1.51-1.637-1.764-.486Z" transform="translate(-87.763 -52.728)" fill="#211715"/>
        <path id="パス_352" data-name="パス 352" d="M169.217,65.191a1.557,1.557,0,0,1,1.42-.306,1.391,1.391,0,0,1,.539.252c-.078-.061.108.114.106.112.185.2-.073-.128.064.071a4.439,4.439,0,0,1,.462,2.834,7.212,7.212,0,0,1-.85,2.7c-.441.832-1.307,2.107-2.414,1.957a.946.946,0,0,0-1.125.639.921.921,0,0,0,.639,1.125c2.853.385,4.5-2.328,5.261-4.691.62-1.934.658-4.979-1.178-6.292a3.443,3.443,0,0,0-4.217.31c-.88.786.417,2.076,1.294,1.294Z" transform="translate(-103.589 -38.991)" fill="#211715"/>
        <path id="パス_353" data-name="パス 353" d="M83.527,63.572a3.47,3.47,0,0,0-3.836-.557,3.389,3.389,0,0,0-1.72,2.325,8.715,8.715,0,0,0,1.235,6.674c.853,1.3,2.213,2.478,3.873,2.267a.944.944,0,0,0,.915-.915.92.92,0,0,0-.915-.915c-1.226.155-2.042-.853-2.576-1.834a7.231,7.231,0,0,1-.883-2.752A4.63,4.63,0,0,1,80.081,65q.053-.076-.028.029c.027-.034.055-.066.084-.1s.207-.195.138-.141a1.394,1.394,0,0,1,.542-.245,1.552,1.552,0,0,1,1.416.324c.87.789,2.168-.5,1.294-1.294Z" transform="translate(-48.117 -38.784)" fill="#211715"/>
        <path id="パス_354" data-name="パス 354" d="M95.767,133.235a23.644,23.644,0,0,0,10.123,3.29,26.88,26.88,0,0,0,10.891-1,18.959,18.959,0,0,0,5.289-2.362c.97-.656.055-2.242-.923-1.58a21.474,21.474,0,0,1-9.3,3.109,25.492,25.492,0,0,1-10.263-.89,17.556,17.556,0,0,1-4.9-2.151c-.984-.652-1.9.932-.924,1.58Z" transform="translate(-59.006 -81.334)" fill="#211715"/>
        <path id="パス_355" data-name="パス 355" d="M100.81,116.279c0,.391-.008.782-.031,1.172-.015.251-.03.5-.057.752a1.7,1.7,0,0,1-.053.289c-.016.07-.036.139-.058.207-.044.112-.05.135-.019.067a3.2,3.2,0,0,1-.324.594q-.095.134-.032.043-.063.074-.131.143a2.8,2.8,0,0,1-.22.2q.07-.05-.064.048c-.055.041-.111.08-.167.119q-.166.114-.339.217c-.2.119-.4.228-.609.329-.934.456-2.086.844-3.143,1.26a.942.942,0,0,0-.639,1.125.921.921,0,0,0,1.125.639,36.944,36.944,0,0,0,3.845-1.579,6.685,6.685,0,0,0,1.436-1,4.153,4.153,0,0,0,.974-1.527,8.736,8.736,0,0,0,.338-3.1.915.915,0,0,0-1.83,0Z" transform="translate(-58.722 -71.392)" fill="#211715"/>
        <path id="パス_356" data-name="パス 356" d="M147.29,116.281a8.739,8.739,0,0,0,.338,3.1,4.146,4.146,0,0,0,.974,1.527,6.689,6.689,0,0,0,1.436,1,36.922,36.922,0,0,0,3.845,1.579.921.921,0,0,0,1.125-.639.936.936,0,0,0-.639-1.125c-1.054-.415-2.214-.806-3.143-1.26-.208-.1-.411-.21-.609-.329q-.172-.1-.339-.217c-.057-.038-.113-.078-.167-.119-.09-.066-.112-.082-.064-.048a2.574,2.574,0,0,1-.22-.2c-.046-.046-.089-.093-.131-.143.042.061.032.047-.032-.043a3.133,3.133,0,0,1-.324-.593c.031.068.025.045-.019-.067-.022-.068-.042-.138-.058-.207a1.7,1.7,0,0,1-.053-.288c-.028-.25-.042-.5-.057-.752-.023-.391-.029-.781-.031-1.172a.915.915,0,0,0-1.83,0Z" transform="translate(-91.15 -71.395)" fill="#211715"/>
        <path id="パス_357" data-name="パス 357" d="M179.3,175.639a8.116,8.116,0,0,0,5.67-7.878c.089-4.2-1.186-8.372-2.2-12.4a67.946,67.946,0,0,0-3.733-11.66,18.553,18.553,0,0,0-7.449-8.342,70.131,70.131,0,0,0-10.6-4.845.921.921,0,0,0-1.125.639.936.936,0,0,0,.639,1.125,78.711,78.711,0,0,1,9.086,4.048,17.025,17.025,0,0,1,7.153,6.831,48.818,48.818,0,0,1,3.733,10.609c.536,2.033,1.039,4.075,1.541,6.117a37.632,37.632,0,0,1,1,5.349,10.045,10.045,0,0,1-.6,5.67,5.831,5.831,0,0,1-3.586,2.971.916.916,0,0,0,.486,1.764Z" transform="translate(-98.907 -80.741)" fill="#211715"/>
        <path id="パス_358" data-name="パス 358" d="M43.284,173.847a5.032,5.032,0,0,1-1.9-.922,3.809,3.809,0,0,1-1.2-1.51,9.911,9.911,0,0,1-.39-4.917,73.158,73.158,0,0,1,2.316-11.458c.478-1.82.986-3.632,1.511-5.438.49-1.685.967-3.363,1.622-4.993a23.775,23.775,0,0,1,2.53-4.956,11.441,11.441,0,0,1,3.973-3.359c3.148-1.716,6.7-2.726,10.136-4a.94.94,0,0,0,.639-1.125.922.922,0,0,0-1.125-.639,101.854,101.854,0,0,0-9.725,3.74,14.516,14.516,0,0,0-4.531,3.259,19.016,19.016,0,0,0-3.07,5.179,78.15,78.15,0,0,0-3.492,10.969,85.715,85.715,0,0,0-2.535,12.1,12.116,12.116,0,0,0,.519,6.462,5.5,5.5,0,0,0,1.529,1.974A6.412,6.412,0,0,0,42.8,175.61a.941.941,0,0,0,1.125-.639.922.922,0,0,0-.639-1.125Z" transform="translate(-23.423 -80.753)" fill="#211715"/>
        <path id="パス_359" data-name="パス 359" d="M122.543,100.975a6.27,6.27,0,0,0,3.038.711,4.951,4.951,0,0,0,3.094-.93.917.917,0,0,0,0-1.294.943.943,0,0,0-1.294,0c.283-.223.094-.073.021-.026s-.121.074-.183.107-.3.109-.033.025c-.085.026-.168.065-.253.093a4.83,4.83,0,0,1-.708.163c.133-.022.065-.008-.029,0-.069.007-.139.013-.208.017-.167.011-.335.015-.5.014q-.225,0-.451-.016-.1-.007-.206-.017c-.037,0-.288-.051-.061-.006-.223-.044-.443-.082-.661-.148-.093-.028-.183-.061-.274-.093-.22-.076.168.083-.03-.011-.113-.054-.225-.11-.336-.169a.915.915,0,1,0-.924,1.58Z" transform="translate(-75.561 -61.393)" fill="#211715"/>
        <path id="パス_360" data-name="パス 360" d="M129,83.265a14.1,14.1,0,0,1,.328,1.511l-.033-.243a.917.917,0,0,1,.006.208l.033-.243a.5.5,0,0,1-.023.094l.092-.218a.36.36,0,0,1-.033.06l.143-.185a.334.334,0,0,1-.049.049l.185-.143a1,1,0,0,1-.119.063l.218-.092a.85.85,0,0,1-.2.059l.243-.033a.813.813,0,0,1-.188,0l.243.033c-.071-.01-.14-.027-.211-.037a.694.694,0,0,0-.365-.016.676.676,0,0,0-.34.109.914.914,0,0,0-.328,1.251.875.875,0,0,0,.547.42c.174.024.343.068.52.076a1.681,1.681,0,0,0,.783-.189,1.166,1.166,0,0,0,.635-.764,1.868,1.868,0,0,0-.007-.808c-.082-.487-.193-.969-.317-1.447a.915.915,0,0,0-1.764.486Z" transform="translate(-79.51 -50.812)" fill="#211715"/>
        <path id="パス_361" data-name="パス 361" d="M109.274,71.819c-.25.82-.087,2.707,1.453,2.867,2.036-.012,2.144-2.293,1.459-3.366a1.607,1.607,0,0,0-2.912.5" transform="translate(-67.565 -43.682)" fill="#211715"/>
        <path id="パス_362" data-name="パス 362" d="M146.858,71.819c.25.82.087,2.707-1.453,2.867-2.036-.012-2.144-2.293-1.459-3.366a1.607,1.607,0,0,1,2.912.5" transform="translate(-88.846 -43.682)" fill="#211715"/>
        <path id="パス_365" data-name="パス 365" d="M158.067,9.511a7.969,7.969,0,0,1,1.547,1.238c.574.571,1.173,1.124,1.71,1.731a16.348,16.348,0,0,1,2.47,3.889,23.236,23.236,0,0,1,2.032,8.747c.1,1.908.162,3.821.1,5.731-.036,1.178,1.793,1.177,1.83,0,.055-1.8.006-3.6-.087-5.4a31.574,31.574,0,0,0-.484-4.533,21.378,21.378,0,0,0-4.215-9.308,27.654,27.654,0,0,0-1.918-2,10.593,10.593,0,0,0-2.065-1.672.916.916,0,0,0-.923,1.58Z" transform="translate(-97.548 -4.825)" fill="#211715"/>
        <path id="パス_366" data-name="パス 366" d="M105.627,1.7A23.248,23.248,0,0,0,96.041.017a22.086,22.086,0,0,0-9.8,2.849A17.342,17.342,0,0,0,80.6,7.716a21.923,21.923,0,0,0-3.339,7.2,38.343,38.343,0,0,0-1.185,11.367c.037,1.174,1.867,1.18,1.83,0-.179-5.709.516-11.876,3.682-16.78a14.655,14.655,0,0,1,4.608-4.48A20.564,20.564,0,0,1,94.8,1.938,21.55,21.55,0,0,1,105.14,3.462a.92.92,0,0,0,1.125-.639.937.937,0,0,0-.639-1.125Z" transform="translate(-47.061 0)" fill="#211715"/>
        <path id="パス_367" data-name="パス 367" d="M144.441,37.971a22.734,22.734,0,0,0,2.917,7.257c1.435,2.09,3.4,4.1,5.943,4.728a.916.916,0,0,0,.486-1.764c-2.17-.539-3.839-2.349-5.028-4.153a21.6,21.6,0,0,1-2.554-6.555.916.916,0,0,0-1.764.486Z" transform="translate(-89.366 -22.796)" fill="#211715"/>
        <path id="パス_368" data-name="パス 368" d="M112.789,36.295a19.736,19.736,0,0,1-6.43,5.579,17.9,17.9,0,0,1-1.949.912c-.329.129-.66.253-1,.361-.028.009-.463.09-.472.1.056-.065.337.292.246.25.022.077.027.047.017-.093,0-.077.012-.155.019-.232.014-.137.033-.272.053-.408.051-.337.114-.672.176-1.007.13-.7.264-1.4.353-2.107.1-.826-1.046-1.153-1.562-.647-2.811,2.76-5.667,5.489-8.714,7.989a.921.921,0,0,0,0,1.294.935.935,0,0,0,1.294,0c3.048-2.5,5.9-5.229,8.714-7.989l-1.562-.647c-.144,1.147-.5,2.425-.593,3.641a1.553,1.553,0,0,0,.774,1.59,2.631,2.631,0,0,0,2.173-.118,21.18,21.18,0,0,0,6.937-4.116,22.813,22.813,0,0,0,3.1-3.43.921.921,0,0,0-.328-1.252.937.937,0,0,0-1.252.328Z" transform="translate(-57.717 -22.18)" fill="#211715"/>
      </g>
    </g>
  </g>
</svg>
