<?xml version="1.0" encoding="utf-8"?>
<!-- Generator: Adobe Illustrator 28.0.0, SVG Export Plug-In . SVG Version: 6.00 Build 0)  -->
<svg version="1.1" id="レイヤー_1" xmlns="http://www.w3.org/2000/svg" xmlns:xlink="http://www.w3.org/1999/xlink" x="0px"
	 y="0px" width="266px" height="30px" viewBox="0 0 266 30" enable-background="new 0 0 266 30" xml:space="preserve">
<path id="パス_460" fill="#1A1311" d="M26.5,18.7c-1.5-1-3-1.9-4.6-2.7c0.5-2,0.7-4,0.8-6c0-0.4-0.1-0.7-0.3-1
	c-0.3-0.3-0.6-0.4-1-0.4c-0.7,0-1.4,0.5-1.4,1.3c0,0,0,0,0,0c-0.1,1.7-0.3,3.4-0.6,5c-1.2-0.5-2.5-0.9-3.8-1.2
	c-1.1-0.3-2.2-0.4-3.4-0.6c0.7-2.3,1.2-4.6,1.7-6.9l0-0.1c0-0.2,0-0.5,0-0.7c0-1.6-0.8-2.4-2.5-2.4c-0.3,0-0.6,0-0.8,0.1L5.7,3.9
	C5,4,4.5,4.6,4.5,5.3C4.5,5.7,4.7,6,5,6.3c0.3,0.2,0.7,0.3,1,0.3l4.8-0.7c0.3,0,0.4,0,0.4,0c0,0,0,0.1,0,0.3c-0.4,2.3-1,4.6-1.7,6.8
	H8.9c-4.8,0-8.4,3-8.4,6.9c0,2.6,1.6,4.3,3.9,4.3c1.6,0,3.2-0.4,4.8-3.5c0.8-1.6,1.5-3.2,2.1-4.9c1.1,0.1,2.2,0.3,3.3,0.6
	c1.4,0.3,2.7,0.8,4,1.3C17.6,20.4,16,23,13.8,25c-0.3,0.3-0.5,0.7-0.6,1.1c0,0.7,0.6,1.3,1.3,1.3c0.4,0,0.8-0.2,1.2-0.5
	c2.4-2.2,4.3-5,5.3-8.2c1.3,0.7,2.6,1.5,3.9,2.4c0.3,0.2,0.6,0.3,0.9,0.3c0.8,0,1.4-0.7,1.4-1.4C27.2,19.5,26.9,19,26.5,18.7
	 M8.6,15.6L8.6,15.6c-0.5,1.4-1.1,2.8-1.8,4.1l0,0c-0.7,1.3-1.3,1.7-2.3,1.7c-0.8,0-1.2-0.6-1.2-1.6C3.2,17.7,4.9,15.5,8.6,15.6"/>
<path id="パス_461" fill="#1A1311" d="M52.7,19c-0.6,0-1.2,0.4-1.3,1c-1,2.9-2.4,4.2-4.4,4.2c-1.4,0-2.2-0.7-2.4-4.2
	c-0.2-4.3-1.5-6.3-4.2-6.3c-1.3,0-2.5,0.5-3.5,1.2l5.2-10c0.1-0.2,0.2-0.5,0.2-0.8c0-0.8-0.7-1.4-1.4-1.3c-0.6,0-1.1,0.3-1.3,0.9
	c-3.8,7.2-7.8,16.2-9.9,21c-0.1,0.2-0.2,0.5-0.2,0.7c0,0.7,0.6,1.3,1.3,1.3c0,0,0,0,0,0c0.6,0,1.2-0.4,1.5-1c0.3-0.7,0.7-1.4,1-2.1
	c0.3-0.7,0.6-1.4,0.9-1.8c1.6-3.4,3.9-5.5,5.6-5.5c1.3,0,1.9,0.6,2.1,4.1c0.2,4.5,1.9,6.6,5.1,6.6c3.3,0,5.6-2,7.1-6
	c0.1-0.2,0.1-0.4,0.1-0.6C54,19.7,53.5,19.1,52.7,19C52.7,19,52.7,19,52.7,19"/>
<path id="パス_462" fill="#1A1311" d="M67.6,9.1c0.7-0.1,1.3-0.7,1.3-1.4c0-0.4-0.2-0.7-0.4-0.9c-0.4-0.3-0.8-0.4-1.3-0.3
	c-0.9,0.2-1.9,0.4-3,0.5c0.4-1.4,0.8-2.8,1-3.9c0.1-0.4,0-0.8-0.2-1.2c-0.3-0.3-0.7-0.5-1.1-0.5c-0.7,0-1.2,0.5-1.3,1.1
	c-0.3,1.5-0.7,3.1-1.2,4.8c-1.7,0.2-3.4,0.3-4.6,0.3c-0.7,0-1.3,0.5-1.3,1.2c0,0,0,0,0,0.1c0,0.4,0.1,0.7,0.4,1
	c0.3,0.3,0.7,0.4,1.1,0.4c1.2-0.1,2.4-0.1,3.5-0.2c-1.1,3.1-2.6,6-4.3,8.8c-0.2,0.3-0.3,0.6-0.3,1c0,0.7,0.6,1.3,1.3,1.3
	c0,0,0,0,0,0c0.6,0,1.1-0.3,1.4-0.8c2-3.3,3.6-6.8,4.9-10.5C64.8,9.6,66.2,9.4,67.6,9.1"/>
<path id="パス_463" fill="#1A1311" d="M79.1,9.3L79.1,9.3c-1.5-0.9-3.2-1.6-4.9-2.2c-0.2,0-0.3-0.1-0.5-0.1
	c-0.7,0-1.3,0.6-1.3,1.3c0,0,0,0,0,0c0,0.6,0.4,1.1,0.9,1.2c1.6,0.6,3.1,1.3,4.5,2.1c0.3,0.2,0.6,0.3,0.9,0.3c0.7,0,1.3-0.6,1.3-1.3
	C79.9,10.1,79.6,9.6,79.1,9.3"/>
<path id="パス_464" fill="#1A1311" d="M77.9,23.1c-1.7-1.1-3.5-2-5.5-2.6c-0.3-1.5-0.5-3-0.5-4.5c0-0.9,0.1-1.7,0.2-2.6
	c0.1-0.3,0-0.7-0.2-0.9c-0.3-0.3-0.6-0.5-1-0.5c-0.6,0-1.2,0.4-1.3,1.1c-0.2,1-0.3,2-0.3,2.9c0,1.3,0.2,2.6,0.4,3.8
	c-0.5-0.1-1.1-0.1-1.6-0.1c-4.4,0-5.9,2.2-5.9,4c0,2.6,2.1,4.2,5.6,4.2c3.1,0,5-1.8,5-4.7c1.3,0.6,2.6,1.3,3.8,2.1
	c0.2,0.2,0.5,0.3,0.8,0.3c0.7,0,1.3-0.6,1.3-1.3C78.6,23.8,78.3,23.3,77.9,23.1 M70.1,23.1c0.2,1.2-0.6,2.2-1.8,2.4
	c-0.2,0-0.4,0-0.6,0c-2,0-2.9-0.6-2.9-1.7c0-1.3,1.8-1.6,3.3-1.6c0.7,0,1.3,0.1,2,0.2C70.1,22.7,70.1,22.9,70.1,23.1"/>
<path id="パス_465" fill="#1A1311" d="M97,8c-7.8,0-12.5,5.8-12.5,11.3c0,4.1,2.4,6.2,4.8,6.2c1.9,0,3.3-1,4.7-3.2
	c2.1-3.7,3.3-7.8,3.4-12.1c4.5,0.2,7.4,2.9,7.4,7.1c0,3.7-1.9,6.2-5.7,7.4C98.4,25,98,25.5,98,26.2c0,0.7,0.6,1.3,1.3,1.3
	c0,0,0,0,0.1,0c0.2,0,0.4,0,0.5-0.1c4.5-1.2,7.6-5.4,7.6-10.1C107.4,11.8,103.2,8,97,8 M89.3,22.9c-1.1,0-2.2-1.3-2.2-3.6
	c0-1,0.2-2.1,0.6-3c0.3-0.8,0.7-1.5,1.3-2.2c0.8-1.1,1.8-1.9,3-2.6c0.9-0.5,1.9-0.8,2.9-1c-0.2,3.7-1.2,7.4-3,10.7
	C90.8,22.7,90,22.9,89.3,22.9"/>
<path id="パス_466" fill="#1A1311" d="M130.4,13.2H128V10h1.8c0.6,0,1.1-0.4,1.1-1c0,0,0,0,0-0.1c0-0.6-0.4-1.1-1-1.1
	c0,0-0.1,0-0.1,0h-6.6V5c1.5-0.2,3.1-0.6,4.8-1c0.6-0.1,1.1-0.6,1.1-1.2c0-0.7-0.6-1.3-1.3-1.3c0,0,0,0,0,0c-0.1,0-0.3,0-0.4,0.1
	c-3.7,1-7.5,1.6-11.3,1.8c-0.6,0-1.1,0.5-1.1,1.2c0,0.3,0.1,0.7,0.4,0.9c0.3,0.2,0.6,0.3,0.9,0.3c1.5-0.1,3-0.2,4.5-0.4v2.5h-5.8
	c-0.6,0-1.1,0.4-1.1,1c0,0,0,0,0,0.1c0,0.6,0.5,1.1,1.1,1.1c0,0,0,0,0,0h1.2v3.2h-2.3c-0.6,0-1.1,0.5-1.1,1.1c0,0.6,0.5,1.1,1.1,1.1
	h2.3v3.4h-1.3c-0.6,0-1.1,0.4-1.1,1c0,0,0,0,0,0.1c0,0.6,0.5,1.1,1.1,1.1c0,0,0,0,0,0h5.8v3.4c-2.1,0.2-4.2,0.4-6,0.5
	c-0.7,0-1.3,0.5-1.3,1.2c0,0,0,0,0,0c0,0.3,0.1,0.7,0.4,0.9c0.3,0.2,0.6,0.3,0.9,0.3c0,0,0.1,0,0.1,0c5-0.3,10-1,15-2.1
	c0.6-0.1,1-0.6,1-1.2c0-0.3-0.1-0.6-0.4-0.8c-0.3-0.2-0.8-0.3-1.2-0.2c-1.6,0.3-3.5,0.7-6.1,1V21h6.5c0.6,0,1.1-0.5,1.1-1.1
	c0,0,0,0,0,0c0-0.6-0.4-1.1-1-1.1c0,0,0,0-0.1,0H128v-3.4h2.4c0.6,0,1.1-0.5,1.1-1.1C131.5,13.7,131,13.2,130.4,13.2 M125.5,18.8
	h-2.4v-3.4h2.4V18.8z M125.5,13.2h-2.4V10h2.4V13.2z M120.7,18.8h-2.2v-3.4h2.2L120.7,18.8z M120.7,13.2h-2.2V10h2.2L120.7,13.2z"/>
<path id="パス_467" fill="#1A1311" d="M141,5.8c0.1-0.4,0.2-0.8,0.2-1.2c0-1.6-1.2-2.5-3.1-2.5h-2.9c-2.2,0-3.1,0.9-3.1,2.9v23.3
	c0,0.7,0.6,1.2,1.2,1.2c0,0,0,0,0,0c0.7,0,1.2-0.5,1.3-1.1c0,0,0,0,0-0.1v-23c0-0.8,0.2-0.9,1-0.9h2.1c0.8,0,0.8,0.3,0.8,0.4
	c0,0.2,0,0.3-0.1,0.5l0,0.1c-0.5,2-1.2,4-2.1,5.9c-0.2,0.4-0.3,0.8-0.3,1.3c0,0.6,0.3,1.2,0.7,1.6c1.6,1.4,2.5,3.5,2.6,5.6
	c0,2-0.7,2.2-1.2,2.2c-0.4,0-0.9-0.1-1.3-0.2c-0.4-0.1-0.8,0-1.2,0.2c-0.6,0.5-0.6,1.4-0.1,1.9c0.2,0.2,0.5,0.4,0.7,0.4
	c0.6,0.2,1.3,0.3,1.9,0.3c2.4,0,3.8-1.8,3.8-4.9c0-2.9-0.9-4.9-3.5-7.3C139.5,10.4,140.3,8.1,141,5.8"/>
<path id="パス_468" fill="#1A1311" d="M154.4,14.7h6c-0.8,3-2.8,5.4-5.5,6.8c-0.4,0.2-0.8,0.6-0.8,1.1c0,0.6,0.6,1.2,1.2,1.1
	c0.3,0,0.5-0.1,0.7-0.2c2.4-1.2,4.5-3.2,5.8-5.5c2.3,1.4,4.4,3,6.4,4.8c0.3,0.3,0.7,0.4,1.1,0.4c0.7,0,1.3-0.6,1.3-1.3c0,0,0,0,0,0
	c0-0.5-0.3-1-0.7-1.3c-2.2-1.9-4.6-3.5-7.2-4.8c0.1-0.4,0.2-0.8,0.3-1.3h8.4c0.6,0,1.1-0.5,1.1-1.1c0,0,0,0,0,0c0-0.6-0.4-1.1-1-1.2
	c0,0-0.1,0-0.1,0h-8c0.1-0.9,0.1-1.8,0.1-2.7V9h6.3c0.6,0,1.1-0.4,1.1-1c0,0,0-0.1,0-0.1c0-0.6-0.4-1.1-1-1.1c0,0-0.1,0-0.1,0h-4.2
	c0.8-1.3,1.5-2.6,2.1-4c0.1-0.2,0.1-0.4,0.1-0.6c0-0.7-0.6-1.3-1.3-1.3c-0.6,0-1.1,0.4-1.2,0.9c-0.6,1.8-1.5,3.4-2.5,5h-7.2
	c-0.6,0-1.1,0.6-1.1,1.2c0,0.6,0.5,1.1,1.1,1.1h5.4v0.6c0,1,0,1.9-0.2,2.9h-6.5c-0.6,0-1.1,0.5-1.1,1.1c0,0,0,0.1,0,0.1
	C153.3,14.2,153.8,14.7,154.4,14.7C154.4,14.7,154.4,14.7,154.4,14.7"/>
<path id="パス_469" fill="#1A1311" d="M147.2,4.5c1.1,0.8,2,1.7,2.9,2.7c0.3,0.4,0.7,0.6,1.1,0.6c0.7,0,1.3-0.6,1.3-1.3
	c0,0,0,0,0,0c0-0.4-0.2-0.8-0.5-1.1c-1-1.1-2.1-2-3.3-2.8c-0.2-0.2-0.5-0.2-0.8-0.2c-0.7,0-1.2,0.5-1.3,1.2
	C146.6,3.8,146.8,4.2,147.2,4.5"/>
<path id="パス_470" fill="#1A1311" d="M158.4,5.5c0.2,0.4,0.7,0.7,1.1,0.7c0.7,0,1.2-0.5,1.3-1.2c0-0.3-0.1-0.6-0.2-0.8l0,0
	c-0.6-1-1.3-1.8-2.1-2.7c-0.3-0.3-0.7-0.5-1.1-0.5c-0.6,0-1.1,0.5-1.2,1.1c0,0.3,0.1,0.6,0.3,0.9C157.2,3.8,157.9,4.6,158.4,5.5"/>
<path id="パス_471" fill="#1A1311" d="M172,25.1c-2.8,0.3-5.6,0.4-8.4,0.3c-7.9,0-10-1-11.6-3.1v-5.7c0-1.9-0.8-2.7-2.9-2.7h-3
	c-0.7,0-1.2,0.5-1.2,1.2c0,0.7,0.5,1.2,1.2,1.2h2.4c0.9,0,0.9,0.1,0.9,0.7v5.6c-1.2,1.4-2.5,2.5-4,3.5c-0.5,0.3-0.8,0.7-0.8,1.3
	c0,0.7,0.6,1.3,1.3,1.3c0.3,0,0.6-0.1,0.9-0.3c1.6-1.1,3-2.4,4.2-3.8c2.3,2.7,5.5,3.6,12.7,3.6c3.3,0,5.9-0.1,8.6-0.3
	c0.7,0,1.2-0.6,1.2-1.3c0-0.4-0.1-0.8-0.4-1C172.7,25.2,172.4,25.1,172,25.1"/>
<path id="パス_472" fill="#1A1311" d="M202.3,26.2c-2.7-1.1-5-2.9-6.6-5.2h2.9c2.3,0,3.3-0.9,3.3-2.8V16c0-1.9-1-2.6-3.3-2.6h-3.3
	v-1.8h2.2c0.6,0,1.1-0.5,1.1-1.2c0-0.6-0.5-1.1-1.1-1.1h-6.7c-0.6,0-1.1,0.5-1.1,1.1c0,0,0,0,0,0.1c0,0.6,0.4,1.1,1,1.2
	c0,0,0.1,0,0.1,0h2v1.8h-3c-2.3,0-3.3,0.8-3.3,2.6v2.3c0.1,2.4,1.6,2.7,3.3,2.8h1.9c-1.3,2.7-3.6,4.8-6.5,5.7
	c-0.5,0.1-0.9,0.6-0.9,1.2c0,0.7,0.5,1.2,1.2,1.2c0,0,0,0,0,0c0.2,0,0.4,0,0.6-0.1c3.4-1.1,6.2-3.6,7.8-6.8c1.8,2.8,4.3,5,7.3,6.5
	c0.2,0.1,0.5,0.2,0.8,0.2c0.8,0,1.4-0.6,1.3-1.4C203.2,27,202.9,26.5,202.3,26.2 M198.2,15.6c1.1,0,1.2,0.2,1.2,0.8V18
	c0,0.7-0.4,0.7-1.2,0.8H195c0.2-1.1,0.3-2.1,0.3-3.2H198.2z M192.7,15.6l0,0.1c0,1-0.1,2.1-0.3,3.1h-2.2c-1.1,0-1.2-0.2-1.2-0.8
	v-1.7c0-0.5,0.1-0.8,1.2-0.8H192.7z"/>
<path id="パス_473" fill="#1A1311" d="M203.5,9.5c-3.1-1.8-5.9-4.2-8.1-7c0-0.1,0.1-0.3,0.1-0.4c0-0.7-0.6-1.2-1.3-1.2
	c-0.5,0-1,0.3-1.3,0.8c-2,3.4-4.6,6.3-7.8,8.7c-0.4,0.2-0.6,0.7-0.6,1.1c0,0.7,0.5,1.2,1.2,1.2c0.3,0,0.6-0.1,0.8-0.3
	c2.9-2.2,5.5-4.8,7.6-7.7c2.2,2.9,4.9,5.4,8,7.4c0.2,0.2,0.5,0.2,0.8,0.2c0.8,0,1.4-0.6,1.4-1.4c0,0,0,0,0,0
	C204.3,10.2,204,9.7,203.5,9.5"/>
<path id="パス_474" fill="#1A1311" d="M185.9,17.1c0-0.4-0.1-0.7-0.4-1c-0.9-1.2-2.1-2.3-3.4-3.2v-3h2.3c0.6,0,1.1-0.5,1.1-1.1
	c0,0,0-0.1,0-0.1c0-0.6-0.4-1.1-1-1.1c0,0-0.1,0-0.1,0h-2.3V1.8c0-0.7-0.6-1.2-1.3-1.2c-0.6,0-1.1,0.5-1.2,1.2v5.8h-3.1
	c-0.6,0-1.1,0.5-1.1,1.1c0,0,0,0,0,0c0,0.6,0.4,1.1,1,1.2c0,0,0,0,0.1,0h2.7c-0.8,3.6-2.2,7.1-4.1,10.2c-0.2,0.3-0.3,0.5-0.3,0.9
	c0,0.6,0.5,1.1,1,1.1c0,0,0,0,0,0c0.5,0,0.9-0.3,1.1-0.7c1.1-1.7,2-3.6,2.7-5.5l-0.1,5.1v7.4c0.1,0.7,0.6,1.2,1.3,1.1
	c0.6,0,1.1-0.5,1.1-1.1V15.8c0.6,0.6,1.1,1.2,1.5,1.8c0.2,0.4,0.6,0.6,1.1,0.6C185.4,18.3,185.9,17.7,185.9,17.1"/>
<path id="パス_475" fill="#1A1311" d="M234,13.1c-3.9-1.4-7.4-3.6-10.5-6.3h9.1c0.6,0,1.1-0.5,1.1-1.1c0,0,0-0.1,0-0.1
	c0-0.6-0.4-1.1-1-1.2c0,0-0.1,0-0.1,0h-10.7V1.6c-0.1-0.7-0.7-1.2-1.4-1.1c-0.6,0.1-1.1,0.5-1.1,1.1v2.8h-10.2
	c-0.6,0-1.1,0.5-1.1,1.1c0,0,0,0,0,0.1c0,0.6,0.4,1.2,1.1,1.2c0,0,0,0,0.1,0h8.4c-2.9,2.9-6.3,5.3-10.1,6.9c-0.5,0.2-0.9,0.7-1,1.2
	c0,0.7,0.5,1.2,1.2,1.2c0,0,0,0,0,0c0.2,0,0.5,0,0.7-0.1c4.2-1.7,7.9-4.4,11-7.7l-0.1,1.8v2.5c0,0.7,0.6,1.2,1.3,1.2
	c0.7,0,1.2-0.6,1.2-1.2V10l-0.1-1.9c3.2,3.3,7,5.8,11.2,7.5c0.2,0.1,0.5,0.1,0.7,0.1c0.7,0,1.3-0.5,1.3-1.2c0,0,0,0,0-0.1
	C235,13.8,234.6,13.3,234,13.1"/>
<path id="パス_476" fill="#1A1311" d="M233.1,26.2h-4.4V17c0-2-1.1-2.9-3.6-2.9h-8.7c-2.5,0-3.6,0.9-3.6,2.9v9.2h-4.4
	c-0.6,0-1.1,0.6-1.1,1.2c0,0.6,0.5,1,1.1,1.1h24.7c0.6,0,1.1-0.6,1.1-1.2C234.1,26.7,233.7,26.2,233.1,26.2 M226.1,17.3v0.8h-10.7
	v-0.8c0-0.6,0.1-0.9,1.4-0.9h7.9C226,16.4,226.1,16.7,226.1,17.3 M226.1,22.1h-10.7v-1.8h10.7L226.1,22.1z M226.1,26.2h-10.7v-1.9
	h10.7L226.1,26.2z"/>
<path id="パス_477" fill="#1A1311" d="M239.8,10.3c0.7,0.1,1.2-0.4,1.3-1.1c0,0,0,0,0-0.1V7c0-0.5,0.1-0.8,1.2-0.8h18.6
	c1.2,0,1.2,0.4,1.2,0.9v1.9c0.1,0.7,0.7,1.2,1.5,1.2c0.6-0.1,1.1-0.5,1.2-1.2V6.6c0-1.3-0.6-2.8-3.4-2.8h-8.5V1.6
	c-0.1-0.7-0.7-1.3-1.4-1.2c-0.6,0.1-1.1,0.6-1.2,1.2v2.2h-8.3c-2.8,0-3.4,1.5-3.4,2.8v2.5C238.5,9.8,239.1,10.4,239.8,10.3
	C239.8,10.3,239.8,10.3,239.8,10.3"/>
<path id="パス_478" fill="#1A1311" d="M264.3,25.9h-11.5v-3h8c0.6,0,1.1-0.5,1.1-1.1c0,0,0-0.1,0-0.1c0-0.6-0.4-1.1-1-1.2
	c0,0-0.1,0-0.1,0h-8v-1.7c-0.1-0.7-0.7-1.3-1.4-1.2c-0.6,0.1-1.1,0.6-1.2,1.2v1.7h-8.1c-0.6,0-1.1,0.5-1.1,1.1c0,0,0,0.1,0,0.1
	c0,0.6,0.4,1.1,1,1.2c0,0,0,0,0.1,0h8.1v3H239c-0.6,0-1.1,0.5-1.1,1.1c0,0,0,0.1,0,0.1c0,0.6,0.5,1.1,1.1,1.2c0,0,0,0,0,0h25.4
	c0.6,0,1.1-0.5,1.1-1.1c0,0,0,0,0,0C265.5,26.5,265.1,26,264.3,25.9C264.4,25.9,264.4,25.9,264.3,25.9"/>
<path id="パス_479" fill="#1A1311" d="M241.9,15.1h-0.1c-0.7,0-1.3,0.5-1.3,1.2c0,0,0,0,0,0.1c0,0.3,0.1,0.7,0.4,0.9
	c0.3,0.3,0.6,0.4,1,0.4c5.2-0.2,11.3-0.7,16.6-1.4c0.6,0.5,1.1,1,1.6,1.5c0.3,0.3,0.7,0.5,1.1,0.5c0.7,0,1.3-0.6,1.3-1.3
	c0,0,0,0,0,0c0-0.4-0.2-0.9-0.6-1.2c-1.6-1.5-3.4-2.8-5.2-3.9c-0.3-0.2-0.6-0.3-0.9-0.3c-0.6,0-1.1,0.5-1.2,1.1
	c0,0.4,0.3,0.9,0.6,1.1c0.2,0.1,0.5,0.3,0.8,0.6c-2.6,0.2-5.2,0.4-7.8,0.6c0.7-1,1.3-2.1,1.8-3.1c0.2-0.3,0.3-0.5,0.5-0.8h9.3
	c0.6,0,1.1-0.5,1.1-1.1s-0.5-1.1-1.1-1.1h-16.5c-0.6,0-1.1,0.6-1.1,1.2c0,0.6,0.5,1.1,1.1,1.1h4.4c-0.7,1.4-1.5,2.7-2.4,4
	C244.2,15.1,243,15.1,241.9,15.1"/>
</svg>
