<?xml version="1.0" encoding="utf-8"?>
<!-- Generator: Adobe Illustrator 28.0.0, SVG Export Plug-In . SVG Version: 6.00 Build 0)  -->
<svg version="1.1" id="レイヤー_1" xmlns="http://www.w3.org/2000/svg" xmlns:xlink="http://www.w3.org/1999/xlink" x="0px"
	 y="0px" width="37px" height="50px" viewBox="0 0 37 50" enable-background="new 0 0 37 50" xml:space="preserve">
<g>
	<path fill="#EA7F82" d="M34.1,3.5c-0.1-0.1-0.1-0.1-0.2-0.2C32.3,1.8,30.2,1,28,1c0,0,0,0,0,0c-2.2,0-4.4,0.9-6,2.5l-5.4,5.7
		l-1.9-1.9c-0.5-0.4-1-0.8-1.5-1.1v3.4l2.4,2.4c0.5,0.5,1.4,0.5,1.9,0L24,5.4C25,4.3,26.5,3.7,28,3.7c0,0,0,0,0,0
		c1.5,0,3,0.6,4.1,1.7c0.1,0.1,0.1,0.1,0.1,0.1c2.2,2.3,2.1,5.8-0.1,8l-6.6,6.7V24l8.4-8.6C37.3,12.2,37.3,6.8,34.1,3.5z"/>
	<path fill="#EA7F82" d="M16.6,29.3L4.8,17.4c-1-1-1.6-2.4-1.6-3.9c0-1.5,0.5-3,1.6-4.1c0.8-0.9,1.8-1.4,3-1.7V5.1
		c-1.7,0.2-3.3,1-4.6,2.2C1.5,8.9,0.6,11,0.5,13.3s0.8,4.4,2.3,6l12.8,12.8c0.3,0.3,0.6,0.4,0.9,0.4c0,0,0,0,0,0
		c0.4,0,0.7-0.1,0.9-0.4l2.4-2.5v-3.8L16.6,29.3z"/>
	<path fill="#53ACAB" d="M23,9.5c-0.8,0-1.5,0.6-1.6,1.4c0,0,0,0.1,0,0.1l-0.3,16c0,0.8,0.6,1.5,1.5,1.6h0c0.8,0,1.5-0.7,1.5-1.5
		l0.3-16C24.5,10.3,23.9,9.6,23,9.5z"/>
	<rect x="9" y="15.1" fill="#53ACAB" width="15.3" height="3"/>
	<path fill="#EA7F82" d="M10.5,1.1C10.5,1.1,10.5,1.1,10.5,1.1C9.7,1.1,9,1.7,9,2.5v16.8c0,0.8,0.7,1.5,1.5,1.5
		c0.8,0,1.5-0.7,1.5-1.5V2.5C12,1.7,11.3,1.1,10.5,1.1z"/>
	<path fill="#53ACAB" d="M24.5,31.9l-1.7-2.6l-1.7,2.6c-0.8,1.1-0.8,2.5,0,3.5c0.4,0.5,1.1,0.7,1.7,0.7c0.5,0,1.1-0.2,1.5-0.6
		c0.1-0.1,0.1-0.1,0.2-0.2C25.2,34.3,25.3,32.9,24.5,31.9z"/>
	<path id="パス_570" fill="#53ACAB" d="M11.7,40c-0.4,0-0.8,0.3-0.8,0.7c0,0,0,0,0,0.1c0,0.5,0,0.9,0,1.3c0,0.6,0,1.1,0,1.4
		c-0.9,0-3.2,0-4,0c0-0.3,0-0.8,0-1.4c0-0.4,0-0.9,0-1.4c0-0.4-0.3-0.8-0.8-0.8c0,0,0,0,0,0c-0.4,0-0.8,0.3-0.8,0.7c0,0,0,0,0,0
		c0,0.8,0,2,0,3.2c0,1.4,0,2.9,0,4.2c0,0.4,0.3,0.7,0.7,0.7c0,0,0,0,0.1,0c0.4,0,0.8-0.3,0.8-0.7c0,0,0,0,0,0c0-0.5,0-1,0-1.5
		c0-0.7,0-1.3,0-1.6c0.9,0,3,0,4,0c0,0.3,0,0.9,0,1.5c0,0.5,0,1.1,0,1.6c0,0.4,0.4,0.8,0.8,0.7c0.4,0,0.7-0.3,0.7-0.7v0
		c0-0.9,0-2.4,0-3.9c0-1.3,0-2.6,0-3.5C12.5,40.4,12.1,40,11.7,40C11.7,40,11.7,40,11.7,40"/>
	<path id="パス_571" fill="#53ACAB" d="M21.1,46.1c-0.3,0-0.5,0.1-0.7,0.4c-0.5,0.6-1.3,1-2.1,0.9c-1.5,0-2.8-1.2-2.8-2.8
		c0-0.1,0-0.1,0-0.2c-0.1-1.6,1.1-2.9,2.7-3c0,0,0.1,0,0.1,0c0.7,0,1.3,0.3,1.8,0.8c0.2,0.2,0.4,0.3,0.7,0.3c0.4,0,0.8-0.4,0.8-0.8
		c0-0.7-1.3-1.8-3.2-1.8c-2.5,0-4.5,2-4.5,4.4c0,0.1,0,0.1,0,0.2c-0.1,2.4,1.8,4.3,4.1,4.4c0.1,0,0.2,0,0.3,0c2.1,0,3.6-1.3,3.6-2
		C21.9,46.5,21.6,46.2,21.1,46.1"/>
	<path id="パス_572" fill="#53ACAB" d="M28.9,47.3L28.9,47.3c-0.2,0-0.9,0-1.6,0c-1.6,0-1.6,0-1.6-0.3c0-0.2,0-0.8,0-1.6
		c0-1.6,0-3.9,0.1-4.6c0-0.4-0.3-0.8-0.8-0.8c0,0,0,0,0,0c-0.4,0-0.8,0.3-0.8,0.7c0,0,0,0,0,0.1v0.3c0,0.5,0,1.3,0,2.2
		c0,1,0,2.1,0,3c0,0.4,0,0.8,0,1c0.1,1.3,1.1,1.5,1.8,1.6c0.1,0,0.8,0,1.5,0c0.7,0,1.4,0,1.5,0c0.4,0,0.8-0.3,0.8-0.8c0,0,0,0,0,0
		C29.7,47.7,29.4,47.3,28.9,47.3C28.9,47.3,28.9,47.3,28.9,47.3"/>
</g>
</svg>
