<?xml version="1.0" encoding="utf-8"?>
<!-- Generator: Adobe Illustrator 28.2.0, SVG Export Plug-In . SVG Version: 6.00 Build 0)  -->
<svg version="1.1" id="レイヤー_1" xmlns="http://www.w3.org/2000/svg" xmlns:xlink="http://www.w3.org/1999/xlink" x="0px"
	 y="0px" width="30px" height="30px" viewBox="0 0 30 30" style="enable-background:new 0 0 30 30;" xml:space="preserve">
<style type="text/css">
	.st0{fill:#FFFFFF;}
</style>
<path d="M30,15c0,8.3-6.7,15-15,15S0,23.3,0,15S6.7,0,15,0S30,6.7,30,15"/>
<path class="st0" d="M16.6,13.7l6.3-7.4h-1.5L16,12.7l-4.4-6.4H6.5l6.6,9.7l-6.6,7.7H8l5.8-6.7l4.6,6.7h5.1L16.6,13.7L16.6,13.7z
	 M14.6,16.1l-0.7-1L8.5,7.4h2.3l4.3,6.2l0.7,1l5.6,8h-2.3L14.6,16.1L14.6,16.1z"/>
</svg>
